%TF.GenerationSoftware,KiCad,Pcbnew,(6.0.11)*%
%TF.CreationDate,2024-06-16T13:35:46-04:00*%
%TF.ProjectId,NS32016-BC,4e533332-3031-4362-9d42-432e6b696361,rev?*%
%TF.SameCoordinates,Original*%
%TF.FileFunction,Drillmap*%
%TF.FilePolarity,Positive*%
%FSLAX45Y45*%
G04 Gerber Fmt 4.5, Leading zero omitted, Abs format (unit mm)*
G04 Created by KiCad (PCBNEW (6.0.11)) date 2024-06-16 13:35:46*
%MOMM*%
%LPD*%
G01*
G04 APERTURE LIST*
%ADD10C,0.150000*%
%ADD11C,0.200000*%
G04 APERTURE END LIST*
D10*
X12192000Y-13081000D02*
X12192000Y-37465000D01*
X12192000Y-13081000D02*
X36576000Y-13081000D01*
X36576000Y-37465000D02*
X12192000Y-37465000D01*
X36576000Y-37465000D02*
X36576000Y-13081000D01*
D11*
X12442119Y-37782976D02*
X12442119Y-37582976D01*
X12489738Y-37582976D01*
X12518309Y-37592500D01*
X12537357Y-37611548D01*
X12546881Y-37630595D01*
X12556405Y-37668690D01*
X12556405Y-37697262D01*
X12546881Y-37735357D01*
X12537357Y-37754405D01*
X12518309Y-37773452D01*
X12489738Y-37782976D01*
X12442119Y-37782976D01*
X12642119Y-37782976D02*
X12642119Y-37649643D01*
X12642119Y-37687738D02*
X12651643Y-37668690D01*
X12661167Y-37659167D01*
X12680214Y-37649643D01*
X12699262Y-37649643D01*
X12765928Y-37782976D02*
X12765928Y-37649643D01*
X12765928Y-37582976D02*
X12756405Y-37592500D01*
X12765928Y-37602024D01*
X12775452Y-37592500D01*
X12765928Y-37582976D01*
X12765928Y-37602024D01*
X12889738Y-37782976D02*
X12870690Y-37773452D01*
X12861167Y-37754405D01*
X12861167Y-37582976D01*
X12994500Y-37782976D02*
X12975452Y-37773452D01*
X12965928Y-37754405D01*
X12965928Y-37582976D01*
X13223071Y-37782976D02*
X13223071Y-37582976D01*
X13289738Y-37725833D01*
X13356405Y-37582976D01*
X13356405Y-37782976D01*
X13537357Y-37782976D02*
X13537357Y-37678214D01*
X13527833Y-37659167D01*
X13508786Y-37649643D01*
X13470690Y-37649643D01*
X13451643Y-37659167D01*
X13537357Y-37773452D02*
X13518309Y-37782976D01*
X13470690Y-37782976D01*
X13451643Y-37773452D01*
X13442119Y-37754405D01*
X13442119Y-37735357D01*
X13451643Y-37716310D01*
X13470690Y-37706786D01*
X13518309Y-37706786D01*
X13537357Y-37697262D01*
X13632595Y-37649643D02*
X13632595Y-37849643D01*
X13632595Y-37659167D02*
X13651643Y-37649643D01*
X13689738Y-37649643D01*
X13708786Y-37659167D01*
X13718309Y-37668690D01*
X13727833Y-37687738D01*
X13727833Y-37744881D01*
X13718309Y-37763929D01*
X13708786Y-37773452D01*
X13689738Y-37782976D01*
X13651643Y-37782976D01*
X13632595Y-37773452D01*
X13813548Y-37763929D02*
X13823071Y-37773452D01*
X13813548Y-37782976D01*
X13804024Y-37773452D01*
X13813548Y-37763929D01*
X13813548Y-37782976D01*
X13813548Y-37659167D02*
X13823071Y-37668690D01*
X13813548Y-37678214D01*
X13804024Y-37668690D01*
X13813548Y-37659167D01*
X13813548Y-37678214D01*
M02*
