M48
; DRILL file {KiCad (6.0.11)} date Sun Jun 16 13:35:44 2024
; FORMAT={-:-/ absolute / inch / decimal}
; #@! TF.CreationDate,2024-06-16T13:35:44-04:00
; #@! TF.GenerationSoftware,Kicad,Pcbnew,(6.0.11)
; #@! TF.FileFunction,Plated,1,4,PTH
FMAT,2
INCH
; #@! TA.AperFunction,Plated,PTH,ViaDrill
T1C0.0157
; #@! TA.AperFunction,Plated,PTH,ComponentDrill
T2C0.0276
; #@! TA.AperFunction,Plated,PTH,ComponentDrill
T3C0.0315
; #@! TA.AperFunction,Plated,PTH,ComponentDrill
T4C0.0320
; #@! TA.AperFunction,Plated,PTH,ComponentDrill
T5C0.0354
; #@! TA.AperFunction,Plated,PTH,ComponentDrill
T6C0.0394
; #@! TA.AperFunction,Plated,PTH,ComponentDrill
T7C0.0433
; #@! TA.AperFunction,Plated,PTH,ComponentDrill
T8C0.0591
; #@! TA.AperFunction,Plated,PTH,ComponentDrill
T9C0.0630
; #@! TA.AperFunction,Plated,PTH,ComponentDrill
T10C0.0669
; #@! TA.AperFunction,Plated,PTH,ComponentDrill
T11C0.1260
; #@! TA.AperFunction,Plated,PTH,ComponentDrill
T12C0.1693
%
G90
G05
T1
X6.1013Y-9.3894
X6.1013Y-10.4815
X6.3284Y-10.1804
X6.5629Y-9.8589
X6.6551Y-13.3629
X6.6579Y-8.9154
X6.686Y-11.0111
X6.7Y-10.7176
X6.7054Y-8.9118
X6.7231Y-9.5957
X6.75Y-11.1997
X6.9214Y-10.7823
X7.1616Y-13.1065
X7.5921Y-9.2184
X7.6217Y-10.1968
X7.6217Y-10.4682
X7.7163Y-13.6551
X7.8244Y-9.2824
X7.849Y-11.3025
X7.8566Y-9.4898
X7.8655Y-10.6733
X7.9201Y-8.7589
X7.9254Y-12.6578
X7.9415Y-9.2536
X7.9725Y-11.2904
X7.9796Y-10.1001
X8.0077Y-10.0363
X8.0198Y-9.9283
X8.0719Y-9.9577
X8.0722Y-11.4951
X8.0896Y-9.8868
X8.1007Y-11.4577
X8.1617Y-9.9922
X8.1644Y-9.8771
X8.1647Y-12.4376
X8.1965Y-11.5338
X8.2086Y-8.6734
X8.2614Y-9.2246
X8.2639Y-10.6028
X8.2665Y-11.663
X8.2678Y-11.3324
X8.2824Y-11.4605
X8.2877Y-10.9577
X8.3099Y-8.7832
X8.3497Y-8.6359
X8.3914Y-8.5943
X8.3921Y-11.599
X8.4552Y-8.0984
X8.4829Y-8.4623
X8.5784Y-8.4208
X8.5871Y-6.435
X8.6124Y-8.1283
X8.7806Y-9.7558
X8.8031Y-7.8555
X8.8316Y-9.7186
X8.8402Y-9.2348
X8.85Y-7.9912
X8.8586Y-10.1247
X8.8953Y-8.4311
X8.9095Y-9.27
X8.9409Y-9.2057
X8.9557Y-7.8158
X8.9911Y-10.0836
X8.9957Y-9.2232
X9.0224Y-8.3584
X9.0472Y-10.6446
X9.078Y-7.176
X9.0796Y-7.4945
X9.0983Y-8.2571
X9.1129Y-8.7482
X9.1629Y-7.203
X9.1668Y-7.1636
X9.1825Y-10.0845
X9.2073Y-9.4502
X9.2437Y-10.1318
X9.248Y-9.6802
X9.2658Y-7.4788
X9.2863Y-6.3884
X9.3057Y-12.2986
X9.3155Y-7.1506
X9.3555Y-11.8483
X9.3947Y-10.9962
X9.4224Y-10.3143
X9.4288Y-8.8453
X9.492Y-8.7533
X9.5076Y-8.7938
X9.5511Y-7.1593
X9.6589Y-8.2956
X9.6595Y-9.8394
X9.7362Y-10.6125
X9.7422Y-7.3719
X9.7836Y-12.2221
X9.7882Y-10.8433
X9.7963Y-9.9821
X9.8258Y-9.724
X9.8374Y-11.2793
X9.86Y-9.9915
X9.8731Y-6.9051
X9.8813Y-11.1774
X9.8947Y-11.8427
X9.9011Y-12.2996
X9.9202Y-11.4497
X9.9276Y-6.9347
X10.0137Y-11.4838
X10.0252Y-9.6584
X10.0307Y-10.4949
X10.0531Y-9.8029
X10.0882Y-10.9449
X10.0896Y-12.2861
X10.0936Y-12.4569
X10.0948Y-7.5038
X10.1068Y-11.0641
X10.1147Y-9.663
X10.1172Y-11.9834
X10.1202Y-8.4971
X10.1296Y-11.0025
X10.1468Y-11.6994
X10.1539Y-9.8036
X10.164Y-11.9941
X10.189Y-8.9921
X10.2347Y-8.9896
X10.2383Y-10.042
X10.2494Y-13.5211
X10.2632Y-7.9461
X10.27Y-6.6136
X10.2941Y-6.3287
X10.2949Y-6.443
X10.3003Y-7.9662
X10.306Y-9.5584
X10.3214Y-8.1526
X10.3553Y-11.5008
X10.3645Y-8.7329
X10.4201Y-11.3396
X10.439Y-11.2333
X10.4431Y-10.3554
X10.4544Y-12.4769
X10.4879Y-11.0757
X10.492Y-7.4394
X10.5165Y-8.6992
X10.6091Y-6.0791
X10.6725Y-8.4884
X10.7196Y-12.5275
X10.7263Y-7.8482
X10.7443Y-7.0938
X10.794Y-7.9378
X10.8002Y-13.3048
X10.8461Y-14.7111
X10.8536Y-10.312
X10.8891Y-8.4256
X10.9133Y-8.1055
X10.9246Y-10.0602
X10.9346Y-13.318
X11.001Y-6.1365
X11.022Y-13.9536
X11.0557Y-12.5445
X11.1446Y-12.3864
X11.1741Y-11.8077
X11.1771Y-10.7366
X11.1971Y-11.0224
X11.2015Y-12.3283
X11.2037Y-11.5287
X11.213Y-9.4409
X11.2231Y-12.6943
X11.2293Y-9.3463
X11.2302Y-11.587
X11.2353Y-13.4224
X11.2368Y-8.9496
X11.2459Y-7.3725
X11.2467Y-9.8281
X11.2473Y-13.3249
X11.2634Y-8.0093
X11.2819Y-7.8233
X11.2819Y-11.2725
X11.2864Y-11.6165
X11.2892Y-7.6644
X11.292Y-12.5515
X11.2951Y-9.4949
X11.2954Y-9.5395
X11.2981Y-11.2068
X11.3031Y-9.5921
X11.3038Y-9.7793
X11.3063Y-10.9169
X11.3162Y-11.1637
X11.3504Y-11.0102
X11.3729Y-8.6133
X11.3868Y-12.4123
X11.4073Y-11.7843
X11.4126Y-12.2155
X11.4168Y-12.9478
X11.4227Y-10.6007
X11.4252Y-13.6394
X11.4294Y-12.7017
X11.4417Y-11.9435
X11.4541Y-8.0713
X11.459Y-11.8961
X11.4603Y-9.2546
X11.4715Y-10.2773
X11.5131Y-7.6436
X11.5232Y-6.975
X11.5557Y-12.0723
X11.559Y-9.8778
X11.5594Y-8.0094
X11.5742Y-13.652
X11.5826Y-10.6368
X11.5997Y-7.6722
X11.6011Y-9.3476
X11.6078Y-11.4478
X11.6139Y-11.6997
X11.6416Y-8.4549
X11.6943Y-10.0372
X11.7195Y-11.6456
X11.7236Y-10.2829
X11.7381Y-11.2712
X11.7459Y-9.8379
X11.7576Y-10.6954
X11.7886Y-11.483
X11.867Y-10.0431
X11.8672Y-11.6089
X11.917Y-10.2916
X11.9195Y-9.8037
X11.9628Y-9.1174
X11.9754Y-9.2182
X11.9989Y-9.1819
X12.0055Y-10.5312
X12.028Y-11.2982
X12.0401Y-10.4367
X12.05Y-10.7756
X12.1637Y-10.549
X12.1649Y-6.1987
X12.1943Y-11.2842
X12.1962Y-10.7875
X12.2866Y-9.9436
X12.3132Y-10.5683
X12.3341Y-10.2199
X12.3526Y-10.7135
X12.3598Y-9.8204
X12.3678Y-9.5051
X12.4057Y-11.483
X12.48Y-9.8586
X12.5446Y-9.8946
X12.5447Y-9.6916
X12.5449Y-9.6004
X12.5456Y-8.8401
X12.5692Y-9.6604
X12.5709Y-9.4696
X12.6051Y-8.8996
X12.6461Y-10.4731
X12.6644Y-10.7058
X12.6932Y-10.8106
X12.7352Y-10.8398
X12.7768Y-9.2275
X12.8444Y-10.2927
X12.8991Y-12.0891
X12.9131Y-13.9242
X12.9394Y-9.831
X12.9495Y-10.1309
X12.9577Y-14.182
X12.9943Y-11.0524
X13.05Y-13.4225
X13.0715Y-10.0723
X13.0838Y-13.7635
X13.1Y-11.6974
X13.1897Y-12.7962
X13.2085Y-13.1752
X13.2236Y-10.4453
X13.2489Y-10.2906
X13.2944Y-10.0431
X13.35Y-12.0482
X13.3943Y-8.0288
X13.3986Y-10.4971
X13.4054Y-12.0572
X13.4506Y-10.1077
X13.4873Y-9.1274
X13.6369Y-9.4669
X13.7341Y-10.1653
X13.8494Y-13.7075
X14.0046Y-13.7446
X14.1415Y-10.8095
X14.3506Y-10.4518
T2
X8.2Y-13.9248
X8.5Y-13.9248
X9.0Y-13.9248
X9.0Y-14.1248
X9.3Y-13.9248
X9.3Y-14.1248
X9.9Y-13.9248
X9.9Y-14.1248
X10.2Y-13.9248
X10.2Y-14.1248
T3
X4.8768Y-9.275
X4.9752Y-9.275
X5.0Y-11.95
X5.0Y-12.25
X5.0Y-12.45
X5.0Y-13.5
X5.0Y-13.6969
X5.0Y-13.95
X5.0Y-14.1469
X5.0Y-14.4
X5.0Y-14.5969
X5.1Y-11.95
X5.1Y-12.25
X5.1Y-12.45
X5.1Y-12.85
X5.1Y-13.0469
X5.2Y-11.95
X5.2Y-12.25
X5.2Y-12.45
X5.2Y-13.45
X5.2Y-13.75
X5.2Y-13.9
X5.2Y-14.2
X5.2Y-14.35
X5.2Y-14.65
X5.3Y-11.95
X5.3Y-12.25
X5.3Y-12.45
X5.3Y-12.65
X5.3Y-13.25
X5.3Y-13.45
X5.3Y-13.75
X5.3Y-13.9
X5.3Y-14.2
X5.3Y-14.35
X5.3Y-14.65
X5.4Y-11.95
X5.4Y-12.25
X5.4Y-12.45
X5.4Y-12.65
X5.4Y-13.25
X5.4Y-13.45
X5.4Y-13.75
X5.4Y-13.9
X5.4Y-14.2
X5.4Y-14.35
X5.4Y-14.65
X5.5Y-11.95
X5.5Y-12.25
X5.5Y-12.45
X5.5Y-12.65
X5.5Y-13.25
X5.5Y-13.45
X5.5Y-13.75
X5.5Y-13.9
X5.5Y-14.2
X5.5Y-14.35
X5.5Y-14.65
X5.6Y-11.95
X5.6Y-12.25
X5.6Y-12.45
X5.6Y-12.65
X5.6Y-13.25
X5.6Y-13.45
X5.6Y-13.75
X5.6Y-13.9
X5.6Y-14.2
X5.6Y-14.35
X5.6Y-14.65
X5.7Y-11.95
X5.7Y-12.25
X5.7Y-12.45
X5.7Y-12.65
X5.7Y-13.25
X5.7Y-13.45
X5.7Y-13.75
X5.7Y-13.9
X5.7Y-14.2
X5.7Y-14.35
X5.7Y-14.65
X5.8Y-12.45
X5.8Y-12.65
X5.8Y-13.25
X5.8Y-13.45
X5.8Y-13.75
X5.8Y-13.9
X5.8Y-14.2
X5.8Y-14.35
X5.8Y-14.65
X5.9Y-12.45
X5.9Y-12.65
X5.9Y-13.25
X5.9Y-13.45
X5.9Y-13.75
X5.9Y-13.9
X5.9Y-14.2
X5.9Y-14.35
X5.9Y-14.65
X5.95Y-11.95
X5.95Y-12.25
X6.0Y-12.65
X6.0Y-13.25
X6.0Y-13.9
X6.0Y-14.2
X6.0Y-14.35
X6.0Y-14.65
X6.05Y-11.95
X6.05Y-12.25
X6.1Y-12.65
X6.1Y-13.25
X6.1Y-13.9
X6.1Y-14.2
X6.1Y-14.35
X6.1Y-14.65
X6.15Y-11.95
X6.15Y-12.25
X6.1781Y-12.475
X6.2Y-12.65
X6.2Y-13.25
X6.2016Y-9.1
X6.2016Y-9.4
X6.2016Y-9.7
X6.2016Y-10.0
X6.2016Y-10.3
X6.2016Y-10.6
X6.2016Y-10.9
X6.2016Y-11.2
X6.25Y-11.95
X6.25Y-12.25
X6.3Y-12.65
X6.3Y-13.25
X6.35Y-11.95
X6.35Y-12.25
X6.35Y-14.15
X6.375Y-12.475
X6.3984Y-9.1
X6.3984Y-9.4
X6.3984Y-9.7
X6.3984Y-10.0
X6.3984Y-10.3
X6.3984Y-10.6
X6.3984Y-10.9
X6.3984Y-11.2
X6.4Y-12.65
X6.4Y-13.25
X6.4484Y-14.15
X6.45Y-11.95
X6.45Y-12.25
X6.5Y-12.475
X6.5Y-12.65
X6.5Y-13.25
X6.5Y-13.65
X6.5Y-13.8469
X6.5Y-14.4
X6.5Y-14.5969
X6.55Y-11.95
X6.55Y-12.25
X6.5984Y-12.475
X6.6Y-12.65
X6.6Y-13.25
X6.65Y-11.95
X6.65Y-12.25
X6.7Y-12.65
X6.7Y-13.25
X6.7Y-13.65
X6.7Y-13.95
X6.7Y-14.35
X6.7Y-14.65
X6.8Y-12.65
X6.8Y-13.25
X6.8Y-13.65
X6.8Y-13.95
X6.8Y-14.35
X6.8Y-14.65
X6.9Y-11.95
X6.9Y-12.25
X6.9Y-12.65
X6.9Y-13.25
X6.9Y-13.65
X6.9Y-13.95
X6.9Y-14.35
X6.9Y-14.65
X7.0Y-11.95
X7.0Y-12.25
X7.0Y-12.65
X7.0Y-13.25
X7.0Y-13.65
X7.0Y-13.95
X7.0Y-14.35
X7.0Y-14.65
X7.1Y-11.95
X7.1Y-12.25
X7.1Y-12.65
X7.1Y-13.25
X7.1Y-13.65
X7.1Y-13.95
X7.1Y-14.35
X7.1Y-14.65
X7.2Y-11.95
X7.2Y-12.25
X7.2Y-12.65
X7.2Y-13.25
X7.2Y-13.65
X7.2Y-13.95
X7.2Y-14.35
X7.2Y-14.65
X7.3Y-11.95
X7.3Y-12.25
X7.3Y-12.65
X7.3Y-13.25
X7.3Y-13.65
X7.3Y-13.95
X7.3Y-14.35
X7.3Y-14.65
X7.4Y-11.95
X7.4Y-12.25
X7.4Y-12.65
X7.4Y-13.25
X7.5Y-11.95
X7.5Y-12.25
X7.5Y-12.65
X7.5Y-13.25
X7.6Y-11.95
X7.6Y-12.25
X7.6Y-12.65
X7.6Y-13.25
X7.7016Y-9.1
X7.7016Y-9.4
X7.7016Y-9.7
X7.7016Y-10.0
X7.7016Y-10.3
X7.7016Y-10.6
X7.7016Y-10.9
X7.7016Y-11.2
X7.8984Y-9.1
X7.8984Y-9.4
X7.8984Y-9.7
X7.8984Y-10.0
X7.8984Y-10.3
X7.8984Y-10.6
X7.8984Y-10.9
X7.8984Y-11.2
X8.1Y-11.95
X8.1Y-12.1469
X8.1Y-12.8
X8.1Y-12.9969
X8.2Y-6.8
X8.2Y-6.9969
X8.2Y-7.3
X8.2Y-7.4969
X8.2Y-7.8
X8.2Y-7.9969
X8.2Y-14.1248
X8.25Y-8.35
X8.25Y-8.5469
X8.25Y-8.9
X8.25Y-9.0969
X8.25Y-10.15
X8.25Y-10.3469
X8.25Y-11.0
X8.25Y-11.1969
X8.25Y-13.45
X8.25Y-13.6469
X8.4Y-6.75
X8.4Y-7.05
X8.4Y-7.25
X8.4Y-7.55
X8.4Y-7.75
X8.4Y-8.05
X8.45Y-8.3
X8.45Y-8.6
X8.45Y-8.85
X8.45Y-9.15
X8.45Y-9.95
X8.45Y-10.55
X8.45Y-10.8
X8.45Y-11.4
X8.45Y-11.75
X8.45Y-12.35
X8.45Y-12.6
X8.45Y-13.2
X8.45Y-13.4
X8.45Y-13.7
X8.5Y-6.75
X8.5Y-7.05
X8.5Y-7.25
X8.5Y-7.55
X8.5Y-7.75
X8.5Y-8.05
X8.5Y-14.1248
X8.55Y-8.3
X8.55Y-8.6
X8.55Y-8.85
X8.55Y-9.15
X8.55Y-9.95
X8.55Y-10.55
X8.55Y-10.8
X8.55Y-11.4
X8.55Y-11.75
X8.55Y-12.35
X8.55Y-12.6
X8.55Y-13.2
X8.55Y-13.4
X8.55Y-13.7
X8.6Y-6.75
X8.6Y-7.05
X8.6Y-7.25
X8.6Y-7.55
X8.6Y-7.75
X8.6Y-8.05
X8.65Y-8.3
X8.65Y-8.6
X8.65Y-8.85
X8.65Y-9.15
X8.65Y-9.95
X8.65Y-10.55
X8.65Y-10.8
X8.65Y-11.4
X8.65Y-11.75
X8.65Y-12.35
X8.65Y-12.6
X8.65Y-13.2
X8.65Y-13.4
X8.65Y-13.7
X8.7Y-6.75
X8.7Y-7.05
X8.7Y-7.25
X8.7Y-7.55
X8.7Y-7.75
X8.7Y-8.05
X8.7Y-14.0248
X8.75Y-8.3
X8.75Y-8.6
X8.75Y-8.85
X8.75Y-9.15
X8.75Y-9.95
X8.75Y-10.55
X8.75Y-10.8
X8.75Y-11.4
X8.75Y-11.75
X8.75Y-12.35
X8.75Y-12.6
X8.75Y-13.2
X8.75Y-13.4
X8.75Y-13.7
X8.7984Y-14.0248
X8.8Y-6.75
X8.8Y-7.05
X8.8Y-7.25
X8.8Y-7.55
X8.8Y-7.75
X8.8Y-8.05
X8.85Y-8.3
X8.85Y-8.6
X8.85Y-8.85
X8.85Y-9.15
X8.85Y-9.95
X8.85Y-10.55
X8.85Y-10.8
X8.85Y-11.4
X8.85Y-11.75
X8.85Y-12.35
X8.85Y-12.6
X8.85Y-13.2
X8.85Y-13.4
X8.85Y-13.7
X8.9Y-6.75
X8.9Y-7.05
X8.9Y-7.25
X8.9Y-7.55
X8.9Y-7.75
X8.9Y-8.05
X8.95Y-8.3
X8.95Y-8.6
X8.95Y-8.85
X8.95Y-9.15
X8.95Y-9.95
X8.95Y-10.55
X8.95Y-10.8
X8.95Y-11.4
X8.95Y-11.75
X8.95Y-12.35
X8.95Y-12.6
X8.95Y-13.2
X8.95Y-13.4
X8.95Y-13.7
X9.0Y-6.75
X9.0Y-7.05
X9.0Y-7.25
X9.0Y-7.55
X9.0Y-7.75
X9.0Y-8.05
X9.05Y-8.3
X9.05Y-8.6
X9.05Y-8.85
X9.05Y-9.15
X9.05Y-9.95
X9.05Y-10.55
X9.05Y-10.8
X9.05Y-11.4
X9.05Y-11.75
X9.05Y-12.35
X9.05Y-12.6
X9.05Y-13.2
X9.05Y-13.4
X9.05Y-13.7
X9.1Y-6.75
X9.1Y-7.05
X9.1Y-7.25
X9.1Y-7.55
X9.1Y-7.75
X9.1Y-8.05
X9.15Y-8.3
X9.15Y-8.6
X9.15Y-8.85
X9.15Y-9.15
X9.15Y-9.95
X9.15Y-10.55
X9.15Y-10.8
X9.15Y-11.4
X9.15Y-11.75
X9.15Y-12.35
X9.15Y-12.6
X9.15Y-13.2
X9.25Y-8.3
X9.25Y-8.6
X9.25Y-8.85
X9.25Y-9.15
X9.25Y-9.95
X9.25Y-10.55
X9.25Y-10.8
X9.25Y-11.4
X9.25Y-11.75
X9.25Y-12.35
X9.25Y-12.6
X9.25Y-13.2
X9.3Y-13.45
X9.3Y-13.6469
X9.35Y-7.3
X9.35Y-7.4969
X9.35Y-7.8
X9.35Y-7.9969
X9.35Y-8.3
X9.35Y-8.6
X9.35Y-8.85
X9.35Y-9.15
X9.35Y-9.95
X9.35Y-10.55
X9.35Y-10.8
X9.35Y-11.4
X9.35Y-11.75
X9.35Y-12.35
X9.35Y-12.6
X9.35Y-13.2
X9.45Y-9.95
X9.45Y-10.55
X9.45Y-10.8
X9.45Y-11.4
X9.45Y-11.75
X9.45Y-12.35
X9.45Y-12.6
X9.45Y-13.2
X9.45Y-13.9248
X9.45Y-14.1248
X9.5Y-13.4
X9.5Y-13.7
X9.55Y-7.25
X9.55Y-7.55
X9.55Y-7.75
X9.55Y-8.05
X9.55Y-9.95
X9.55Y-10.55
X9.55Y-10.8
X9.55Y-11.4
X9.55Y-11.75
X9.55Y-12.35
X9.55Y-12.6
X9.55Y-13.2
X9.6Y-9.0
X9.6Y-13.4
X9.6Y-13.7
X9.65Y-7.25
X9.65Y-7.55
X9.65Y-7.75
X9.65Y-8.05
X9.65Y-9.95
X9.65Y-10.55
X9.65Y-10.8
X9.65Y-11.4
X9.65Y-11.75
X9.65Y-12.35
X9.65Y-12.6
X9.65Y-13.2
X9.6984Y-9.0
X9.7Y-13.4
X9.7Y-13.7
X9.75Y-7.25
X9.75Y-7.55
X9.75Y-7.75
X9.75Y-8.05
X9.75Y-9.95
X9.75Y-10.55
X9.75Y-10.8
X9.75Y-11.4
X9.75Y-11.75
X9.75Y-12.35
X9.75Y-12.6
X9.75Y-13.2
X9.75Y-13.9248
X9.75Y-14.1248
X9.8Y-13.4
X9.8Y-13.7
X9.85Y-7.25
X9.85Y-7.55
X9.85Y-7.75
X9.85Y-8.05
X9.9Y-13.4
X9.9Y-13.7
X9.95Y-7.25
X9.95Y-7.55
X9.95Y-7.75
X9.95Y-8.05
X10.0Y-8.35
X10.0Y-8.5469
X10.0Y-8.9
X10.0Y-9.0969
X10.0Y-10.0
X10.0Y-10.1969
X10.0Y-10.6
X10.0Y-10.7969
X10.0Y-11.2
X10.0Y-11.3969
X10.0Y-11.8
X10.0Y-11.9969
X10.0Y-12.4
X10.0Y-12.5969
X10.0Y-12.95
X10.0Y-13.1469
X10.0Y-13.4
X10.0Y-13.7
X10.05Y-7.25
X10.05Y-7.55
X10.05Y-7.75
X10.05Y-8.05
X10.1Y-13.4
X10.1Y-13.7
X10.15Y-7.25
X10.15Y-7.55
X10.15Y-7.75
X10.15Y-8.05
X10.2Y-8.3
X10.2Y-8.6
X10.2Y-8.85
X10.2Y-9.15
X10.2Y-9.95
X10.2Y-10.25
X10.2Y-10.55
X10.2Y-10.85
X10.2Y-11.15
X10.2Y-11.45
X10.2Y-11.75
X10.2Y-12.05
X10.2Y-12.35
X10.2Y-12.65
X10.2Y-12.9
X10.2Y-13.2
X10.3Y-8.3
X10.3Y-8.6
X10.3Y-8.85
X10.3Y-9.15
X10.3Y-9.95
X10.3Y-10.25
X10.3Y-10.55
X10.3Y-10.85
X10.3Y-11.15
X10.3Y-11.45
X10.3Y-11.75
X10.3Y-12.05
X10.3Y-12.35
X10.3Y-12.65
X10.3Y-12.9
X10.3Y-13.2
X10.35Y-13.45
X10.35Y-13.6469
X10.35Y-13.9748
X10.4Y-6.8
X10.4Y-6.9969
X10.4Y-7.3
X10.4Y-7.4969
X10.4Y-7.8
X10.4Y-7.9969
X10.4Y-8.3
X10.4Y-8.6
X10.4Y-8.85
X10.4Y-9.15
X10.4Y-9.95
X10.4Y-10.25
X10.4Y-10.55
X10.4Y-10.85
X10.4Y-11.15
X10.4Y-11.45
X10.4Y-11.75
X10.4Y-12.05
X10.4Y-12.35
X10.4Y-12.65
X10.4Y-12.9
X10.4Y-13.2
X10.4484Y-13.9748
X10.5Y-8.3
X10.5Y-8.6
X10.5Y-8.85
X10.5Y-9.15
X10.5Y-9.95
X10.5Y-10.25
X10.5Y-10.55
X10.5Y-10.85
X10.5Y-11.15
X10.5Y-11.45
X10.5Y-11.75
X10.5Y-12.05
X10.5Y-12.35
X10.5Y-12.65
X10.5Y-12.9
X10.5Y-13.2
X10.55Y-13.4
X10.55Y-13.7
X10.6Y-6.75
X10.6Y-7.05
X10.6Y-7.25
X10.6Y-7.55
X10.6Y-7.75
X10.6Y-8.05
X10.6Y-8.3
X10.6Y-8.6
X10.6Y-8.85
X10.6Y-9.15
X10.6Y-9.95
X10.6Y-10.25
X10.6Y-10.55
X10.6Y-10.85
X10.6Y-11.15
X10.6Y-11.45
X10.6Y-11.75
X10.6Y-12.05
X10.6Y-12.35
X10.6Y-12.65
X10.6Y-12.9
X10.6Y-13.2
X10.65Y-13.4
X10.65Y-13.7
X10.65Y-13.9748
X10.7Y-6.75
X10.7Y-7.05
X10.7Y-7.25
X10.7Y-7.55
X10.7Y-7.75
X10.7Y-8.05
X10.7Y-8.3
X10.7Y-8.6
X10.7Y-8.85
X10.7Y-9.15
X10.7Y-9.95
X10.7Y-10.25
X10.7Y-10.55
X10.7Y-10.85
X10.7Y-11.15
X10.7Y-11.45
X10.7Y-11.75
X10.7Y-12.05
X10.7Y-12.35
X10.7Y-12.65
X10.7Y-12.9
X10.7Y-13.2
X10.7484Y-13.9748
X10.75Y-13.4
X10.75Y-13.7
X10.8Y-6.75
X10.8Y-7.05
X10.8Y-7.25
X10.8Y-7.55
X10.8Y-7.75
X10.8Y-8.05
X10.8Y-8.3
X10.8Y-8.6
X10.8Y-8.85
X10.8Y-9.15
X10.8Y-9.95
X10.8Y-10.25
X10.8Y-10.55
X10.8Y-10.85
X10.8Y-11.15
X10.8Y-11.45
X10.8Y-11.75
X10.8Y-12.05
X10.8Y-12.35
X10.8Y-12.65
X10.8Y-12.9
X10.8Y-13.2
X10.85Y-13.4
X10.85Y-13.7
X10.9Y-6.75
X10.9Y-7.05
X10.9Y-7.25
X10.9Y-7.55
X10.9Y-7.75
X10.9Y-8.05
X10.9Y-8.3
X10.9Y-8.6
X10.9Y-8.85
X10.9Y-9.15
X10.9Y-9.95
X10.9Y-10.25
X10.9Y-10.55
X10.9Y-10.85
X10.9Y-11.15
X10.9Y-11.45
X10.9Y-11.75
X10.9Y-12.05
X10.9Y-12.35
X10.9Y-12.65
X10.9Y-12.9
X10.9Y-13.2
X10.95Y-13.4
X10.95Y-13.7
X11.0Y-6.75
X11.0Y-7.05
X11.0Y-7.25
X11.0Y-7.55
X11.0Y-7.75
X11.0Y-8.05
X11.0Y-8.3
X11.0Y-8.6
X11.0Y-8.85
X11.0Y-9.15
X11.0Y-9.95
X11.0Y-10.25
X11.0Y-10.55
X11.0Y-10.85
X11.0Y-11.15
X11.0Y-11.45
X11.0Y-11.75
X11.0Y-12.05
X11.0Y-12.35
X11.0Y-12.65
X11.0Y-12.9
X11.0Y-13.2
X11.05Y-13.4
X11.05Y-13.7
X11.1Y-6.75
X11.1Y-7.05
X11.1Y-7.25
X11.1Y-7.55
X11.1Y-7.75
X11.1Y-8.05
X11.1Y-8.3
X11.1Y-8.6
X11.1Y-8.85
X11.1Y-9.15
X11.1Y-9.95
X11.1Y-10.25
X11.1Y-10.55
X11.1Y-10.85
X11.1Y-11.15
X11.1Y-11.45
X11.1Y-11.75
X11.1Y-12.05
X11.1Y-12.35
X11.1Y-12.65
X11.1Y-12.9
X11.1Y-13.2
X11.15Y-13.4
X11.15Y-13.7
X11.2Y-6.75
X11.2Y-7.05
X11.2Y-7.25
X11.2Y-7.55
X11.2Y-7.75
X11.2Y-8.05
X11.35Y-11.35
X11.35Y-11.5469
X11.35Y-12.35
X11.35Y-12.5469
X11.35Y-13.1
X11.35Y-13.2969
X11.45Y-6.05
X11.45Y-6.2469
X11.45Y-6.65
X11.45Y-6.8469
X11.45Y-7.4
X11.45Y-7.5969
X11.45Y-8.15
X11.45Y-8.3469
X11.45Y-8.85
X11.45Y-9.0469
X11.45Y-9.5
X11.45Y-9.6969
X11.45Y-9.95
X11.45Y-10.1469
X11.45Y-10.55
X11.45Y-10.7469
X11.45Y-13.85
X11.45Y-14.0469
X11.55Y-11.15
X11.55Y-11.75
X11.55Y-11.95
X11.55Y-12.15
X11.55Y-12.75
X11.55Y-12.9
X11.55Y-13.5
X11.65Y-6.0
X11.65Y-6.3
X11.65Y-6.45
X11.65Y-7.05
X11.65Y-7.2
X11.65Y-7.8
X11.65Y-7.95
X11.65Y-8.55
X11.65Y-8.7
X11.65Y-9.3
X11.65Y-9.45
X11.65Y-9.75
X11.65Y-9.9
X11.65Y-10.2
X11.65Y-10.35
X11.65Y-10.95
X11.65Y-11.15
X11.65Y-11.75
X11.65Y-11.95
X11.65Y-12.15
X11.65Y-12.75
X11.65Y-12.9
X11.65Y-13.5
X11.65Y-13.65
X11.65Y-14.25
X11.75Y-6.0
X11.75Y-6.3
X11.75Y-6.45
X11.75Y-7.05
X11.75Y-7.2
X11.75Y-7.8
X11.75Y-7.95
X11.75Y-8.55
X11.75Y-8.7
X11.75Y-9.3
X11.75Y-9.45
X11.75Y-9.75
X11.75Y-9.9
X11.75Y-10.2
X11.75Y-10.35
X11.75Y-10.95
X11.75Y-11.15
X11.75Y-11.75
X11.75Y-11.95
X11.75Y-12.15
X11.75Y-12.75
X11.75Y-12.9
X11.75Y-13.5
X11.75Y-13.65
X11.75Y-14.25
X11.85Y-6.0
X11.85Y-6.3
X11.85Y-6.45
X11.85Y-7.05
X11.85Y-7.2
X11.85Y-7.8
X11.85Y-7.95
X11.85Y-8.55
X11.85Y-8.7
X11.85Y-9.3
X11.85Y-9.45
X11.85Y-9.75
X11.85Y-9.9
X11.85Y-10.2
X11.85Y-10.35
X11.85Y-10.95
X11.85Y-11.15
X11.85Y-11.75
X11.85Y-11.95
X11.85Y-12.15
X11.85Y-12.75
X11.85Y-12.9
X11.85Y-13.5
X11.85Y-13.65
X11.85Y-14.25
X11.95Y-6.0
X11.95Y-6.3
X11.95Y-6.45
X11.95Y-7.05
X11.95Y-7.2
X11.95Y-7.8
X11.95Y-7.95
X11.95Y-8.55
X11.95Y-8.7
X11.95Y-9.3
X11.95Y-9.45
X11.95Y-9.75
X11.95Y-9.9
X11.95Y-10.2
X11.95Y-10.35
X11.95Y-10.95
X11.95Y-11.15
X11.95Y-11.75
X11.95Y-11.95
X11.95Y-12.15
X11.95Y-12.75
X11.95Y-12.9
X11.95Y-13.5
X11.95Y-13.65
X11.95Y-14.25
X12.05Y-6.0
X12.05Y-6.3
X12.05Y-6.45
X12.05Y-7.05
X12.05Y-7.2
X12.05Y-7.8
X12.05Y-7.95
X12.05Y-8.55
X12.05Y-8.7
X12.05Y-9.3
X12.05Y-9.45
X12.05Y-9.75
X12.05Y-9.9
X12.05Y-10.2
X12.05Y-10.35
X12.05Y-10.95
X12.05Y-11.15
X12.05Y-11.75
X12.05Y-11.95
X12.05Y-12.15
X12.05Y-12.75
X12.05Y-12.9
X12.05Y-13.5
X12.05Y-13.65
X12.05Y-14.25
X12.15Y-6.0
X12.15Y-6.3
X12.15Y-6.45
X12.15Y-7.05
X12.15Y-7.2
X12.15Y-7.8
X12.15Y-7.95
X12.15Y-8.55
X12.15Y-8.7
X12.15Y-9.3
X12.15Y-9.45
X12.15Y-9.75
X12.15Y-9.9
X12.15Y-10.2
X12.15Y-10.35
X12.15Y-10.95
X12.15Y-11.15
X12.15Y-11.75
X12.15Y-11.95
X12.15Y-12.15
X12.15Y-12.75
X12.15Y-12.9
X12.15Y-13.5
X12.15Y-13.65
X12.15Y-14.25
X12.25Y-6.0
X12.25Y-6.3
X12.25Y-6.45
X12.25Y-7.05
X12.25Y-7.2
X12.25Y-7.8
X12.25Y-7.95
X12.25Y-8.55
X12.25Y-8.7
X12.25Y-9.3
X12.25Y-9.45
X12.25Y-9.75
X12.25Y-9.9
X12.25Y-10.2
X12.25Y-10.35
X12.25Y-10.95
X12.25Y-11.15
X12.25Y-11.75
X12.25Y-11.95
X12.25Y-12.15
X12.25Y-12.75
X12.25Y-12.9
X12.25Y-13.5
X12.25Y-13.65
X12.25Y-14.25
X12.35Y-6.45
X12.35Y-7.05
X12.35Y-7.2
X12.35Y-7.8
X12.35Y-7.95
X12.35Y-8.55
X12.35Y-8.7
X12.35Y-9.3
X12.35Y-10.35
X12.35Y-10.95
X12.35Y-11.15
X12.35Y-11.75
X12.35Y-11.95
X12.35Y-12.15
X12.35Y-12.75
X12.35Y-12.9
X12.35Y-13.5
X12.35Y-13.65
X12.35Y-14.25
X12.3516Y-14.375
X12.45Y-6.45
X12.45Y-7.05
X12.45Y-7.2
X12.45Y-7.8
X12.45Y-7.95
X12.45Y-8.55
X12.45Y-8.7
X12.45Y-9.3
X12.45Y-10.35
X12.45Y-10.95
X12.45Y-11.15
X12.45Y-11.75
X12.45Y-11.95
X12.45Y-12.15
X12.45Y-12.75
X12.45Y-12.9
X12.45Y-13.5
X12.45Y-13.65
X12.45Y-14.25
X12.45Y-14.375
X12.5Y-6.05
X12.5Y-6.2469
X12.55Y-6.45
X12.55Y-7.05
X12.55Y-7.2
X12.55Y-7.8
X12.55Y-7.95
X12.55Y-8.55
X12.55Y-8.7
X12.55Y-9.3
X12.55Y-10.35
X12.55Y-10.95
X12.55Y-11.15
X12.55Y-11.75
X12.55Y-12.15
X12.55Y-12.75
X12.55Y-12.9
X12.55Y-13.5
X12.55Y-13.65
X12.55Y-14.25
X12.55Y-14.375
X12.6484Y-14.375
X12.65Y-6.45
X12.65Y-7.05
X12.65Y-7.2
X12.65Y-7.8
X12.65Y-7.95
X12.65Y-8.55
X12.65Y-8.7
X12.65Y-9.3
X12.65Y-10.35
X12.65Y-10.95
X12.65Y-11.15
X12.65Y-11.75
X12.65Y-12.15
X12.65Y-12.75
X12.65Y-12.9
X12.65Y-13.5
X12.65Y-13.65
X12.65Y-14.25
X12.7Y-6.0
X12.7Y-6.3
X12.75Y-6.45
X12.75Y-7.05
X12.75Y-7.2
X12.75Y-7.8
X12.75Y-7.95
X12.75Y-8.55
X12.75Y-8.7
X12.75Y-9.3
X12.75Y-9.5
X12.75Y-9.6969
X12.75Y-9.95
X12.75Y-10.1469
X12.75Y-10.35
X12.75Y-10.95
X12.75Y-11.15
X12.75Y-11.75
X12.75Y-12.15
X12.75Y-12.75
X12.75Y-12.9
X12.75Y-13.5
X12.75Y-13.65
X12.75Y-14.25
X12.8Y-6.0
X12.8Y-6.3
X12.8Y-14.45
X12.8Y-14.6469
X12.85Y-6.45
X12.85Y-7.05
X12.85Y-7.2
X12.85Y-7.8
X12.85Y-7.95
X12.85Y-8.55
X12.85Y-8.7
X12.85Y-9.3
X12.85Y-10.35
X12.85Y-10.95
X12.85Y-11.15
X12.85Y-11.75
X12.85Y-12.15
X12.85Y-12.75
X12.85Y-12.9
X12.85Y-13.5
X12.9Y-6.0
X12.9Y-6.3
X12.95Y-6.45
X12.95Y-7.05
X12.95Y-7.2
X12.95Y-7.8
X12.95Y-7.95
X12.95Y-8.55
X12.95Y-8.7
X12.95Y-9.3
X12.95Y-9.45
X12.95Y-9.75
X12.95Y-9.9
X12.95Y-10.2
X12.95Y-10.35
X12.95Y-10.95
X12.95Y-11.15
X12.95Y-11.75
X12.95Y-12.15
X12.95Y-12.75
X12.95Y-12.9
X12.95Y-13.5
X13.0Y-6.0
X13.0Y-6.3
X13.0Y-13.85
X13.0Y-14.0469
X13.0Y-14.3746
X13.0Y-14.6746
X13.05Y-6.45
X13.05Y-7.05
X13.05Y-7.2
X13.05Y-7.8
X13.05Y-7.95
X13.05Y-8.55
X13.05Y-8.7
X13.05Y-9.3
X13.05Y-9.45
X13.05Y-9.75
X13.05Y-9.9
X13.05Y-10.2
X13.05Y-10.35
X13.05Y-10.95
X13.05Y-11.15
X13.05Y-11.75
X13.05Y-12.15
X13.05Y-12.75
X13.05Y-12.9
X13.05Y-13.5
X13.1Y-6.0
X13.1Y-6.3
X13.1Y-14.3746
X13.1Y-14.6746
X13.15Y-6.45
X13.15Y-7.05
X13.15Y-7.2
X13.15Y-7.8
X13.15Y-7.95
X13.15Y-8.55
X13.15Y-8.7
X13.15Y-9.3
X13.15Y-9.45
X13.15Y-9.75
X13.15Y-9.9
X13.15Y-10.2
X13.15Y-10.35
X13.15Y-10.95
X13.15Y-11.15
X13.15Y-11.75
X13.15Y-12.15
X13.15Y-12.75
X13.15Y-12.9
X13.15Y-13.5
X13.1748Y-13.65
X13.1748Y-14.25
X13.2Y-6.0
X13.2Y-6.3
X13.2Y-14.3746
X13.2Y-14.6746
X13.25Y-6.45
X13.25Y-7.05
X13.25Y-7.2
X13.25Y-7.8
X13.25Y-7.95
X13.25Y-8.55
X13.25Y-8.7
X13.25Y-9.3
X13.25Y-9.45
X13.25Y-9.75
X13.25Y-9.9
X13.25Y-10.2
X13.25Y-10.35
X13.25Y-10.95
X13.25Y-11.15
X13.25Y-11.75
X13.25Y-12.15
X13.25Y-12.75
X13.25Y-12.9
X13.25Y-13.5
X13.2748Y-13.65
X13.2748Y-14.25
X13.3Y-6.0
X13.3Y-6.3
X13.3Y-11.975
X13.3Y-14.3746
X13.3Y-14.6746
X13.35Y-6.45
X13.35Y-7.05
X13.35Y-7.2
X13.35Y-7.8
X13.35Y-7.95
X13.35Y-8.55
X13.35Y-8.7
X13.35Y-9.3
X13.35Y-9.45
X13.35Y-9.75
X13.35Y-9.9
X13.35Y-10.2
X13.35Y-10.35
X13.35Y-10.95
X13.35Y-11.15
X13.35Y-11.75
X13.35Y-12.15
X13.35Y-12.75
X13.35Y-12.9
X13.35Y-13.5
X13.3748Y-13.65
X13.3748Y-14.25
X13.3984Y-11.975
X13.4Y-14.3746
X13.4Y-14.6746
X13.45Y-6.45
X13.45Y-7.05
X13.45Y-7.2
X13.45Y-7.8
X13.45Y-7.95
X13.45Y-8.55
X13.45Y-8.7
X13.45Y-9.3
X13.45Y-9.45
X13.45Y-9.75
X13.45Y-9.9
X13.45Y-10.2
X13.45Y-10.35
X13.45Y-10.95
X13.45Y-11.15
X13.45Y-11.75
X13.45Y-12.15
X13.45Y-12.75
X13.45Y-12.9
X13.45Y-13.5
X13.4748Y-13.65
X13.4748Y-14.25
X13.5Y-14.3746
X13.5Y-14.6746
X13.55Y-6.45
X13.55Y-7.05
X13.55Y-7.2
X13.55Y-7.8
X13.55Y-7.95
X13.55Y-8.55
X13.55Y-8.7
X13.55Y-9.3
X13.55Y-9.45
X13.55Y-9.75
X13.55Y-9.9
X13.55Y-10.2
X13.55Y-10.35
X13.55Y-10.95
X13.55Y-11.15
X13.55Y-11.75
X13.55Y-12.0
X13.55Y-12.15
X13.55Y-12.75
X13.55Y-12.9
X13.55Y-13.5
X13.5748Y-13.65
X13.5748Y-14.25
X13.6Y-14.3746
X13.6Y-14.6746
X13.6484Y-12.0
X13.65Y-11.15
X13.65Y-11.75
X13.65Y-12.15
X13.65Y-12.75
X13.65Y-12.9
X13.65Y-13.5
X13.6748Y-13.65
X13.6748Y-14.25
X13.725Y-6.45
X13.75Y-6.75
X13.75Y-6.85
X13.75Y-6.95
X13.75Y-7.05
X13.75Y-7.15
X13.75Y-7.25
X13.75Y-7.35
X13.75Y-7.45
X13.75Y-7.55
X13.75Y-7.65
X13.75Y-8.55
X13.75Y-8.65
X13.75Y-8.75
X13.75Y-8.85
X13.75Y-8.95
X13.75Y-9.05
X13.75Y-9.15
X13.75Y-9.25
X13.75Y-9.35
X13.75Y-9.45
X13.75Y-11.15
X13.75Y-11.75
X13.75Y-12.15
X13.75Y-12.75
X13.75Y-12.9
X13.75Y-13.5
X13.7748Y-13.65
X13.7748Y-14.25
X13.8Y-14.55
X13.8234Y-6.45
X13.85Y-11.15
X13.85Y-11.75
X13.85Y-12.15
X13.85Y-12.75
X13.85Y-12.9
X13.85Y-13.5
X13.8748Y-13.65
X13.8748Y-14.25
X13.8984Y-14.55
X13.95Y-6.75
X13.95Y-6.85
X13.95Y-6.95
X13.95Y-7.05
X13.95Y-7.15
X13.95Y-7.25
X13.95Y-7.35
X13.95Y-7.45
X13.95Y-7.55
X13.95Y-7.65
X13.95Y-8.55
X13.95Y-8.65
X13.95Y-8.75
X13.95Y-8.85
X13.95Y-8.95
X13.95Y-9.05
X13.95Y-9.15
X13.95Y-9.25
X13.95Y-9.35
X13.95Y-9.45
X13.95Y-9.7
X13.95Y-9.8
X13.95Y-9.9
X13.95Y-10.0
X13.95Y-10.1
X13.95Y-10.2
X13.95Y-10.3
X13.95Y-10.4
X13.95Y-10.5
X13.95Y-10.6
X13.9748Y-13.65
X13.9748Y-14.25
X14.0748Y-13.65
X14.0748Y-14.25
X14.15Y-12.1752
X14.15Y-12.2752
X14.15Y-12.3752
X14.15Y-12.4752
X14.15Y-12.5752
X14.15Y-12.6752
X14.15Y-12.7752
X14.15Y-12.8752
X14.15Y-12.9752
X14.15Y-13.0752
X14.1748Y-13.65
X14.1748Y-14.25
X14.2748Y-13.65
X14.2748Y-14.25
T4
X4.95Y-5.85
X4.95Y-5.95
X4.95Y-6.05
X4.95Y-6.15
X4.95Y-6.25
X4.95Y-6.35
X4.95Y-6.45
X4.95Y-6.55
X4.95Y-6.65
X4.95Y-6.75
X4.95Y-6.85
X4.95Y-6.95
X4.95Y-7.05
X4.95Y-7.15
X4.95Y-7.25
X4.95Y-7.35
X4.95Y-7.45
X4.95Y-7.55
X4.95Y-7.65
X4.95Y-7.75
X4.95Y-7.85
X4.95Y-7.95
X4.95Y-8.05
X4.95Y-8.15
X4.95Y-8.25
X4.95Y-8.35
X4.95Y-8.45
X4.95Y-8.55
X4.95Y-8.65
X4.95Y-8.75
X5.05Y-5.85
X5.05Y-5.95
X5.05Y-6.05
X5.05Y-6.15
X5.05Y-6.25
X5.05Y-6.35
X5.05Y-6.45
X5.05Y-6.55
X5.05Y-6.65
X5.05Y-6.75
X5.05Y-6.85
X5.05Y-6.95
X5.05Y-7.05
X5.05Y-7.15
X5.05Y-7.25
X5.05Y-7.35
X5.05Y-7.45
X5.05Y-7.55
X5.05Y-7.65
X5.05Y-7.75
X5.05Y-7.85
X5.05Y-7.95
X5.05Y-8.05
X5.05Y-8.15
X5.05Y-8.25
X5.05Y-8.35
X5.05Y-8.45
X5.05Y-8.55
X5.05Y-8.65
X5.05Y-8.75
X5.1Y-9.15
X5.1Y-9.45
X5.1Y-9.75
X5.1Y-10.05
X5.1Y-10.35
X5.1Y-10.65
X5.1Y-10.95
X5.1Y-11.25
X5.15Y-5.85
X5.15Y-5.95
X5.15Y-6.05
X5.15Y-6.15
X5.15Y-6.25
X5.15Y-6.35
X5.15Y-6.45
X5.15Y-6.55
X5.15Y-6.65
X5.15Y-6.75
X5.15Y-6.85
X5.15Y-6.95
X5.15Y-7.05
X5.15Y-7.15
X5.15Y-7.25
X5.15Y-7.35
X5.15Y-7.45
X5.15Y-7.55
X5.15Y-7.65
X5.15Y-7.75
X5.15Y-7.85
X5.15Y-7.95
X5.15Y-8.05
X5.15Y-8.15
X5.15Y-8.25
X5.15Y-8.35
X5.15Y-8.45
X5.15Y-8.55
X5.15Y-8.65
X5.15Y-8.75
X5.15Y-9.05
X5.15Y-9.35
X5.15Y-9.65
X5.15Y-9.95
X5.15Y-10.25
X5.15Y-10.55
X5.15Y-10.85
X5.15Y-11.15
X5.2Y-9.15
X5.2Y-9.45
X5.2Y-9.75
X5.2Y-10.05
X5.2Y-10.35
X5.2Y-10.65
X5.2Y-10.95
X5.2Y-11.25
X5.25Y-5.85
X5.25Y-5.95
X5.25Y-6.05
X5.25Y-6.15
X5.25Y-6.25
X5.25Y-6.35
X5.25Y-6.45
X5.25Y-6.55
X5.25Y-6.65
X5.25Y-6.75
X5.25Y-6.85
X5.25Y-6.95
X5.25Y-7.05
X5.25Y-7.15
X5.25Y-7.25
X5.25Y-7.35
X5.25Y-7.45
X5.25Y-7.55
X5.25Y-7.65
X5.25Y-7.75
X5.25Y-7.85
X5.25Y-7.95
X5.25Y-8.05
X5.25Y-8.15
X5.25Y-8.25
X5.25Y-8.35
X5.25Y-8.45
X5.25Y-8.55
X5.25Y-8.65
X5.25Y-8.75
X5.25Y-9.05
X5.25Y-9.35
X5.25Y-9.65
X5.25Y-9.95
X5.25Y-10.25
X5.25Y-10.55
X5.25Y-10.85
X5.25Y-11.15
X5.3Y-9.15
X5.3Y-9.45
X5.3Y-9.75
X5.3Y-10.05
X5.3Y-10.35
X5.3Y-10.65
X5.3Y-10.95
X5.3Y-11.25
X5.35Y-5.85
X5.35Y-5.95
X5.35Y-6.05
X5.35Y-6.15
X5.35Y-6.25
X5.35Y-6.35
X5.35Y-6.45
X5.35Y-6.55
X5.35Y-6.65
X5.35Y-6.75
X5.35Y-6.85
X5.35Y-6.95
X5.35Y-7.05
X5.35Y-7.15
X5.35Y-7.25
X5.35Y-7.35
X5.35Y-7.45
X5.35Y-7.55
X5.35Y-7.65
X5.35Y-7.75
X5.35Y-7.85
X5.35Y-7.95
X5.35Y-8.05
X5.35Y-8.15
X5.35Y-8.25
X5.35Y-8.35
X5.35Y-8.45
X5.35Y-8.55
X5.35Y-8.65
X5.35Y-8.75
X5.35Y-9.05
X5.35Y-9.35
X5.35Y-9.65
X5.35Y-9.95
X5.35Y-10.25
X5.35Y-10.55
X5.35Y-10.85
X5.35Y-11.15
X5.4Y-9.15
X5.4Y-9.45
X5.4Y-9.75
X5.4Y-10.05
X5.4Y-10.35
X5.4Y-10.65
X5.4Y-10.95
X5.4Y-11.25
X5.45Y-5.85
X5.45Y-5.95
X5.45Y-6.05
X5.45Y-6.15
X5.45Y-6.25
X5.45Y-6.35
X5.45Y-6.45
X5.45Y-6.55
X5.45Y-6.65
X5.45Y-6.75
X5.45Y-6.85
X5.45Y-6.95
X5.45Y-7.05
X5.45Y-7.15
X5.45Y-7.25
X5.45Y-7.35
X5.45Y-7.45
X5.45Y-7.55
X5.45Y-7.65
X5.45Y-7.75
X5.45Y-7.85
X5.45Y-7.95
X5.45Y-8.05
X5.45Y-8.15
X5.45Y-8.25
X5.45Y-8.35
X5.45Y-8.45
X5.45Y-8.55
X5.45Y-8.65
X5.45Y-8.75
X5.45Y-9.05
X5.45Y-9.35
X5.45Y-9.65
X5.45Y-9.95
X5.45Y-10.25
X5.45Y-10.55
X5.45Y-10.85
X5.45Y-11.15
X5.5Y-9.15
X5.5Y-9.45
X5.5Y-9.75
X5.5Y-10.05
X5.5Y-10.35
X5.5Y-10.65
X5.5Y-10.95
X5.5Y-11.25
X5.55Y-5.85
X5.55Y-5.95
X5.55Y-6.05
X5.55Y-6.15
X5.55Y-6.25
X5.55Y-6.35
X5.55Y-6.45
X5.55Y-6.55
X5.55Y-6.65
X5.55Y-6.75
X5.55Y-6.85
X5.55Y-6.95
X5.55Y-7.05
X5.55Y-7.15
X5.55Y-7.25
X5.55Y-7.35
X5.55Y-7.45
X5.55Y-7.55
X5.55Y-7.65
X5.55Y-7.75
X5.55Y-7.85
X5.55Y-7.95
X5.55Y-8.05
X5.55Y-8.15
X5.55Y-8.25
X5.55Y-8.35
X5.55Y-8.45
X5.55Y-8.55
X5.55Y-8.65
X5.55Y-8.75
X5.55Y-9.05
X5.55Y-9.35
X5.55Y-9.65
X5.55Y-9.95
X5.55Y-10.25
X5.55Y-10.55
X5.55Y-10.85
X5.55Y-11.15
X5.6Y-9.15
X5.6Y-9.45
X5.6Y-9.75
X5.6Y-10.05
X5.6Y-10.35
X5.6Y-10.65
X5.6Y-10.95
X5.6Y-11.25
X5.65Y-5.85
X5.65Y-5.95
X5.65Y-6.05
X5.65Y-6.15
X5.65Y-6.25
X5.65Y-6.35
X5.65Y-6.45
X5.65Y-6.55
X5.65Y-6.65
X5.65Y-6.75
X5.65Y-6.85
X5.65Y-6.95
X5.65Y-7.05
X5.65Y-7.15
X5.65Y-7.25
X5.65Y-7.35
X5.65Y-7.45
X5.65Y-7.55
X5.65Y-7.65
X5.65Y-7.75
X5.65Y-7.85
X5.65Y-7.95
X5.65Y-8.05
X5.65Y-8.15
X5.65Y-8.25
X5.65Y-8.35
X5.65Y-8.45
X5.65Y-8.55
X5.65Y-8.65
X5.65Y-8.75
X5.65Y-9.05
X5.65Y-9.35
X5.65Y-9.65
X5.65Y-9.95
X5.65Y-10.25
X5.65Y-10.55
X5.65Y-10.85
X5.65Y-11.15
X5.7Y-9.15
X5.7Y-9.45
X5.7Y-9.75
X5.7Y-10.05
X5.7Y-10.35
X5.7Y-10.65
X5.7Y-10.95
X5.7Y-11.25
X5.75Y-5.85
X5.75Y-5.95
X5.75Y-6.05
X5.75Y-6.15
X5.75Y-6.25
X5.75Y-6.35
X5.75Y-6.45
X5.75Y-6.55
X5.75Y-6.65
X5.75Y-6.75
X5.75Y-6.85
X5.75Y-6.95
X5.75Y-7.05
X5.75Y-7.15
X5.75Y-7.25
X5.75Y-7.35
X5.75Y-7.45
X5.75Y-7.55
X5.75Y-7.65
X5.75Y-7.75
X5.75Y-7.85
X5.75Y-7.95
X5.75Y-8.05
X5.75Y-8.15
X5.75Y-8.25
X5.75Y-8.35
X5.75Y-8.45
X5.75Y-8.55
X5.75Y-8.65
X5.75Y-8.75
X5.75Y-9.05
X5.75Y-9.35
X5.75Y-9.65
X5.75Y-9.95
X5.75Y-10.25
X5.75Y-10.55
X5.75Y-10.85
X5.75Y-11.15
X5.8Y-9.15
X5.8Y-9.45
X5.8Y-9.75
X5.8Y-10.05
X5.8Y-10.35
X5.8Y-10.65
X5.8Y-10.95
X5.8Y-11.25
X5.85Y-5.85
X5.85Y-5.95
X5.85Y-6.05
X5.85Y-6.15
X5.85Y-6.25
X5.85Y-6.35
X5.85Y-6.45
X5.85Y-6.55
X5.85Y-6.65
X5.85Y-6.75
X5.85Y-6.85
X5.85Y-6.95
X5.85Y-7.05
X5.85Y-7.15
X5.85Y-7.25
X5.85Y-7.35
X5.85Y-7.45
X5.85Y-7.55
X5.85Y-7.65
X5.85Y-7.75
X5.85Y-7.85
X5.85Y-7.95
X5.85Y-8.05
X5.85Y-8.15
X5.85Y-8.25
X5.85Y-8.35
X5.85Y-8.45
X5.85Y-8.55
X5.85Y-8.65
X5.85Y-8.75
X5.85Y-9.05
X5.85Y-9.35
X5.85Y-9.65
X5.85Y-9.95
X5.85Y-10.25
X5.85Y-10.55
X5.85Y-10.85
X5.85Y-11.15
X5.9Y-9.15
X5.9Y-9.45
X5.9Y-9.75
X5.9Y-10.05
X5.9Y-10.35
X5.9Y-10.65
X5.9Y-10.95
X5.9Y-11.25
X5.95Y-5.85
X5.95Y-5.95
X5.95Y-6.05
X5.95Y-6.15
X5.95Y-6.25
X5.95Y-6.35
X5.95Y-6.45
X5.95Y-6.55
X5.95Y-6.65
X5.95Y-6.75
X5.95Y-6.85
X5.95Y-6.95
X5.95Y-7.05
X5.95Y-7.15
X5.95Y-7.25
X5.95Y-7.35
X5.95Y-7.45
X5.95Y-7.55
X5.95Y-7.65
X5.95Y-7.75
X5.95Y-7.85
X5.95Y-7.95
X5.95Y-8.05
X5.95Y-8.15
X5.95Y-8.25
X5.95Y-8.35
X5.95Y-8.45
X5.95Y-8.55
X5.95Y-8.65
X5.95Y-8.75
X5.95Y-9.05
X5.95Y-9.35
X5.95Y-9.65
X5.95Y-9.95
X5.95Y-10.25
X5.95Y-10.55
X5.95Y-10.85
X5.95Y-11.15
X6.0Y-9.15
X6.0Y-9.45
X6.0Y-9.75
X6.0Y-10.05
X6.0Y-10.35
X6.0Y-10.65
X6.0Y-10.95
X6.0Y-11.25
X6.05Y-5.85
X6.05Y-5.95
X6.05Y-6.05
X6.05Y-6.15
X6.05Y-6.25
X6.05Y-6.35
X6.05Y-6.45
X6.05Y-6.55
X6.05Y-6.65
X6.05Y-6.75
X6.05Y-6.85
X6.05Y-6.95
X6.05Y-7.05
X6.05Y-7.15
X6.05Y-7.25
X6.05Y-7.35
X6.05Y-7.45
X6.05Y-7.55
X6.05Y-7.65
X6.05Y-7.75
X6.05Y-7.85
X6.05Y-7.95
X6.05Y-8.05
X6.05Y-8.15
X6.05Y-8.25
X6.05Y-8.35
X6.05Y-8.45
X6.05Y-8.55
X6.05Y-8.65
X6.05Y-8.75
X6.05Y-9.05
X6.05Y-9.35
X6.05Y-9.65
X6.05Y-9.95
X6.05Y-10.25
X6.05Y-10.55
X6.05Y-10.85
X6.05Y-11.15
X6.15Y-5.85
X6.15Y-5.95
X6.15Y-6.05
X6.15Y-6.15
X6.15Y-6.25
X6.15Y-6.35
X6.15Y-6.45
X6.15Y-6.55
X6.15Y-6.65
X6.15Y-6.75
X6.15Y-6.85
X6.15Y-6.95
X6.15Y-7.05
X6.15Y-7.15
X6.15Y-7.25
X6.15Y-7.35
X6.15Y-7.45
X6.15Y-7.55
X6.15Y-7.65
X6.15Y-7.75
X6.15Y-7.85
X6.15Y-7.95
X6.15Y-8.05
X6.15Y-8.15
X6.15Y-8.25
X6.15Y-8.35
X6.15Y-8.45
X6.15Y-8.55
X6.15Y-8.65
X6.15Y-8.75
X6.25Y-5.85
X6.25Y-5.95
X6.25Y-6.05
X6.25Y-6.15
X6.25Y-6.25
X6.25Y-6.35
X6.25Y-6.45
X6.25Y-6.55
X6.25Y-6.65
X6.25Y-6.75
X6.25Y-6.85
X6.25Y-6.95
X6.25Y-7.05
X6.25Y-7.15
X6.25Y-7.25
X6.25Y-7.35
X6.25Y-7.45
X6.25Y-7.55
X6.25Y-7.65
X6.25Y-7.75
X6.25Y-7.85
X6.25Y-7.95
X6.25Y-8.05
X6.25Y-8.15
X6.25Y-8.25
X6.25Y-8.35
X6.25Y-8.45
X6.25Y-8.55
X6.25Y-8.65
X6.25Y-8.75
X6.35Y-5.85
X6.35Y-5.95
X6.35Y-6.05
X6.35Y-6.15
X6.35Y-6.25
X6.35Y-6.35
X6.35Y-6.45
X6.35Y-6.55
X6.35Y-6.65
X6.35Y-6.75
X6.35Y-6.85
X6.35Y-6.95
X6.35Y-7.05
X6.35Y-7.15
X6.35Y-7.25
X6.35Y-7.35
X6.35Y-7.45
X6.35Y-7.55
X6.35Y-7.65
X6.35Y-7.75
X6.35Y-7.85
X6.35Y-7.95
X6.35Y-8.05
X6.35Y-8.15
X6.35Y-8.25
X6.35Y-8.35
X6.35Y-8.45
X6.35Y-8.55
X6.35Y-8.65
X6.35Y-8.75
X6.45Y-5.85
X6.45Y-5.95
X6.45Y-6.05
X6.45Y-6.15
X6.45Y-6.25
X6.45Y-6.35
X6.45Y-6.45
X6.45Y-6.55
X6.45Y-6.65
X6.45Y-6.75
X6.45Y-6.85
X6.45Y-6.95
X6.45Y-7.05
X6.45Y-7.15
X6.45Y-7.25
X6.45Y-7.35
X6.45Y-7.45
X6.45Y-7.55
X6.45Y-7.65
X6.45Y-7.75
X6.45Y-7.85
X6.45Y-7.95
X6.45Y-8.05
X6.45Y-8.15
X6.45Y-8.25
X6.45Y-8.35
X6.45Y-8.45
X6.45Y-8.55
X6.45Y-8.65
X6.45Y-8.75
X6.55Y-5.85
X6.55Y-5.95
X6.55Y-6.05
X6.55Y-6.15
X6.55Y-6.25
X6.55Y-6.35
X6.55Y-6.45
X6.55Y-6.55
X6.55Y-6.65
X6.55Y-6.75
X6.55Y-6.85
X6.55Y-6.95
X6.55Y-7.05
X6.55Y-7.15
X6.55Y-7.25
X6.55Y-7.35
X6.55Y-7.45
X6.55Y-7.55
X6.55Y-7.65
X6.55Y-7.75
X6.55Y-7.85
X6.55Y-7.95
X6.55Y-8.05
X6.55Y-8.15
X6.55Y-8.25
X6.55Y-8.35
X6.55Y-8.45
X6.55Y-8.55
X6.55Y-8.65
X6.55Y-8.75
X6.6Y-9.15
X6.6Y-9.45
X6.6Y-9.75
X6.6Y-10.05
X6.6Y-10.35
X6.6Y-10.65
X6.6Y-10.95
X6.6Y-11.25
X6.65Y-5.85
X6.65Y-5.95
X6.65Y-6.05
X6.65Y-6.15
X6.65Y-6.25
X6.65Y-6.35
X6.65Y-6.45
X6.65Y-6.55
X6.65Y-6.65
X6.65Y-6.75
X6.65Y-6.85
X6.65Y-6.95
X6.65Y-7.05
X6.65Y-7.15
X6.65Y-7.25
X6.65Y-7.35
X6.65Y-7.45
X6.65Y-7.55
X6.65Y-7.65
X6.65Y-7.75
X6.65Y-7.85
X6.65Y-7.95
X6.65Y-8.05
X6.65Y-8.15
X6.65Y-8.25
X6.65Y-8.35
X6.65Y-8.45
X6.65Y-8.55
X6.65Y-8.65
X6.65Y-8.75
X6.65Y-9.05
X6.65Y-9.35
X6.65Y-9.65
X6.65Y-9.95
X6.65Y-10.25
X6.65Y-10.55
X6.65Y-10.85
X6.65Y-11.15
X6.7Y-9.15
X6.7Y-9.45
X6.7Y-9.75
X6.7Y-10.05
X6.7Y-10.35
X6.7Y-10.65
X6.7Y-10.95
X6.7Y-11.25
X6.75Y-5.85
X6.75Y-5.95
X6.75Y-6.05
X6.75Y-6.15
X6.75Y-6.25
X6.75Y-6.35
X6.75Y-6.45
X6.75Y-6.55
X6.75Y-6.65
X6.75Y-6.75
X6.75Y-6.85
X6.75Y-6.95
X6.75Y-7.05
X6.75Y-7.15
X6.75Y-7.25
X6.75Y-7.35
X6.75Y-7.45
X6.75Y-7.55
X6.75Y-7.65
X6.75Y-7.75
X6.75Y-7.85
X6.75Y-7.95
X6.75Y-8.05
X6.75Y-8.15
X6.75Y-8.25
X6.75Y-8.35
X6.75Y-8.45
X6.75Y-8.55
X6.75Y-8.65
X6.75Y-8.75
X6.75Y-9.05
X6.75Y-9.35
X6.75Y-9.65
X6.75Y-9.95
X6.75Y-10.25
X6.75Y-10.55
X6.75Y-10.85
X6.75Y-11.15
X6.8Y-9.15
X6.8Y-9.45
X6.8Y-9.75
X6.8Y-10.05
X6.8Y-10.35
X6.8Y-10.65
X6.8Y-10.95
X6.8Y-11.25
X6.85Y-5.85
X6.85Y-5.95
X6.85Y-6.05
X6.85Y-6.15
X6.85Y-6.25
X6.85Y-6.35
X6.85Y-6.45
X6.85Y-6.55
X6.85Y-6.65
X6.85Y-6.75
X6.85Y-6.85
X6.85Y-6.95
X6.85Y-7.05
X6.85Y-7.15
X6.85Y-7.25
X6.85Y-7.35
X6.85Y-7.45
X6.85Y-7.55
X6.85Y-7.65
X6.85Y-7.75
X6.85Y-7.85
X6.85Y-7.95
X6.85Y-8.05
X6.85Y-8.15
X6.85Y-8.25
X6.85Y-8.35
X6.85Y-8.45
X6.85Y-8.55
X6.85Y-8.65
X6.85Y-8.75
X6.85Y-9.05
X6.85Y-9.35
X6.85Y-9.65
X6.85Y-9.95
X6.85Y-10.25
X6.85Y-10.55
X6.85Y-10.85
X6.85Y-11.15
X6.9Y-9.15
X6.9Y-9.45
X6.9Y-9.75
X6.9Y-10.05
X6.9Y-10.35
X6.9Y-10.65
X6.9Y-10.95
X6.9Y-11.25
X6.95Y-5.85
X6.95Y-5.95
X6.95Y-6.05
X6.95Y-6.15
X6.95Y-6.25
X6.95Y-6.35
X6.95Y-6.45
X6.95Y-6.55
X6.95Y-6.65
X6.95Y-6.75
X6.95Y-6.85
X6.95Y-6.95
X6.95Y-7.05
X6.95Y-7.15
X6.95Y-7.25
X6.95Y-7.35
X6.95Y-7.45
X6.95Y-7.55
X6.95Y-7.65
X6.95Y-7.75
X6.95Y-7.85
X6.95Y-7.95
X6.95Y-8.05
X6.95Y-8.15
X6.95Y-8.25
X6.95Y-8.35
X6.95Y-8.45
X6.95Y-8.55
X6.95Y-8.65
X6.95Y-8.75
X6.95Y-9.05
X6.95Y-9.35
X6.95Y-9.65
X6.95Y-9.95
X6.95Y-10.25
X6.95Y-10.55
X6.95Y-10.85
X6.95Y-11.15
X7.0Y-9.15
X7.0Y-9.45
X7.0Y-9.75
X7.0Y-10.05
X7.0Y-10.35
X7.0Y-10.65
X7.0Y-10.95
X7.0Y-11.25
X7.05Y-5.85
X7.05Y-5.95
X7.05Y-6.05
X7.05Y-6.15
X7.05Y-6.25
X7.05Y-6.35
X7.05Y-6.45
X7.05Y-6.55
X7.05Y-6.65
X7.05Y-6.75
X7.05Y-6.85
X7.05Y-6.95
X7.05Y-7.05
X7.05Y-7.15
X7.05Y-7.25
X7.05Y-7.35
X7.05Y-7.45
X7.05Y-7.55
X7.05Y-7.65
X7.05Y-7.75
X7.05Y-7.85
X7.05Y-7.95
X7.05Y-8.05
X7.05Y-8.15
X7.05Y-8.25
X7.05Y-8.35
X7.05Y-8.45
X7.05Y-8.55
X7.05Y-8.65
X7.05Y-8.75
X7.05Y-9.05
X7.05Y-9.35
X7.05Y-9.65
X7.05Y-9.95
X7.05Y-10.25
X7.05Y-10.55
X7.05Y-10.85
X7.05Y-11.15
X7.1Y-9.15
X7.1Y-9.45
X7.1Y-9.75
X7.1Y-10.05
X7.1Y-10.35
X7.1Y-10.65
X7.1Y-10.95
X7.1Y-11.25
X7.15Y-5.85
X7.15Y-5.95
X7.15Y-6.05
X7.15Y-6.15
X7.15Y-6.25
X7.15Y-6.35
X7.15Y-6.45
X7.15Y-6.55
X7.15Y-6.65
X7.15Y-6.75
X7.15Y-6.85
X7.15Y-6.95
X7.15Y-7.05
X7.15Y-7.15
X7.15Y-7.25
X7.15Y-7.35
X7.15Y-7.45
X7.15Y-7.55
X7.15Y-7.65
X7.15Y-7.75
X7.15Y-7.85
X7.15Y-7.95
X7.15Y-8.05
X7.15Y-8.15
X7.15Y-8.25
X7.15Y-8.35
X7.15Y-8.45
X7.15Y-8.55
X7.15Y-8.65
X7.15Y-8.75
X7.15Y-9.05
X7.15Y-9.35
X7.15Y-9.65
X7.15Y-9.95
X7.15Y-10.25
X7.15Y-10.55
X7.15Y-10.85
X7.15Y-11.15
X7.2Y-9.15
X7.2Y-9.45
X7.2Y-9.75
X7.2Y-10.05
X7.2Y-10.35
X7.2Y-10.65
X7.2Y-10.95
X7.2Y-11.25
X7.25Y-5.85
X7.25Y-5.95
X7.25Y-6.05
X7.25Y-6.15
X7.25Y-6.25
X7.25Y-6.35
X7.25Y-6.45
X7.25Y-6.55
X7.25Y-6.65
X7.25Y-6.75
X7.25Y-6.85
X7.25Y-6.95
X7.25Y-7.05
X7.25Y-7.15
X7.25Y-7.25
X7.25Y-7.35
X7.25Y-7.45
X7.25Y-7.55
X7.25Y-7.65
X7.25Y-7.75
X7.25Y-7.85
X7.25Y-7.95
X7.25Y-8.05
X7.25Y-8.15
X7.25Y-8.25
X7.25Y-8.35
X7.25Y-8.45
X7.25Y-8.55
X7.25Y-8.65
X7.25Y-8.75
X7.25Y-9.05
X7.25Y-9.35
X7.25Y-9.65
X7.25Y-9.95
X7.25Y-10.25
X7.25Y-10.55
X7.25Y-10.85
X7.25Y-11.15
X7.3Y-9.15
X7.3Y-9.45
X7.3Y-9.75
X7.3Y-10.05
X7.3Y-10.35
X7.3Y-10.65
X7.3Y-10.95
X7.3Y-11.25
X7.35Y-5.85
X7.35Y-5.95
X7.35Y-6.05
X7.35Y-6.15
X7.35Y-6.25
X7.35Y-6.35
X7.35Y-6.45
X7.35Y-6.55
X7.35Y-6.65
X7.35Y-6.75
X7.35Y-6.85
X7.35Y-6.95
X7.35Y-7.05
X7.35Y-7.15
X7.35Y-7.25
X7.35Y-7.35
X7.35Y-7.45
X7.35Y-7.55
X7.35Y-7.65
X7.35Y-7.75
X7.35Y-7.85
X7.35Y-7.95
X7.35Y-8.05
X7.35Y-8.15
X7.35Y-8.25
X7.35Y-8.35
X7.35Y-8.45
X7.35Y-8.55
X7.35Y-8.65
X7.35Y-8.75
X7.35Y-9.05
X7.35Y-9.35
X7.35Y-9.65
X7.35Y-9.95
X7.35Y-10.25
X7.35Y-10.55
X7.35Y-10.85
X7.35Y-11.15
X7.4Y-9.15
X7.4Y-9.45
X7.4Y-9.75
X7.4Y-10.05
X7.4Y-10.35
X7.4Y-10.65
X7.4Y-10.95
X7.4Y-11.25
X7.45Y-5.85
X7.45Y-5.95
X7.45Y-6.05
X7.45Y-6.15
X7.45Y-6.25
X7.45Y-6.35
X7.45Y-6.45
X7.45Y-6.55
X7.45Y-6.65
X7.45Y-6.75
X7.45Y-6.85
X7.45Y-6.95
X7.45Y-7.05
X7.45Y-7.15
X7.45Y-7.25
X7.45Y-7.35
X7.45Y-7.45
X7.45Y-7.55
X7.45Y-7.65
X7.45Y-7.75
X7.45Y-7.85
X7.45Y-7.95
X7.45Y-8.05
X7.45Y-8.15
X7.45Y-8.25
X7.45Y-8.35
X7.45Y-8.45
X7.45Y-8.55
X7.45Y-8.65
X7.45Y-8.75
X7.45Y-9.05
X7.45Y-9.35
X7.45Y-9.65
X7.45Y-9.95
X7.45Y-10.25
X7.45Y-10.55
X7.45Y-10.85
X7.45Y-11.15
X7.5Y-9.15
X7.5Y-9.45
X7.5Y-9.75
X7.5Y-10.05
X7.5Y-10.35
X7.5Y-10.65
X7.5Y-10.95
X7.5Y-11.25
X7.55Y-5.85
X7.55Y-5.95
X7.55Y-6.05
X7.55Y-6.15
X7.55Y-6.25
X7.55Y-6.35
X7.55Y-6.45
X7.55Y-6.55
X7.55Y-6.65
X7.55Y-6.75
X7.55Y-6.85
X7.55Y-6.95
X7.55Y-7.05
X7.55Y-7.15
X7.55Y-7.25
X7.55Y-7.35
X7.55Y-7.45
X7.55Y-7.55
X7.55Y-7.65
X7.55Y-7.75
X7.55Y-7.85
X7.55Y-7.95
X7.55Y-8.05
X7.55Y-8.15
X7.55Y-8.25
X7.55Y-8.35
X7.55Y-8.45
X7.55Y-8.55
X7.55Y-8.65
X7.55Y-8.75
X7.55Y-9.05
X7.55Y-9.35
X7.55Y-9.65
X7.55Y-9.95
X7.55Y-10.25
X7.55Y-10.55
X7.55Y-10.85
X7.55Y-11.15
X7.65Y-5.85
X7.65Y-5.95
X7.65Y-6.05
X7.65Y-6.15
X7.65Y-6.25
X7.65Y-6.35
X7.65Y-6.45
X7.65Y-6.55
X7.65Y-6.65
X7.65Y-6.75
X7.65Y-6.85
X7.65Y-6.95
X7.65Y-7.05
X7.65Y-7.15
X7.65Y-7.25
X7.65Y-7.35
X7.65Y-7.45
X7.65Y-7.55
X7.65Y-7.65
X7.65Y-7.75
X7.65Y-7.85
X7.65Y-7.95
X7.65Y-8.05
X7.65Y-8.15
X7.65Y-8.25
X7.65Y-8.35
X7.65Y-8.45
X7.65Y-8.55
X7.65Y-8.65
X7.65Y-8.75
X7.75Y-5.85
X7.75Y-5.95
X7.75Y-6.05
X7.75Y-6.15
X7.75Y-6.25
X7.75Y-6.35
X7.75Y-6.45
X7.75Y-6.55
X7.75Y-6.65
X7.75Y-6.75
X7.75Y-6.85
X7.75Y-6.95
X7.75Y-7.05
X7.75Y-7.15
X7.75Y-7.25
X7.75Y-7.35
X7.75Y-7.45
X7.75Y-7.55
X7.75Y-7.65
X7.75Y-7.75
X7.75Y-7.85
X7.75Y-7.95
X7.75Y-8.05
X7.75Y-8.15
X7.75Y-8.25
X7.75Y-8.35
X7.75Y-8.45
X7.75Y-8.55
X7.75Y-8.65
X7.75Y-8.75
X7.85Y-5.85
X7.85Y-5.95
X7.85Y-6.05
X7.85Y-6.15
X7.85Y-6.25
X7.85Y-6.35
X7.85Y-6.45
X7.85Y-6.55
X7.85Y-6.65
X7.85Y-6.75
X7.85Y-6.85
X7.85Y-6.95
X7.85Y-7.05
X7.85Y-7.15
X7.85Y-7.25
X7.85Y-7.35
X7.85Y-7.45
X7.85Y-7.55
X7.85Y-7.65
X7.85Y-7.75
X7.85Y-7.85
X7.85Y-7.95
X7.85Y-8.05
X7.85Y-8.15
X7.85Y-8.25
X7.85Y-8.35
X7.85Y-8.45
X7.85Y-8.55
X7.85Y-8.65
X7.85Y-8.75
T5
X8.7169Y-14.5
X8.8169Y-14.5
X11.95Y-14.4213
X12.0287Y-14.4213
X12.1075Y-14.4213
T6
X6.7Y-13.4
X6.7Y-13.5
X6.7Y-14.1
X6.7Y-14.2
X6.8Y-13.4
X6.8Y-13.5
X6.8Y-14.1
X6.8Y-14.2
X6.9Y-13.4
X6.9Y-13.5
X6.9Y-14.1
X6.9Y-14.2
X7.0Y-13.4
X7.0Y-13.5
X7.0Y-14.1
X7.0Y-14.2
X7.1Y-13.4
X7.1Y-13.5
X7.1Y-14.1
X7.1Y-14.2
X7.2Y-13.4
X7.2Y-13.5
X7.2Y-14.1
X7.2Y-14.2
X7.3Y-13.4
X7.3Y-13.5
X7.3Y-14.1
X7.3Y-14.2
X7.4Y-13.4
X7.4Y-13.5
X7.4Y-14.1
X7.4Y-14.2
X7.5Y-13.4
X7.5Y-13.5
X7.5Y-14.1
X7.5Y-14.2
X7.6Y-13.4
X7.6Y-13.5
X7.6Y-13.7
X7.6Y-14.1
X7.6Y-14.2
X7.8998Y-13.2748
X7.8998Y-13.3748
X7.8998Y-13.4748
X7.8998Y-13.5748
X7.8998Y-13.6748
X7.8998Y-13.7748
X7.8998Y-13.8748
X7.9998Y-13.2748
X7.9998Y-13.3748
X7.9998Y-13.4748
X7.9998Y-13.5748
X7.9998Y-13.6748
X7.9998Y-13.7748
X7.9998Y-13.8748
X8.45Y-5.9
X8.45Y-6.0
X8.45Y-9.5
X8.45Y-9.6
X8.55Y-5.9
X8.55Y-6.0
X8.55Y-9.5
X8.55Y-9.6
X8.65Y-5.9
X8.65Y-6.0
X8.65Y-9.5
X8.65Y-9.6
X8.75Y-5.9
X8.75Y-6.0
X8.75Y-9.5
X8.75Y-9.6
X8.85Y-5.9
X8.85Y-6.0
X8.85Y-9.5
X8.85Y-9.6
X8.95Y-5.9
X8.95Y-6.0
X8.95Y-9.5
X8.95Y-9.6
X9.05Y-5.9
X9.05Y-6.0
X9.05Y-9.5
X9.05Y-9.6
X9.15Y-5.9
X9.15Y-6.0
X9.15Y-9.5
X9.15Y-9.6
X9.25Y-5.9
X9.25Y-6.0
X9.25Y-9.5
X9.25Y-9.6
X9.35Y-5.9
X9.35Y-6.0
X9.35Y-9.5
X9.35Y-9.6
X9.45Y-5.9
X9.45Y-6.0
X9.45Y-9.5
X9.45Y-9.6
X9.55Y-5.9
X9.55Y-6.0
X9.55Y-8.35
X9.55Y-8.45
X9.55Y-8.55
X9.55Y-9.5
X9.55Y-9.6
X9.65Y-5.9
X9.65Y-6.0
X9.65Y-9.5
X9.65Y-9.6
X9.75Y-5.9
X9.75Y-6.0
X9.75Y-8.35
X9.75Y-8.45
X9.75Y-8.55
X9.75Y-9.5
X9.75Y-9.6
X9.85Y-5.9
X9.85Y-6.0
X9.85Y-9.5
X9.85Y-9.6
X9.95Y-5.9
X9.95Y-6.0
X9.95Y-9.5
X9.95Y-9.6
X10.05Y-5.9
X10.05Y-6.0
X10.05Y-9.5
X10.05Y-9.6
X10.15Y-5.9
X10.15Y-6.0
X10.15Y-9.5
X10.15Y-9.6
X10.25Y-5.9
X10.25Y-6.0
X10.25Y-9.5
X10.25Y-9.6
X10.35Y-5.9
X10.35Y-6.0
X10.35Y-9.5
X10.35Y-9.6
X10.45Y-5.9
X10.45Y-6.0
X10.45Y-9.5
X10.45Y-9.6
X10.55Y-5.9
X10.55Y-6.0
X10.55Y-9.5
X10.55Y-9.6
X10.65Y-5.9
X10.65Y-6.0
X10.65Y-9.5
X10.65Y-9.6
X10.75Y-5.9
X10.75Y-6.0
X10.75Y-9.5
X10.75Y-9.6
X10.85Y-5.9
X10.85Y-6.0
X10.85Y-9.5
X10.85Y-9.6
X10.95Y-13.9748
X10.95Y-14.0748
X11.2Y-13.95
X11.3Y-14.2
X12.2573Y-5.475
X12.3118Y-5.3632
X12.3663Y-5.475
X12.4209Y-5.3632
X12.4754Y-5.475
X12.5299Y-5.3632
X12.5844Y-5.475
X12.639Y-5.3632
X12.65Y-11.9
X12.65Y-12.0
X12.6935Y-5.475
X12.75Y-11.9
X12.75Y-12.0
X12.85Y-11.9
X12.85Y-12.0
X12.95Y-11.9
X12.95Y-12.0
X13.5323Y-5.475
X13.5756Y-6.0002
X13.5756Y-6.1002
X13.5868Y-5.3632
X13.6413Y-5.475
X13.6756Y-6.0002
X13.6756Y-6.1002
X13.6959Y-5.3632
X13.7504Y-5.475
X13.7756Y-6.0002
X13.7756Y-6.1002
X13.8049Y-5.3632
X13.8594Y-5.475
X13.8756Y-6.0002
X13.8756Y-6.1002
X13.914Y-5.3632
X13.9685Y-5.475
X13.9756Y-6.0002
X13.9756Y-6.1002
X14.0756Y-6.0002
X14.0756Y-6.1002
X14.1756Y-6.0002
X14.1756Y-6.1002
X14.2Y-6.85
X14.2Y-6.95
X14.2Y-7.05
X14.2Y-7.15
X14.2Y-7.25
X14.2Y-7.35
X14.2Y-7.45
X14.2Y-7.55
X14.2Y-7.65
X14.2Y-7.75
X14.2Y-7.85
X14.2Y-7.95
X14.2Y-8.05
X14.2Y-8.15
X14.2Y-8.25
X14.2Y-8.35
X14.2Y-8.45
X14.2Y-8.55
X14.2Y-8.65
X14.2Y-8.75
X14.2Y-8.85
X14.2Y-8.95
X14.2Y-9.05
X14.2Y-9.15
X14.2Y-9.25
X14.2Y-9.7
X14.2Y-9.8
X14.2Y-9.9
X14.2Y-10.0
X14.2Y-10.1
X14.2Y-10.2
X14.2Y-10.3
X14.2Y-10.4
X14.2Y-10.5
X14.2Y-10.6
X14.2Y-10.7
X14.2Y-10.8
X14.2Y-10.9
X14.2Y-11.0
X14.2Y-11.1
X14.2Y-11.2
X14.2Y-11.3
X14.2756Y-6.0002
X14.2756Y-6.1002
X14.3Y-6.85
X14.3Y-6.95
X14.3Y-7.05
X14.3Y-7.15
X14.3Y-7.25
X14.3Y-7.35
X14.3Y-7.45
X14.3Y-7.55
X14.3Y-7.65
X14.3Y-7.75
X14.3Y-7.85
X14.3Y-7.95
X14.3Y-8.05
X14.3Y-8.15
X14.3Y-8.25
X14.3Y-8.35
X14.3Y-8.45
X14.3Y-8.55
X14.3Y-8.65
X14.3Y-8.75
X14.3Y-8.85
X14.3Y-8.95
X14.3Y-9.05
X14.3Y-9.15
X14.3Y-9.25
X14.3Y-9.7
X14.3Y-9.8
X14.3Y-9.9
X14.3Y-10.0
X14.3Y-10.1
X14.3Y-10.2
X14.3Y-10.3
X14.3Y-10.4
X14.3Y-10.5
X14.3Y-10.6
X14.3Y-10.7
X14.3Y-10.8
X14.3Y-10.9
X14.3Y-11.0
X14.3Y-11.1
X14.3Y-11.2
X14.3Y-11.3
T7
X8.2622Y-14.425
X8.2622Y-14.6022
X8.5181Y-14.425
X8.5181Y-14.6022
X9.022Y-14.4295
X9.022Y-14.6067
X9.278Y-14.4295
X9.278Y-14.6067
T8
X11.8673Y-14.4213
X12.1902Y-14.4213
T9
X13.85Y-7.8
X13.85Y-8.4
T10
X9.6059Y-14.3667
X9.6059Y-14.5833
X9.7713Y-14.3667
X9.7713Y-14.5833
X9.9366Y-14.3667
X9.9366Y-14.5833
X10.102Y-14.3667
X10.102Y-14.5833
X10.2673Y-14.3667
X10.2673Y-14.5833
X10.4327Y-14.3667
X10.4327Y-14.5833
X10.598Y-14.3667
X10.598Y-14.5833
X10.7634Y-14.3667
X10.7634Y-14.5833
X10.9287Y-14.3667
X10.9287Y-14.5833
X11.0941Y-14.3667
X11.0941Y-14.5833
T11
X11.9833Y-5.4632
X12.9675Y-5.4632
X13.2583Y-5.4632
X14.2425Y-5.4632
T12
X5.35Y-11.65
X6.15Y-5.55
X6.15Y-11.65
X7.95Y-5.55
X7.95Y-11.65
X7.95Y-14.5
X14.15Y-6.45
X14.15Y-11.65
X14.15Y-14.5
T0
M30
