%TF.GenerationSoftware,KiCad,Pcbnew,(6.0.11)*%
%TF.CreationDate,2024-06-16T13:35:35-04:00*%
%TF.ProjectId,NS32016-BC,4e533332-3031-4362-9d42-432e6b696361,rev?*%
%TF.SameCoordinates,Original*%
%TF.FileFunction,OtherDrawing,Comment*%
%FSLAX46Y46*%
G04 Gerber Fmt 4.6, Leading zero omitted, Abs format (unit mm)*
G04 Created by KiCad (PCBNEW (6.0.11)) date 2024-06-16 13:35:35*
%MOMM*%
%LPD*%
G01*
G04 APERTURE LIST*
%ADD10C,0.200000*%
%ADD11C,0.254000*%
%ADD12C,0.300000*%
G04 APERTURE END LIST*
D10*
X209550000Y-146050000D02*
X365760000Y-146050000D01*
X53340000Y-368300000D02*
X369570000Y-368300000D01*
X359410000Y-115570000D02*
X359410000Y-379730000D01*
X77470000Y-125730000D02*
X77470000Y-379730000D01*
X135890000Y-295910000D02*
X135890000Y-130810000D01*
X201930000Y-120650000D02*
X201930000Y-379730000D01*
X55880000Y-140970000D02*
X373380000Y-140970000D01*
X135890000Y-374650000D02*
X135890000Y-295910000D01*
X365760000Y-163830000D02*
X43180000Y-163830000D01*
X156210000Y-125730000D02*
X156210000Y-379730000D01*
X121920000Y-295910000D02*
X365760000Y-295910000D01*
X209550000Y-110490000D02*
X209550000Y-381000000D01*
D11*
X222612857Y-144870714D02*
X218802857Y-139427857D01*
X216081428Y-144870714D02*
X216081428Y-133440714D01*
X220435714Y-133440714D01*
X221524285Y-133985000D01*
X222068571Y-134529285D01*
X222612857Y-135617857D01*
X222612857Y-137250714D01*
X222068571Y-138339285D01*
X221524285Y-138883571D01*
X220435714Y-139427857D01*
X216081428Y-139427857D01*
X227511428Y-138883571D02*
X231321428Y-138883571D01*
X232954285Y-144870714D02*
X227511428Y-144870714D01*
X227511428Y-133440714D01*
X232954285Y-133440714D01*
X237308571Y-141605000D02*
X242751428Y-141605000D01*
X236220000Y-144870714D02*
X240030000Y-133440714D01*
X243840000Y-144870714D01*
X254181428Y-144870714D02*
X250371428Y-139427857D01*
X247650000Y-144870714D02*
X247650000Y-133440714D01*
X252004285Y-133440714D01*
X253092857Y-133985000D01*
X253637142Y-134529285D01*
X254181428Y-135617857D01*
X254181428Y-137250714D01*
X253637142Y-138339285D01*
X253092857Y-138883571D01*
X252004285Y-139427857D01*
X247650000Y-139427857D01*
X267788571Y-144870714D02*
X267788571Y-133440714D01*
X275408571Y-133440714D02*
X277585714Y-133440714D01*
X278674285Y-133985000D01*
X279762857Y-135073571D01*
X280307142Y-137250714D01*
X280307142Y-141060714D01*
X279762857Y-143237857D01*
X278674285Y-144326428D01*
X277585714Y-144870714D01*
X275408571Y-144870714D01*
X274320000Y-144326428D01*
X273231428Y-143237857D01*
X272687142Y-141060714D01*
X272687142Y-137250714D01*
X273231428Y-135073571D01*
X274320000Y-133985000D01*
X275408571Y-133440714D01*
X292825714Y-133440714D02*
X295547142Y-144870714D01*
X297724285Y-136706428D01*
X299901428Y-144870714D01*
X302622857Y-133440714D01*
X306977142Y-144870714D02*
X306977142Y-133440714D01*
X312420000Y-144870714D02*
X312420000Y-133440714D01*
X318951428Y-144870714D01*
X318951428Y-133440714D01*
X324394285Y-144870714D02*
X324394285Y-133440714D01*
X327115714Y-133440714D01*
X328748571Y-133985000D01*
X329837142Y-135073571D01*
X330381428Y-136162142D01*
X330925714Y-138339285D01*
X330925714Y-139972142D01*
X330381428Y-142149285D01*
X329837142Y-143237857D01*
X328748571Y-144326428D01*
X327115714Y-144870714D01*
X324394285Y-144870714D01*
X338001428Y-133440714D02*
X340178571Y-133440714D01*
X341267142Y-133985000D01*
X342355714Y-135073571D01*
X342900000Y-137250714D01*
X342900000Y-141060714D01*
X342355714Y-143237857D01*
X341267142Y-144326428D01*
X340178571Y-144870714D01*
X338001428Y-144870714D01*
X336912857Y-144326428D01*
X335824285Y-143237857D01*
X335280000Y-141060714D01*
X335280000Y-137250714D01*
X335824285Y-135073571D01*
X336912857Y-133985000D01*
X338001428Y-133440714D01*
X346710000Y-133440714D02*
X349431428Y-144870714D01*
X351608571Y-136706428D01*
X353785714Y-144870714D01*
X356507142Y-133440714D01*
D12*
X139045714Y-105328571D02*
X138331428Y-105328571D01*
X138260000Y-106042857D01*
X138331428Y-105971428D01*
X138474285Y-105900000D01*
X138831428Y-105900000D01*
X138974285Y-105971428D01*
X139045714Y-106042857D01*
X139117142Y-106185714D01*
X139117142Y-106542857D01*
X139045714Y-106685714D01*
X138974285Y-106757142D01*
X138831428Y-106828571D01*
X138474285Y-106828571D01*
X138331428Y-106757142D01*
X138260000Y-106685714D01*
X139760000Y-106685714D02*
X139831428Y-106757142D01*
X139760000Y-106828571D01*
X139688571Y-106757142D01*
X139760000Y-106685714D01*
X139760000Y-106828571D01*
X140402857Y-105471428D02*
X140474285Y-105400000D01*
X140617142Y-105328571D01*
X140974285Y-105328571D01*
X141117142Y-105400000D01*
X141188571Y-105471428D01*
X141260000Y-105614285D01*
X141260000Y-105757142D01*
X141188571Y-105971428D01*
X140331428Y-106828571D01*
X141260000Y-106828571D01*
X142188571Y-105328571D02*
X142331428Y-105328571D01*
X142474285Y-105400000D01*
X142545714Y-105471428D01*
X142617142Y-105614285D01*
X142688571Y-105900000D01*
X142688571Y-106257142D01*
X142617142Y-106542857D01*
X142545714Y-106685714D01*
X142474285Y-106757142D01*
X142331428Y-106828571D01*
X142188571Y-106828571D01*
X142045714Y-106757142D01*
X141974285Y-106685714D01*
X141902857Y-106542857D01*
X141831428Y-106257142D01*
X141831428Y-105900000D01*
X141902857Y-105614285D01*
X141974285Y-105471428D01*
X142045714Y-105400000D01*
X142188571Y-105328571D01*
X143617142Y-105328571D02*
X143760000Y-105328571D01*
X143902857Y-105400000D01*
X143974285Y-105471428D01*
X144045714Y-105614285D01*
X144117142Y-105900000D01*
X144117142Y-106257142D01*
X144045714Y-106542857D01*
X143974285Y-106685714D01*
X143902857Y-106757142D01*
X143760000Y-106828571D01*
X143617142Y-106828571D01*
X143474285Y-106757142D01*
X143402857Y-106685714D01*
X143331428Y-106542857D01*
X143260000Y-106257142D01*
X143260000Y-105900000D01*
X143331428Y-105614285D01*
X143402857Y-105471428D01*
X143474285Y-105400000D01*
X143617142Y-105328571D01*
X145045714Y-105328571D02*
X145188571Y-105328571D01*
X145331428Y-105400000D01*
X145402857Y-105471428D01*
X145474285Y-105614285D01*
X145545714Y-105900000D01*
X145545714Y-106257142D01*
X145474285Y-106542857D01*
X145402857Y-106685714D01*
X145331428Y-106757142D01*
X145188571Y-106828571D01*
X145045714Y-106828571D01*
X144902857Y-106757142D01*
X144831428Y-106685714D01*
X144760000Y-106542857D01*
X144688571Y-106257142D01*
X144688571Y-105900000D01*
X144760000Y-105614285D01*
X144831428Y-105471428D01*
X144902857Y-105400000D01*
X145045714Y-105328571D01*
X147331428Y-106828571D02*
X147331428Y-105828571D01*
X147331428Y-105328571D02*
X147260000Y-105400000D01*
X147331428Y-105471428D01*
X147402857Y-105400000D01*
X147331428Y-105328571D01*
X147331428Y-105471428D01*
X148045714Y-105828571D02*
X148045714Y-106828571D01*
X148045714Y-105971428D02*
X148117142Y-105900000D01*
X148260000Y-105828571D01*
X148474285Y-105828571D01*
X148617142Y-105900000D01*
X148688571Y-106042857D01*
X148688571Y-106828571D01*
X209550000Y-110490000D02*
X209550000Y-107363580D01*
X77470000Y-110490000D02*
X77470000Y-107363580D01*
X209550000Y-107950000D02*
X77470000Y-107950000D01*
X209550000Y-107950000D02*
X77470000Y-107950000D01*
X209550000Y-107950000D02*
X208423496Y-107363579D01*
X209550000Y-107950000D02*
X208423496Y-108536421D01*
X77470000Y-107950000D02*
X78596504Y-108536421D01*
X77470000Y-107950000D02*
X78596504Y-107363579D01*
X57298571Y-257837142D02*
X57298571Y-257551428D01*
X57227142Y-257408571D01*
X57155714Y-257337142D01*
X56941428Y-257194285D01*
X56655714Y-257122857D01*
X56084285Y-257122857D01*
X55941428Y-257194285D01*
X55870000Y-257265714D01*
X55798571Y-257408571D01*
X55798571Y-257694285D01*
X55870000Y-257837142D01*
X55941428Y-257908571D01*
X56084285Y-257980000D01*
X56441428Y-257980000D01*
X56584285Y-257908571D01*
X56655714Y-257837142D01*
X56727142Y-257694285D01*
X56727142Y-257408571D01*
X56655714Y-257265714D01*
X56584285Y-257194285D01*
X56441428Y-257122857D01*
X57155714Y-256480000D02*
X57227142Y-256408571D01*
X57298571Y-256480000D01*
X57227142Y-256551428D01*
X57155714Y-256480000D01*
X57298571Y-256480000D01*
X55798571Y-255122857D02*
X55798571Y-255408571D01*
X55870000Y-255551428D01*
X55941428Y-255622857D01*
X56155714Y-255765714D01*
X56441428Y-255837142D01*
X57012857Y-255837142D01*
X57155714Y-255765714D01*
X57227142Y-255694285D01*
X57298571Y-255551428D01*
X57298571Y-255265714D01*
X57227142Y-255122857D01*
X57155714Y-255051428D01*
X57012857Y-254980000D01*
X56655714Y-254980000D01*
X56512857Y-255051428D01*
X56441428Y-255122857D01*
X56370000Y-255265714D01*
X56370000Y-255551428D01*
X56441428Y-255694285D01*
X56512857Y-255765714D01*
X56655714Y-255837142D01*
X55798571Y-254051428D02*
X55798571Y-253908571D01*
X55870000Y-253765714D01*
X55941428Y-253694285D01*
X56084285Y-253622857D01*
X56370000Y-253551428D01*
X56727142Y-253551428D01*
X57012857Y-253622857D01*
X57155714Y-253694285D01*
X57227142Y-253765714D01*
X57298571Y-253908571D01*
X57298571Y-254051428D01*
X57227142Y-254194285D01*
X57155714Y-254265714D01*
X57012857Y-254337142D01*
X56727142Y-254408571D01*
X56370000Y-254408571D01*
X56084285Y-254337142D01*
X55941428Y-254265714D01*
X55870000Y-254194285D01*
X55798571Y-254051428D01*
X55798571Y-252622857D02*
X55798571Y-252480000D01*
X55870000Y-252337142D01*
X55941428Y-252265714D01*
X56084285Y-252194285D01*
X56370000Y-252122857D01*
X56727142Y-252122857D01*
X57012857Y-252194285D01*
X57155714Y-252265714D01*
X57227142Y-252337142D01*
X57298571Y-252480000D01*
X57298571Y-252622857D01*
X57227142Y-252765714D01*
X57155714Y-252837142D01*
X57012857Y-252908571D01*
X56727142Y-252980000D01*
X56370000Y-252980000D01*
X56084285Y-252908571D01*
X55941428Y-252837142D01*
X55870000Y-252765714D01*
X55798571Y-252622857D01*
X55798571Y-251194285D02*
X55798571Y-251051428D01*
X55870000Y-250908571D01*
X55941428Y-250837142D01*
X56084285Y-250765714D01*
X56370000Y-250694285D01*
X56727142Y-250694285D01*
X57012857Y-250765714D01*
X57155714Y-250837142D01*
X57227142Y-250908571D01*
X57298571Y-251051428D01*
X57298571Y-251194285D01*
X57227142Y-251337142D01*
X57155714Y-251408571D01*
X57012857Y-251480000D01*
X56727142Y-251551428D01*
X56370000Y-251551428D01*
X56084285Y-251480000D01*
X55941428Y-251408571D01*
X55870000Y-251337142D01*
X55798571Y-251194285D01*
X57298571Y-248908571D02*
X56298571Y-248908571D01*
X55798571Y-248908571D02*
X55870000Y-248980000D01*
X55941428Y-248908571D01*
X55870000Y-248837142D01*
X55798571Y-248908571D01*
X55941428Y-248908571D01*
X56298571Y-248194285D02*
X57298571Y-248194285D01*
X56441428Y-248194285D02*
X56370000Y-248122857D01*
X56298571Y-247980000D01*
X56298571Y-247765714D01*
X56370000Y-247622857D01*
X56512857Y-247551428D01*
X57298571Y-247551428D01*
X60960000Y-374650000D02*
X57833580Y-374650000D01*
X60960000Y-130810000D02*
X57833580Y-130810000D01*
X58420000Y-374650000D02*
X58420000Y-130810000D01*
X58420000Y-374650000D02*
X58420000Y-130810000D01*
X58420000Y-374650000D02*
X59006421Y-373523496D01*
X58420000Y-374650000D02*
X57833579Y-373523496D01*
X58420000Y-130810000D02*
X57833579Y-131936504D01*
X58420000Y-130810000D02*
X59006421Y-131936504D01*
X48821428Y-259599285D02*
X48750000Y-259742142D01*
X48678571Y-259813571D01*
X48535714Y-259885000D01*
X48464285Y-259885000D01*
X48321428Y-259813571D01*
X48250000Y-259742142D01*
X48178571Y-259599285D01*
X48178571Y-259313571D01*
X48250000Y-259170714D01*
X48321428Y-259099285D01*
X48464285Y-259027857D01*
X48535714Y-259027857D01*
X48678571Y-259099285D01*
X48750000Y-259170714D01*
X48821428Y-259313571D01*
X48821428Y-259599285D01*
X48892857Y-259742142D01*
X48964285Y-259813571D01*
X49107142Y-259885000D01*
X49392857Y-259885000D01*
X49535714Y-259813571D01*
X49607142Y-259742142D01*
X49678571Y-259599285D01*
X49678571Y-259313571D01*
X49607142Y-259170714D01*
X49535714Y-259099285D01*
X49392857Y-259027857D01*
X49107142Y-259027857D01*
X48964285Y-259099285D01*
X48892857Y-259170714D01*
X48821428Y-259313571D01*
X49535714Y-258385000D02*
X49607142Y-258313571D01*
X49678571Y-258385000D01*
X49607142Y-258456428D01*
X49535714Y-258385000D01*
X49678571Y-258385000D01*
X49678571Y-257599285D02*
X49678571Y-257313571D01*
X49607142Y-257170714D01*
X49535714Y-257099285D01*
X49321428Y-256956428D01*
X49035714Y-256885000D01*
X48464285Y-256885000D01*
X48321428Y-256956428D01*
X48250000Y-257027857D01*
X48178571Y-257170714D01*
X48178571Y-257456428D01*
X48250000Y-257599285D01*
X48321428Y-257670714D01*
X48464285Y-257742142D01*
X48821428Y-257742142D01*
X48964285Y-257670714D01*
X49035714Y-257599285D01*
X49107142Y-257456428D01*
X49107142Y-257170714D01*
X49035714Y-257027857D01*
X48964285Y-256956428D01*
X48821428Y-256885000D01*
X48178571Y-255527857D02*
X48178571Y-256242142D01*
X48892857Y-256313571D01*
X48821428Y-256242142D01*
X48750000Y-256099285D01*
X48750000Y-255742142D01*
X48821428Y-255599285D01*
X48892857Y-255527857D01*
X49035714Y-255456428D01*
X49392857Y-255456428D01*
X49535714Y-255527857D01*
X49607142Y-255599285D01*
X49678571Y-255742142D01*
X49678571Y-256099285D01*
X49607142Y-256242142D01*
X49535714Y-256313571D01*
X48178571Y-254527857D02*
X48178571Y-254385000D01*
X48250000Y-254242142D01*
X48321428Y-254170714D01*
X48464285Y-254099285D01*
X48750000Y-254027857D01*
X49107142Y-254027857D01*
X49392857Y-254099285D01*
X49535714Y-254170714D01*
X49607142Y-254242142D01*
X49678571Y-254385000D01*
X49678571Y-254527857D01*
X49607142Y-254670714D01*
X49535714Y-254742142D01*
X49392857Y-254813571D01*
X49107142Y-254885000D01*
X48750000Y-254885000D01*
X48464285Y-254813571D01*
X48321428Y-254742142D01*
X48250000Y-254670714D01*
X48178571Y-254527857D01*
X48178571Y-253099285D02*
X48178571Y-252956428D01*
X48250000Y-252813571D01*
X48321428Y-252742142D01*
X48464285Y-252670714D01*
X48750000Y-252599285D01*
X49107142Y-252599285D01*
X49392857Y-252670714D01*
X49535714Y-252742142D01*
X49607142Y-252813571D01*
X49678571Y-252956428D01*
X49678571Y-253099285D01*
X49607142Y-253242142D01*
X49535714Y-253313571D01*
X49392857Y-253385000D01*
X49107142Y-253456428D01*
X48750000Y-253456428D01*
X48464285Y-253385000D01*
X48321428Y-253313571D01*
X48250000Y-253242142D01*
X48178571Y-253099285D01*
X49678571Y-250813571D02*
X48678571Y-250813571D01*
X48178571Y-250813571D02*
X48250000Y-250885000D01*
X48321428Y-250813571D01*
X48250000Y-250742142D01*
X48178571Y-250813571D01*
X48321428Y-250813571D01*
X48678571Y-250099285D02*
X49678571Y-250099285D01*
X48821428Y-250099285D02*
X48750000Y-250027857D01*
X48678571Y-249885000D01*
X48678571Y-249670714D01*
X48750000Y-249527857D01*
X48892857Y-249456428D01*
X49678571Y-249456428D01*
X53340000Y-368300000D02*
X50213580Y-368300000D01*
X53340000Y-140970000D02*
X50213580Y-140970000D01*
X50800000Y-368300000D02*
X50800000Y-140970000D01*
X50800000Y-368300000D02*
X50800000Y-140970000D01*
X50800000Y-368300000D02*
X51386421Y-367173496D01*
X50800000Y-368300000D02*
X50213579Y-367173496D01*
X50800000Y-140970000D02*
X50213579Y-142096504D01*
X50800000Y-140970000D02*
X51386421Y-142096504D01*
X111518571Y-120568572D02*
X112447142Y-120568572D01*
X111947142Y-121140001D01*
X112161428Y-121140001D01*
X112304285Y-121211429D01*
X112375714Y-121282858D01*
X112447142Y-121425715D01*
X112447142Y-121782858D01*
X112375714Y-121925715D01*
X112304285Y-121997143D01*
X112161428Y-122068572D01*
X111732857Y-122068572D01*
X111590000Y-121997143D01*
X111518571Y-121925715D01*
X113090000Y-121925715D02*
X113161428Y-121997143D01*
X113090000Y-122068572D01*
X113018571Y-121997143D01*
X113090000Y-121925715D01*
X113090000Y-122068572D01*
X114590000Y-122068572D02*
X113732857Y-122068572D01*
X114161428Y-122068572D02*
X114161428Y-120568572D01*
X114018571Y-120782858D01*
X113875714Y-120925715D01*
X113732857Y-120997143D01*
X115518571Y-120568572D02*
X115661428Y-120568572D01*
X115804285Y-120640001D01*
X115875714Y-120711429D01*
X115947142Y-120854286D01*
X116018571Y-121140001D01*
X116018571Y-121497143D01*
X115947142Y-121782858D01*
X115875714Y-121925715D01*
X115804285Y-121997143D01*
X115661428Y-122068572D01*
X115518571Y-122068572D01*
X115375714Y-121997143D01*
X115304285Y-121925715D01*
X115232857Y-121782858D01*
X115161428Y-121497143D01*
X115161428Y-121140001D01*
X115232857Y-120854286D01*
X115304285Y-120711429D01*
X115375714Y-120640001D01*
X115518571Y-120568572D01*
X116947142Y-120568572D02*
X117090000Y-120568572D01*
X117232857Y-120640001D01*
X117304285Y-120711429D01*
X117375714Y-120854286D01*
X117447142Y-121140001D01*
X117447142Y-121497143D01*
X117375714Y-121782858D01*
X117304285Y-121925715D01*
X117232857Y-121997143D01*
X117090000Y-122068572D01*
X116947142Y-122068572D01*
X116804285Y-121997143D01*
X116732857Y-121925715D01*
X116661428Y-121782858D01*
X116590000Y-121497143D01*
X116590000Y-121140001D01*
X116661428Y-120854286D01*
X116732857Y-120711429D01*
X116804285Y-120640001D01*
X116947142Y-120568572D01*
X118375714Y-120568572D02*
X118518571Y-120568572D01*
X118661428Y-120640001D01*
X118732857Y-120711429D01*
X118804285Y-120854286D01*
X118875714Y-121140001D01*
X118875714Y-121497143D01*
X118804285Y-121782858D01*
X118732857Y-121925715D01*
X118661428Y-121997143D01*
X118518571Y-122068572D01*
X118375714Y-122068572D01*
X118232857Y-121997143D01*
X118161428Y-121925715D01*
X118090000Y-121782858D01*
X118018571Y-121497143D01*
X118018571Y-121140001D01*
X118090000Y-120854286D01*
X118161428Y-120711429D01*
X118232857Y-120640001D01*
X118375714Y-120568572D01*
X120661428Y-122068572D02*
X120661428Y-121068572D01*
X120661428Y-120568572D02*
X120590000Y-120640001D01*
X120661428Y-120711429D01*
X120732857Y-120640001D01*
X120661428Y-120568572D01*
X120661428Y-120711429D01*
X121375714Y-121068572D02*
X121375714Y-122068572D01*
X121375714Y-121211429D02*
X121447142Y-121140001D01*
X121590000Y-121068572D01*
X121804285Y-121068572D01*
X121947142Y-121140001D01*
X122018571Y-121282858D01*
X122018571Y-122068572D01*
X156210000Y-125730000D02*
X156210000Y-122603581D01*
X77470000Y-125730000D02*
X77470000Y-122603581D01*
X156210000Y-123190001D02*
X77470000Y-123190001D01*
X156210000Y-123190001D02*
X77470000Y-123190001D01*
X156210000Y-123190001D02*
X155083496Y-122603580D01*
X156210000Y-123190001D02*
X155083496Y-123776422D01*
X77470000Y-123190001D02*
X78596504Y-123776422D01*
X77470000Y-123190001D02*
X78596504Y-122603580D01*
X365678571Y-157292857D02*
X365678571Y-157150000D01*
X365750000Y-157007142D01*
X365821428Y-156935714D01*
X365964285Y-156864285D01*
X366250000Y-156792857D01*
X366607142Y-156792857D01*
X366892857Y-156864285D01*
X367035714Y-156935714D01*
X367107142Y-157007142D01*
X367178571Y-157150000D01*
X367178571Y-157292857D01*
X367107142Y-157435714D01*
X367035714Y-157507142D01*
X366892857Y-157578571D01*
X366607142Y-157650000D01*
X366250000Y-157650000D01*
X365964285Y-157578571D01*
X365821428Y-157507142D01*
X365750000Y-157435714D01*
X365678571Y-157292857D01*
X367035714Y-156150000D02*
X367107142Y-156078571D01*
X367178571Y-156150000D01*
X367107142Y-156221428D01*
X367035714Y-156150000D01*
X367178571Y-156150000D01*
X367178571Y-155364285D02*
X367178571Y-155078571D01*
X367107142Y-154935714D01*
X367035714Y-154864285D01*
X366821428Y-154721428D01*
X366535714Y-154650000D01*
X365964285Y-154650000D01*
X365821428Y-154721428D01*
X365750000Y-154792857D01*
X365678571Y-154935714D01*
X365678571Y-155221428D01*
X365750000Y-155364285D01*
X365821428Y-155435714D01*
X365964285Y-155507142D01*
X366321428Y-155507142D01*
X366464285Y-155435714D01*
X366535714Y-155364285D01*
X366607142Y-155221428D01*
X366607142Y-154935714D01*
X366535714Y-154792857D01*
X366464285Y-154721428D01*
X366321428Y-154650000D01*
X365678571Y-153721428D02*
X365678571Y-153578571D01*
X365750000Y-153435714D01*
X365821428Y-153364285D01*
X365964285Y-153292857D01*
X366250000Y-153221428D01*
X366607142Y-153221428D01*
X366892857Y-153292857D01*
X367035714Y-153364285D01*
X367107142Y-153435714D01*
X367178571Y-153578571D01*
X367178571Y-153721428D01*
X367107142Y-153864285D01*
X367035714Y-153935714D01*
X366892857Y-154007142D01*
X366607142Y-154078571D01*
X366250000Y-154078571D01*
X365964285Y-154007142D01*
X365821428Y-153935714D01*
X365750000Y-153864285D01*
X365678571Y-153721428D01*
X365678571Y-152292857D02*
X365678571Y-152150000D01*
X365750000Y-152007142D01*
X365821428Y-151935714D01*
X365964285Y-151864285D01*
X366250000Y-151792857D01*
X366607142Y-151792857D01*
X366892857Y-151864285D01*
X367035714Y-151935714D01*
X367107142Y-152007142D01*
X367178571Y-152150000D01*
X367178571Y-152292857D01*
X367107142Y-152435714D01*
X367035714Y-152507142D01*
X366892857Y-152578571D01*
X366607142Y-152650000D01*
X366250000Y-152650000D01*
X365964285Y-152578571D01*
X365821428Y-152507142D01*
X365750000Y-152435714D01*
X365678571Y-152292857D01*
X365678571Y-150864285D02*
X365678571Y-150721428D01*
X365750000Y-150578571D01*
X365821428Y-150507142D01*
X365964285Y-150435714D01*
X366250000Y-150364285D01*
X366607142Y-150364285D01*
X366892857Y-150435714D01*
X367035714Y-150507142D01*
X367107142Y-150578571D01*
X367178571Y-150721428D01*
X367178571Y-150864285D01*
X367107142Y-151007142D01*
X367035714Y-151078571D01*
X366892857Y-151150000D01*
X366607142Y-151221428D01*
X366250000Y-151221428D01*
X365964285Y-151150000D01*
X365821428Y-151078571D01*
X365750000Y-151007142D01*
X365678571Y-150864285D01*
X367178571Y-148578571D02*
X366178571Y-148578571D01*
X365678571Y-148578571D02*
X365750000Y-148650000D01*
X365821428Y-148578571D01*
X365750000Y-148507142D01*
X365678571Y-148578571D01*
X365821428Y-148578571D01*
X366178571Y-147864285D02*
X367178571Y-147864285D01*
X366321428Y-147864285D02*
X366250000Y-147792857D01*
X366178571Y-147650000D01*
X366178571Y-147435714D01*
X366250000Y-147292857D01*
X366392857Y-147221428D01*
X367178571Y-147221428D01*
X365760000Y-163830000D02*
X368886420Y-163830000D01*
X365760000Y-140970000D02*
X368886420Y-140970000D01*
X368300000Y-163830000D02*
X368300000Y-140970000D01*
X368300000Y-163830000D02*
X368300000Y-140970000D01*
X368300000Y-163830000D02*
X368886421Y-162703496D01*
X368300000Y-163830000D02*
X367713579Y-162703496D01*
X368300000Y-140970000D02*
X367713579Y-142096504D01*
X368300000Y-140970000D02*
X368886421Y-142096504D01*
X141157142Y-378378571D02*
X141300000Y-378378571D01*
X141442857Y-378450000D01*
X141514285Y-378521428D01*
X141585714Y-378664285D01*
X141657142Y-378950000D01*
X141657142Y-379307142D01*
X141585714Y-379592857D01*
X141514285Y-379735714D01*
X141442857Y-379807142D01*
X141300000Y-379878571D01*
X141157142Y-379878571D01*
X141014285Y-379807142D01*
X140942857Y-379735714D01*
X140871428Y-379592857D01*
X140800000Y-379307142D01*
X140800000Y-378950000D01*
X140871428Y-378664285D01*
X140942857Y-378521428D01*
X141014285Y-378450000D01*
X141157142Y-378378571D01*
X142300000Y-379735714D02*
X142371428Y-379807142D01*
X142300000Y-379878571D01*
X142228571Y-379807142D01*
X142300000Y-379735714D01*
X142300000Y-379878571D01*
X143228571Y-379021428D02*
X143085714Y-378950000D01*
X143014285Y-378878571D01*
X142942857Y-378735714D01*
X142942857Y-378664285D01*
X143014285Y-378521428D01*
X143085714Y-378450000D01*
X143228571Y-378378571D01*
X143514285Y-378378571D01*
X143657142Y-378450000D01*
X143728571Y-378521428D01*
X143800000Y-378664285D01*
X143800000Y-378735714D01*
X143728571Y-378878571D01*
X143657142Y-378950000D01*
X143514285Y-379021428D01*
X143228571Y-379021428D01*
X143085714Y-379092857D01*
X143014285Y-379164285D01*
X142942857Y-379307142D01*
X142942857Y-379592857D01*
X143014285Y-379735714D01*
X143085714Y-379807142D01*
X143228571Y-379878571D01*
X143514285Y-379878571D01*
X143657142Y-379807142D01*
X143728571Y-379735714D01*
X143800000Y-379592857D01*
X143800000Y-379307142D01*
X143728571Y-379164285D01*
X143657142Y-379092857D01*
X143514285Y-379021428D01*
X144728571Y-378378571D02*
X144871428Y-378378571D01*
X145014285Y-378450000D01*
X145085714Y-378521428D01*
X145157142Y-378664285D01*
X145228571Y-378950000D01*
X145228571Y-379307142D01*
X145157142Y-379592857D01*
X145085714Y-379735714D01*
X145014285Y-379807142D01*
X144871428Y-379878571D01*
X144728571Y-379878571D01*
X144585714Y-379807142D01*
X144514285Y-379735714D01*
X144442857Y-379592857D01*
X144371428Y-379307142D01*
X144371428Y-378950000D01*
X144442857Y-378664285D01*
X144514285Y-378521428D01*
X144585714Y-378450000D01*
X144728571Y-378378571D01*
X146157142Y-378378571D02*
X146300000Y-378378571D01*
X146442857Y-378450000D01*
X146514285Y-378521428D01*
X146585714Y-378664285D01*
X146657142Y-378950000D01*
X146657142Y-379307142D01*
X146585714Y-379592857D01*
X146514285Y-379735714D01*
X146442857Y-379807142D01*
X146300000Y-379878571D01*
X146157142Y-379878571D01*
X146014285Y-379807142D01*
X145942857Y-379735714D01*
X145871428Y-379592857D01*
X145800000Y-379307142D01*
X145800000Y-378950000D01*
X145871428Y-378664285D01*
X145942857Y-378521428D01*
X146014285Y-378450000D01*
X146157142Y-378378571D01*
X147585714Y-378378571D02*
X147728571Y-378378571D01*
X147871428Y-378450000D01*
X147942857Y-378521428D01*
X148014285Y-378664285D01*
X148085714Y-378950000D01*
X148085714Y-379307142D01*
X148014285Y-379592857D01*
X147942857Y-379735714D01*
X147871428Y-379807142D01*
X147728571Y-379878571D01*
X147585714Y-379878571D01*
X147442857Y-379807142D01*
X147371428Y-379735714D01*
X147300000Y-379592857D01*
X147228571Y-379307142D01*
X147228571Y-378950000D01*
X147300000Y-378664285D01*
X147371428Y-378521428D01*
X147442857Y-378450000D01*
X147585714Y-378378571D01*
X149871428Y-379878571D02*
X149871428Y-378878571D01*
X149871428Y-378378571D02*
X149800000Y-378450000D01*
X149871428Y-378521428D01*
X149942857Y-378450000D01*
X149871428Y-378378571D01*
X149871428Y-378521428D01*
X150585714Y-378878571D02*
X150585714Y-379878571D01*
X150585714Y-379021428D02*
X150657142Y-378950000D01*
X150800000Y-378878571D01*
X151014285Y-378878571D01*
X151157142Y-378950000D01*
X151228571Y-379092857D01*
X151228571Y-379878571D01*
X135890000Y-374650000D02*
X135890000Y-381586420D01*
X156210000Y-374650000D02*
X156210000Y-381586420D01*
X135890000Y-381000000D02*
X156210000Y-381000000D01*
X135890000Y-381000000D02*
X156210000Y-381000000D01*
X135890000Y-381000000D02*
X137016504Y-381586421D01*
X135890000Y-381000000D02*
X137016504Y-380413579D01*
X156210000Y-381000000D02*
X155083496Y-380413579D01*
X156210000Y-381000000D02*
X155083496Y-381586421D01*
X135164285Y-115988571D02*
X135164285Y-116988571D01*
X134807142Y-115417142D02*
X134450000Y-116488571D01*
X135378571Y-116488571D01*
X135950000Y-116845714D02*
X136021428Y-116917142D01*
X135950000Y-116988571D01*
X135878571Y-116917142D01*
X135950000Y-116845714D01*
X135950000Y-116988571D01*
X136735714Y-116988571D02*
X137021428Y-116988571D01*
X137164285Y-116917142D01*
X137235714Y-116845714D01*
X137378571Y-116631428D01*
X137450000Y-116345714D01*
X137450000Y-115774285D01*
X137378571Y-115631428D01*
X137307142Y-115560000D01*
X137164285Y-115488571D01*
X136878571Y-115488571D01*
X136735714Y-115560000D01*
X136664285Y-115631428D01*
X136592857Y-115774285D01*
X136592857Y-116131428D01*
X136664285Y-116274285D01*
X136735714Y-116345714D01*
X136878571Y-116417142D01*
X137164285Y-116417142D01*
X137307142Y-116345714D01*
X137378571Y-116274285D01*
X137450000Y-116131428D01*
X138378571Y-115488571D02*
X138521428Y-115488571D01*
X138664285Y-115560000D01*
X138735714Y-115631428D01*
X138807142Y-115774285D01*
X138878571Y-116060000D01*
X138878571Y-116417142D01*
X138807142Y-116702857D01*
X138735714Y-116845714D01*
X138664285Y-116917142D01*
X138521428Y-116988571D01*
X138378571Y-116988571D01*
X138235714Y-116917142D01*
X138164285Y-116845714D01*
X138092857Y-116702857D01*
X138021428Y-116417142D01*
X138021428Y-116060000D01*
X138092857Y-115774285D01*
X138164285Y-115631428D01*
X138235714Y-115560000D01*
X138378571Y-115488571D01*
X139807142Y-115488571D02*
X139950000Y-115488571D01*
X140092857Y-115560000D01*
X140164285Y-115631428D01*
X140235714Y-115774285D01*
X140307142Y-116060000D01*
X140307142Y-116417142D01*
X140235714Y-116702857D01*
X140164285Y-116845714D01*
X140092857Y-116917142D01*
X139950000Y-116988571D01*
X139807142Y-116988571D01*
X139664285Y-116917142D01*
X139592857Y-116845714D01*
X139521428Y-116702857D01*
X139450000Y-116417142D01*
X139450000Y-116060000D01*
X139521428Y-115774285D01*
X139592857Y-115631428D01*
X139664285Y-115560000D01*
X139807142Y-115488571D01*
X141235714Y-115488571D02*
X141378571Y-115488571D01*
X141521428Y-115560000D01*
X141592857Y-115631428D01*
X141664285Y-115774285D01*
X141735714Y-116060000D01*
X141735714Y-116417142D01*
X141664285Y-116702857D01*
X141592857Y-116845714D01*
X141521428Y-116917142D01*
X141378571Y-116988571D01*
X141235714Y-116988571D01*
X141092857Y-116917142D01*
X141021428Y-116845714D01*
X140950000Y-116702857D01*
X140878571Y-116417142D01*
X140878571Y-116060000D01*
X140950000Y-115774285D01*
X141021428Y-115631428D01*
X141092857Y-115560000D01*
X141235714Y-115488571D01*
X143521428Y-116988571D02*
X143521428Y-115988571D01*
X143521428Y-115488571D02*
X143450000Y-115560000D01*
X143521428Y-115631428D01*
X143592857Y-115560000D01*
X143521428Y-115488571D01*
X143521428Y-115631428D01*
X144235714Y-115988571D02*
X144235714Y-116988571D01*
X144235714Y-116131428D02*
X144307142Y-116060000D01*
X144450000Y-115988571D01*
X144664285Y-115988571D01*
X144807142Y-116060000D01*
X144878571Y-116202857D01*
X144878571Y-116988571D01*
X201930000Y-120650000D02*
X201930000Y-117523580D01*
X77470000Y-120650000D02*
X77470000Y-117523580D01*
X201930000Y-118110000D02*
X77470000Y-118110000D01*
X201930000Y-118110000D02*
X77470000Y-118110000D01*
X201930000Y-118110000D02*
X200803496Y-117523579D01*
X201930000Y-118110000D02*
X200803496Y-118696421D01*
X77470000Y-118110000D02*
X78596504Y-118696421D01*
X77470000Y-118110000D02*
X78596504Y-117523579D01*
X104058571Y-222975714D02*
X104058571Y-223261428D01*
X104130000Y-223404285D01*
X104201428Y-223475714D01*
X104415714Y-223618571D01*
X104701428Y-223690000D01*
X105272857Y-223690000D01*
X105415714Y-223618571D01*
X105487142Y-223547142D01*
X105558571Y-223404285D01*
X105558571Y-223118571D01*
X105487142Y-222975714D01*
X105415714Y-222904285D01*
X105272857Y-222832857D01*
X104915714Y-222832857D01*
X104772857Y-222904285D01*
X104701428Y-222975714D01*
X104630000Y-223118571D01*
X104630000Y-223404285D01*
X104701428Y-223547142D01*
X104772857Y-223618571D01*
X104915714Y-223690000D01*
X105415714Y-222190000D02*
X105487142Y-222118571D01*
X105558571Y-222190000D01*
X105487142Y-222261428D01*
X105415714Y-222190000D01*
X105558571Y-222190000D01*
X105558571Y-220690000D02*
X105558571Y-221547142D01*
X105558571Y-221118571D02*
X104058571Y-221118571D01*
X104272857Y-221261428D01*
X104415714Y-221404285D01*
X104487142Y-221547142D01*
X104058571Y-219761428D02*
X104058571Y-219618571D01*
X104130000Y-219475714D01*
X104201428Y-219404285D01*
X104344285Y-219332857D01*
X104630000Y-219261428D01*
X104987142Y-219261428D01*
X105272857Y-219332857D01*
X105415714Y-219404285D01*
X105487142Y-219475714D01*
X105558571Y-219618571D01*
X105558571Y-219761428D01*
X105487142Y-219904285D01*
X105415714Y-219975714D01*
X105272857Y-220047142D01*
X104987142Y-220118571D01*
X104630000Y-220118571D01*
X104344285Y-220047142D01*
X104201428Y-219975714D01*
X104130000Y-219904285D01*
X104058571Y-219761428D01*
X104058571Y-218332857D02*
X104058571Y-218190000D01*
X104130000Y-218047142D01*
X104201428Y-217975714D01*
X104344285Y-217904285D01*
X104630000Y-217832857D01*
X104987142Y-217832857D01*
X105272857Y-217904285D01*
X105415714Y-217975714D01*
X105487142Y-218047142D01*
X105558571Y-218190000D01*
X105558571Y-218332857D01*
X105487142Y-218475714D01*
X105415714Y-218547142D01*
X105272857Y-218618571D01*
X104987142Y-218690000D01*
X104630000Y-218690000D01*
X104344285Y-218618571D01*
X104201428Y-218547142D01*
X104130000Y-218475714D01*
X104058571Y-218332857D01*
X104058571Y-216904285D02*
X104058571Y-216761428D01*
X104130000Y-216618571D01*
X104201428Y-216547142D01*
X104344285Y-216475714D01*
X104630000Y-216404285D01*
X104987142Y-216404285D01*
X105272857Y-216475714D01*
X105415714Y-216547142D01*
X105487142Y-216618571D01*
X105558571Y-216761428D01*
X105558571Y-216904285D01*
X105487142Y-217047142D01*
X105415714Y-217118571D01*
X105272857Y-217190000D01*
X104987142Y-217261428D01*
X104630000Y-217261428D01*
X104344285Y-217190000D01*
X104201428Y-217118571D01*
X104130000Y-217047142D01*
X104058571Y-216904285D01*
X105558571Y-214618571D02*
X104558571Y-214618571D01*
X104058571Y-214618571D02*
X104130000Y-214690000D01*
X104201428Y-214618571D01*
X104130000Y-214547142D01*
X104058571Y-214618571D01*
X104201428Y-214618571D01*
X104558571Y-213904285D02*
X105558571Y-213904285D01*
X104701428Y-213904285D02*
X104630000Y-213832857D01*
X104558571Y-213690000D01*
X104558571Y-213475714D01*
X104630000Y-213332857D01*
X104772857Y-213261428D01*
X105558571Y-213261428D01*
X121920000Y-295910000D02*
X106093580Y-295910000D01*
X121920000Y-140970000D02*
X106093580Y-140970000D01*
X106680000Y-295910000D02*
X106680000Y-140970000D01*
X106680000Y-295910000D02*
X106680000Y-140970000D01*
X106680000Y-295910000D02*
X107266421Y-294783496D01*
X106680000Y-295910000D02*
X106093579Y-294783496D01*
X106680000Y-140970000D02*
X106093579Y-142096504D01*
X106680000Y-140970000D02*
X107266421Y-142096504D01*
X64322142Y-120568572D02*
X64465000Y-120568572D01*
X64607857Y-120640001D01*
X64679285Y-120711429D01*
X64750714Y-120854286D01*
X64822142Y-121140001D01*
X64822142Y-121497143D01*
X64750714Y-121782858D01*
X64679285Y-121925715D01*
X64607857Y-121997143D01*
X64465000Y-122068572D01*
X64322142Y-122068572D01*
X64179285Y-121997143D01*
X64107857Y-121925715D01*
X64036428Y-121782858D01*
X63965000Y-121497143D01*
X63965000Y-121140001D01*
X64036428Y-120854286D01*
X64107857Y-120711429D01*
X64179285Y-120640001D01*
X64322142Y-120568572D01*
X65465000Y-121925715D02*
X65536428Y-121997143D01*
X65465000Y-122068572D01*
X65393571Y-121997143D01*
X65465000Y-121925715D01*
X65465000Y-122068572D01*
X66822142Y-120568572D02*
X66536428Y-120568572D01*
X66393571Y-120640001D01*
X66322142Y-120711429D01*
X66179285Y-120925715D01*
X66107857Y-121211429D01*
X66107857Y-121782858D01*
X66179285Y-121925715D01*
X66250714Y-121997143D01*
X66393571Y-122068572D01*
X66679285Y-122068572D01*
X66822142Y-121997143D01*
X66893571Y-121925715D01*
X66965000Y-121782858D01*
X66965000Y-121425715D01*
X66893571Y-121282858D01*
X66822142Y-121211429D01*
X66679285Y-121140001D01*
X66393571Y-121140001D01*
X66250714Y-121211429D01*
X66179285Y-121282858D01*
X66107857Y-121425715D01*
X68322142Y-120568572D02*
X67607857Y-120568572D01*
X67536428Y-121282858D01*
X67607857Y-121211429D01*
X67750714Y-121140001D01*
X68107857Y-121140001D01*
X68250714Y-121211429D01*
X68322142Y-121282858D01*
X68393571Y-121425715D01*
X68393571Y-121782858D01*
X68322142Y-121925715D01*
X68250714Y-121997143D01*
X68107857Y-122068572D01*
X67750714Y-122068572D01*
X67607857Y-121997143D01*
X67536428Y-121925715D01*
X69322142Y-120568572D02*
X69465000Y-120568572D01*
X69607857Y-120640001D01*
X69679285Y-120711429D01*
X69750714Y-120854286D01*
X69822142Y-121140001D01*
X69822142Y-121497143D01*
X69750714Y-121782858D01*
X69679285Y-121925715D01*
X69607857Y-121997143D01*
X69465000Y-122068572D01*
X69322142Y-122068572D01*
X69179285Y-121997143D01*
X69107857Y-121925715D01*
X69036428Y-121782858D01*
X68965000Y-121497143D01*
X68965000Y-121140001D01*
X69036428Y-120854286D01*
X69107857Y-120711429D01*
X69179285Y-120640001D01*
X69322142Y-120568572D01*
X70750714Y-120568572D02*
X70893571Y-120568572D01*
X71036428Y-120640001D01*
X71107857Y-120711429D01*
X71179285Y-120854286D01*
X71250714Y-121140001D01*
X71250714Y-121497143D01*
X71179285Y-121782858D01*
X71107857Y-121925715D01*
X71036428Y-121997143D01*
X70893571Y-122068572D01*
X70750714Y-122068572D01*
X70607857Y-121997143D01*
X70536428Y-121925715D01*
X70465000Y-121782858D01*
X70393571Y-121497143D01*
X70393571Y-121140001D01*
X70465000Y-120854286D01*
X70536428Y-120711429D01*
X70607857Y-120640001D01*
X70750714Y-120568572D01*
X73036428Y-122068572D02*
X73036428Y-121068572D01*
X73036428Y-120568572D02*
X72965000Y-120640001D01*
X73036428Y-120711429D01*
X73107857Y-120640001D01*
X73036428Y-120568572D01*
X73036428Y-120711429D01*
X73750714Y-121068572D02*
X73750714Y-122068572D01*
X73750714Y-121211429D02*
X73822142Y-121140001D01*
X73965000Y-121068572D01*
X74179285Y-121068572D01*
X74322142Y-121140001D01*
X74393571Y-121282858D01*
X74393571Y-122068572D01*
X77470000Y-125730000D02*
X77470000Y-122603581D01*
X60960000Y-125730000D02*
X60960000Y-122603581D01*
X77470000Y-123190001D02*
X60960000Y-123190001D01*
X77470000Y-123190001D02*
X60960000Y-123190001D01*
X77470000Y-123190001D02*
X76343496Y-122603580D01*
X77470000Y-123190001D02*
X76343496Y-123776422D01*
X60960000Y-123190001D02*
X62086504Y-123776422D01*
X60960000Y-123190001D02*
X62086504Y-122603580D01*
X208252857Y-376068571D02*
X207395714Y-376068571D01*
X207824285Y-376068571D02*
X207824285Y-374568571D01*
X207681428Y-374782857D01*
X207538571Y-374925714D01*
X207395714Y-374997142D01*
X208824285Y-374711428D02*
X208895714Y-374640000D01*
X209038571Y-374568571D01*
X209395714Y-374568571D01*
X209538571Y-374640000D01*
X209610000Y-374711428D01*
X209681428Y-374854285D01*
X209681428Y-374997142D01*
X209610000Y-375211428D01*
X208752857Y-376068571D01*
X209681428Y-376068571D01*
X210324285Y-375925714D02*
X210395714Y-375997142D01*
X210324285Y-376068571D01*
X210252857Y-375997142D01*
X210324285Y-375925714D01*
X210324285Y-376068571D01*
X211324285Y-374568571D02*
X211467142Y-374568571D01*
X211610000Y-374640000D01*
X211681428Y-374711428D01*
X211752857Y-374854285D01*
X211824285Y-375140000D01*
X211824285Y-375497142D01*
X211752857Y-375782857D01*
X211681428Y-375925714D01*
X211610000Y-375997142D01*
X211467142Y-376068571D01*
X211324285Y-376068571D01*
X211181428Y-375997142D01*
X211110000Y-375925714D01*
X211038571Y-375782857D01*
X210967142Y-375497142D01*
X210967142Y-375140000D01*
X211038571Y-374854285D01*
X211110000Y-374711428D01*
X211181428Y-374640000D01*
X211324285Y-374568571D01*
X212752857Y-374568571D02*
X212895714Y-374568571D01*
X213038571Y-374640000D01*
X213110000Y-374711428D01*
X213181428Y-374854285D01*
X213252857Y-375140000D01*
X213252857Y-375497142D01*
X213181428Y-375782857D01*
X213110000Y-375925714D01*
X213038571Y-375997142D01*
X212895714Y-376068571D01*
X212752857Y-376068571D01*
X212610000Y-375997142D01*
X212538571Y-375925714D01*
X212467142Y-375782857D01*
X212395714Y-375497142D01*
X212395714Y-375140000D01*
X212467142Y-374854285D01*
X212538571Y-374711428D01*
X212610000Y-374640000D01*
X212752857Y-374568571D01*
X214181428Y-374568571D02*
X214324285Y-374568571D01*
X214467142Y-374640000D01*
X214538571Y-374711428D01*
X214610000Y-374854285D01*
X214681428Y-375140000D01*
X214681428Y-375497142D01*
X214610000Y-375782857D01*
X214538571Y-375925714D01*
X214467142Y-375997142D01*
X214324285Y-376068571D01*
X214181428Y-376068571D01*
X214038571Y-375997142D01*
X213967142Y-375925714D01*
X213895714Y-375782857D01*
X213824285Y-375497142D01*
X213824285Y-375140000D01*
X213895714Y-374854285D01*
X213967142Y-374711428D01*
X214038571Y-374640000D01*
X214181428Y-374568571D01*
X215610000Y-374568571D02*
X215752857Y-374568571D01*
X215895714Y-374640000D01*
X215967142Y-374711428D01*
X216038571Y-374854285D01*
X216110000Y-375140000D01*
X216110000Y-375497142D01*
X216038571Y-375782857D01*
X215967142Y-375925714D01*
X215895714Y-375997142D01*
X215752857Y-376068571D01*
X215610000Y-376068571D01*
X215467142Y-375997142D01*
X215395714Y-375925714D01*
X215324285Y-375782857D01*
X215252857Y-375497142D01*
X215252857Y-375140000D01*
X215324285Y-374854285D01*
X215395714Y-374711428D01*
X215467142Y-374640000D01*
X215610000Y-374568571D01*
X217895714Y-376068571D02*
X217895714Y-375068571D01*
X217895714Y-374568571D02*
X217824285Y-374640000D01*
X217895714Y-374711428D01*
X217967142Y-374640000D01*
X217895714Y-374568571D01*
X217895714Y-374711428D01*
X218610000Y-375068571D02*
X218610000Y-376068571D01*
X218610000Y-375211428D02*
X218681428Y-375140000D01*
X218824285Y-375068571D01*
X219038571Y-375068571D01*
X219181428Y-375140000D01*
X219252857Y-375282857D01*
X219252857Y-376068571D01*
X365760000Y-374650000D02*
X365760000Y-377776420D01*
X60960000Y-374650000D02*
X60960000Y-377776420D01*
X365760000Y-377190000D02*
X60960000Y-377190000D01*
X365760000Y-377190000D02*
X60960000Y-377190000D01*
X365760000Y-377190000D02*
X364633496Y-376603579D01*
X365760000Y-377190000D02*
X364633496Y-377776421D01*
X60960000Y-377190000D02*
X62086504Y-377776421D01*
X60960000Y-377190000D02*
X62086504Y-376603579D01*
X238732857Y-101748571D02*
X239018571Y-101748571D01*
X239161428Y-101677142D01*
X239232857Y-101605714D01*
X239375714Y-101391428D01*
X239447142Y-101105714D01*
X239447142Y-100534285D01*
X239375714Y-100391428D01*
X239304285Y-100320000D01*
X239161428Y-100248571D01*
X238875714Y-100248571D01*
X238732857Y-100320000D01*
X238661428Y-100391428D01*
X238590000Y-100534285D01*
X238590000Y-100891428D01*
X238661428Y-101034285D01*
X238732857Y-101105714D01*
X238875714Y-101177142D01*
X239161428Y-101177142D01*
X239304285Y-101105714D01*
X239375714Y-101034285D01*
X239447142Y-100891428D01*
X240090000Y-101605714D02*
X240161428Y-101677142D01*
X240090000Y-101748571D01*
X240018571Y-101677142D01*
X240090000Y-101605714D01*
X240090000Y-101748571D01*
X241447142Y-100248571D02*
X241161428Y-100248571D01*
X241018571Y-100320000D01*
X240947142Y-100391428D01*
X240804285Y-100605714D01*
X240732857Y-100891428D01*
X240732857Y-101462857D01*
X240804285Y-101605714D01*
X240875714Y-101677142D01*
X241018571Y-101748571D01*
X241304285Y-101748571D01*
X241447142Y-101677142D01*
X241518571Y-101605714D01*
X241590000Y-101462857D01*
X241590000Y-101105714D01*
X241518571Y-100962857D01*
X241447142Y-100891428D01*
X241304285Y-100820000D01*
X241018571Y-100820000D01*
X240875714Y-100891428D01*
X240804285Y-100962857D01*
X240732857Y-101105714D01*
X242518571Y-100248571D02*
X242661428Y-100248571D01*
X242804285Y-100320000D01*
X242875714Y-100391428D01*
X242947142Y-100534285D01*
X243018571Y-100820000D01*
X243018571Y-101177142D01*
X242947142Y-101462857D01*
X242875714Y-101605714D01*
X242804285Y-101677142D01*
X242661428Y-101748571D01*
X242518571Y-101748571D01*
X242375714Y-101677142D01*
X242304285Y-101605714D01*
X242232857Y-101462857D01*
X242161428Y-101177142D01*
X242161428Y-100820000D01*
X242232857Y-100534285D01*
X242304285Y-100391428D01*
X242375714Y-100320000D01*
X242518571Y-100248571D01*
X243947142Y-100248571D02*
X244090000Y-100248571D01*
X244232857Y-100320000D01*
X244304285Y-100391428D01*
X244375714Y-100534285D01*
X244447142Y-100820000D01*
X244447142Y-101177142D01*
X244375714Y-101462857D01*
X244304285Y-101605714D01*
X244232857Y-101677142D01*
X244090000Y-101748571D01*
X243947142Y-101748571D01*
X243804285Y-101677142D01*
X243732857Y-101605714D01*
X243661428Y-101462857D01*
X243590000Y-101177142D01*
X243590000Y-100820000D01*
X243661428Y-100534285D01*
X243732857Y-100391428D01*
X243804285Y-100320000D01*
X243947142Y-100248571D01*
X245375714Y-100248571D02*
X245518571Y-100248571D01*
X245661428Y-100320000D01*
X245732857Y-100391428D01*
X245804285Y-100534285D01*
X245875714Y-100820000D01*
X245875714Y-101177142D01*
X245804285Y-101462857D01*
X245732857Y-101605714D01*
X245661428Y-101677142D01*
X245518571Y-101748571D01*
X245375714Y-101748571D01*
X245232857Y-101677142D01*
X245161428Y-101605714D01*
X245090000Y-101462857D01*
X245018571Y-101177142D01*
X245018571Y-100820000D01*
X245090000Y-100534285D01*
X245161428Y-100391428D01*
X245232857Y-100320000D01*
X245375714Y-100248571D01*
X247661428Y-101748571D02*
X247661428Y-100748571D01*
X247661428Y-100248571D02*
X247590000Y-100320000D01*
X247661428Y-100391428D01*
X247732857Y-100320000D01*
X247661428Y-100248571D01*
X247661428Y-100391428D01*
X248375714Y-100748571D02*
X248375714Y-101748571D01*
X248375714Y-100891428D02*
X248447142Y-100820000D01*
X248590000Y-100748571D01*
X248804285Y-100748571D01*
X248947142Y-100820000D01*
X249018571Y-100962857D01*
X249018571Y-101748571D01*
X121920000Y-130810000D02*
X121920000Y-102283580D01*
X365760000Y-130810000D02*
X365760000Y-102283580D01*
X121920000Y-102870000D02*
X365760000Y-102870000D01*
X121920000Y-102870000D02*
X365760000Y-102870000D01*
X121920000Y-102870000D02*
X123046504Y-103456421D01*
X121920000Y-102870000D02*
X123046504Y-102283579D01*
X365760000Y-102870000D02*
X364633496Y-102283579D01*
X365760000Y-102870000D02*
X364633496Y-103456421D01*
X284389285Y-105328571D02*
X284103571Y-105328571D01*
X283960714Y-105400000D01*
X283889285Y-105471428D01*
X283746428Y-105685714D01*
X283675000Y-105971428D01*
X283675000Y-106542857D01*
X283746428Y-106685714D01*
X283817857Y-106757142D01*
X283960714Y-106828571D01*
X284246428Y-106828571D01*
X284389285Y-106757142D01*
X284460714Y-106685714D01*
X284532142Y-106542857D01*
X284532142Y-106185714D01*
X284460714Y-106042857D01*
X284389285Y-105971428D01*
X284246428Y-105900000D01*
X283960714Y-105900000D01*
X283817857Y-105971428D01*
X283746428Y-106042857D01*
X283675000Y-106185714D01*
X285175000Y-106685714D02*
X285246428Y-106757142D01*
X285175000Y-106828571D01*
X285103571Y-106757142D01*
X285175000Y-106685714D01*
X285175000Y-106828571D01*
X285817857Y-105471428D02*
X285889285Y-105400000D01*
X286032142Y-105328571D01*
X286389285Y-105328571D01*
X286532142Y-105400000D01*
X286603571Y-105471428D01*
X286675000Y-105614285D01*
X286675000Y-105757142D01*
X286603571Y-105971428D01*
X285746428Y-106828571D01*
X286675000Y-106828571D01*
X288032142Y-105328571D02*
X287317857Y-105328571D01*
X287246428Y-106042857D01*
X287317857Y-105971428D01*
X287460714Y-105900000D01*
X287817857Y-105900000D01*
X287960714Y-105971428D01*
X288032142Y-106042857D01*
X288103571Y-106185714D01*
X288103571Y-106542857D01*
X288032142Y-106685714D01*
X287960714Y-106757142D01*
X287817857Y-106828571D01*
X287460714Y-106828571D01*
X287317857Y-106757142D01*
X287246428Y-106685714D01*
X289032142Y-105328571D02*
X289175000Y-105328571D01*
X289317857Y-105400000D01*
X289389285Y-105471428D01*
X289460714Y-105614285D01*
X289532142Y-105900000D01*
X289532142Y-106257142D01*
X289460714Y-106542857D01*
X289389285Y-106685714D01*
X289317857Y-106757142D01*
X289175000Y-106828571D01*
X289032142Y-106828571D01*
X288889285Y-106757142D01*
X288817857Y-106685714D01*
X288746428Y-106542857D01*
X288675000Y-106257142D01*
X288675000Y-105900000D01*
X288746428Y-105614285D01*
X288817857Y-105471428D01*
X288889285Y-105400000D01*
X289032142Y-105328571D01*
X290460714Y-105328571D02*
X290603571Y-105328571D01*
X290746428Y-105400000D01*
X290817857Y-105471428D01*
X290889285Y-105614285D01*
X290960714Y-105900000D01*
X290960714Y-106257142D01*
X290889285Y-106542857D01*
X290817857Y-106685714D01*
X290746428Y-106757142D01*
X290603571Y-106828571D01*
X290460714Y-106828571D01*
X290317857Y-106757142D01*
X290246428Y-106685714D01*
X290175000Y-106542857D01*
X290103571Y-106257142D01*
X290103571Y-105900000D01*
X290175000Y-105614285D01*
X290246428Y-105471428D01*
X290317857Y-105400000D01*
X290460714Y-105328571D01*
X292746428Y-106828571D02*
X292746428Y-105828571D01*
X292746428Y-105328571D02*
X292675000Y-105400000D01*
X292746428Y-105471428D01*
X292817857Y-105400000D01*
X292746428Y-105328571D01*
X292746428Y-105471428D01*
X293460714Y-105828571D02*
X293460714Y-106828571D01*
X293460714Y-105971428D02*
X293532142Y-105900000D01*
X293675000Y-105828571D01*
X293889285Y-105828571D01*
X294032142Y-105900000D01*
X294103571Y-106042857D01*
X294103571Y-106828571D01*
X368300000Y-110490000D02*
X368300000Y-107363580D01*
X209550000Y-110490000D02*
X209550000Y-107363580D01*
X368300000Y-107950000D02*
X209550000Y-107950000D01*
X368300000Y-107950000D02*
X209550000Y-107950000D01*
X368300000Y-107950000D02*
X367173496Y-107363579D01*
X368300000Y-107950000D02*
X367173496Y-108536421D01*
X209550000Y-107950000D02*
X210676504Y-108536421D01*
X209550000Y-107950000D02*
X210676504Y-107363579D01*
X50718571Y-140782857D02*
X50718571Y-140640000D01*
X50790000Y-140497142D01*
X50861428Y-140425714D01*
X51004285Y-140354285D01*
X51290000Y-140282857D01*
X51647142Y-140282857D01*
X51932857Y-140354285D01*
X52075714Y-140425714D01*
X52147142Y-140497142D01*
X52218571Y-140640000D01*
X52218571Y-140782857D01*
X52147142Y-140925714D01*
X52075714Y-140997142D01*
X51932857Y-141068571D01*
X51647142Y-141140000D01*
X51290000Y-141140000D01*
X51004285Y-141068571D01*
X50861428Y-140997142D01*
X50790000Y-140925714D01*
X50718571Y-140782857D01*
X52075714Y-139640000D02*
X52147142Y-139568571D01*
X52218571Y-139640000D01*
X52147142Y-139711428D01*
X52075714Y-139640000D01*
X52218571Y-139640000D01*
X51218571Y-138282857D02*
X52218571Y-138282857D01*
X50647142Y-138640000D02*
X51718571Y-138997142D01*
X51718571Y-138068571D01*
X50718571Y-137211428D02*
X50718571Y-137068571D01*
X50790000Y-136925714D01*
X50861428Y-136854285D01*
X51004285Y-136782857D01*
X51290000Y-136711428D01*
X51647142Y-136711428D01*
X51932857Y-136782857D01*
X52075714Y-136854285D01*
X52147142Y-136925714D01*
X52218571Y-137068571D01*
X52218571Y-137211428D01*
X52147142Y-137354285D01*
X52075714Y-137425714D01*
X51932857Y-137497142D01*
X51647142Y-137568571D01*
X51290000Y-137568571D01*
X51004285Y-137497142D01*
X50861428Y-137425714D01*
X50790000Y-137354285D01*
X50718571Y-137211428D01*
X50718571Y-135782857D02*
X50718571Y-135640000D01*
X50790000Y-135497142D01*
X50861428Y-135425714D01*
X51004285Y-135354285D01*
X51290000Y-135282857D01*
X51647142Y-135282857D01*
X51932857Y-135354285D01*
X52075714Y-135425714D01*
X52147142Y-135497142D01*
X52218571Y-135640000D01*
X52218571Y-135782857D01*
X52147142Y-135925714D01*
X52075714Y-135997142D01*
X51932857Y-136068571D01*
X51647142Y-136140000D01*
X51290000Y-136140000D01*
X51004285Y-136068571D01*
X50861428Y-135997142D01*
X50790000Y-135925714D01*
X50718571Y-135782857D01*
X50718571Y-134354285D02*
X50718571Y-134211428D01*
X50790000Y-134068571D01*
X50861428Y-133997142D01*
X51004285Y-133925714D01*
X51290000Y-133854285D01*
X51647142Y-133854285D01*
X51932857Y-133925714D01*
X52075714Y-133997142D01*
X52147142Y-134068571D01*
X52218571Y-134211428D01*
X52218571Y-134354285D01*
X52147142Y-134497142D01*
X52075714Y-134568571D01*
X51932857Y-134640000D01*
X51647142Y-134711428D01*
X51290000Y-134711428D01*
X51004285Y-134640000D01*
X50861428Y-134568571D01*
X50790000Y-134497142D01*
X50718571Y-134354285D01*
X52218571Y-132068571D02*
X51218571Y-132068571D01*
X50718571Y-132068571D02*
X50790000Y-132140000D01*
X50861428Y-132068571D01*
X50790000Y-131997142D01*
X50718571Y-132068571D01*
X50861428Y-132068571D01*
X51218571Y-131354285D02*
X52218571Y-131354285D01*
X51361428Y-131354285D02*
X51290000Y-131282857D01*
X51218571Y-131140000D01*
X51218571Y-130925714D01*
X51290000Y-130782857D01*
X51432857Y-130711428D01*
X52218571Y-130711428D01*
X55880000Y-140970000D02*
X52753580Y-140970000D01*
X55880000Y-130810000D02*
X52753580Y-130810000D01*
X53340000Y-140970000D02*
X53340000Y-130810000D01*
X53340000Y-140970000D02*
X53340000Y-130810000D01*
X53340000Y-140970000D02*
X53926421Y-139843496D01*
X53340000Y-140970000D02*
X52753579Y-139843496D01*
X53340000Y-130810000D02*
X52753579Y-131936504D01*
X53340000Y-130810000D02*
X53926421Y-131936504D01*
X205658571Y-143322857D02*
X205658571Y-143180000D01*
X205730000Y-143037142D01*
X205801428Y-142965714D01*
X205944285Y-142894285D01*
X206230000Y-142822857D01*
X206587142Y-142822857D01*
X206872857Y-142894285D01*
X207015714Y-142965714D01*
X207087142Y-143037142D01*
X207158571Y-143180000D01*
X207158571Y-143322857D01*
X207087142Y-143465714D01*
X207015714Y-143537142D01*
X206872857Y-143608571D01*
X206587142Y-143680000D01*
X206230000Y-143680000D01*
X205944285Y-143608571D01*
X205801428Y-143537142D01*
X205730000Y-143465714D01*
X205658571Y-143322857D01*
X207015714Y-142180000D02*
X207087142Y-142108571D01*
X207158571Y-142180000D01*
X207087142Y-142251428D01*
X207015714Y-142180000D01*
X207158571Y-142180000D01*
X205658571Y-140822857D02*
X205658571Y-141108571D01*
X205730000Y-141251428D01*
X205801428Y-141322857D01*
X206015714Y-141465714D01*
X206301428Y-141537142D01*
X206872857Y-141537142D01*
X207015714Y-141465714D01*
X207087142Y-141394285D01*
X207158571Y-141251428D01*
X207158571Y-140965714D01*
X207087142Y-140822857D01*
X207015714Y-140751428D01*
X206872857Y-140680000D01*
X206515714Y-140680000D01*
X206372857Y-140751428D01*
X206301428Y-140822857D01*
X206230000Y-140965714D01*
X206230000Y-141251428D01*
X206301428Y-141394285D01*
X206372857Y-141465714D01*
X206515714Y-141537142D01*
X205658571Y-139751428D02*
X205658571Y-139608571D01*
X205730000Y-139465714D01*
X205801428Y-139394285D01*
X205944285Y-139322857D01*
X206230000Y-139251428D01*
X206587142Y-139251428D01*
X206872857Y-139322857D01*
X207015714Y-139394285D01*
X207087142Y-139465714D01*
X207158571Y-139608571D01*
X207158571Y-139751428D01*
X207087142Y-139894285D01*
X207015714Y-139965714D01*
X206872857Y-140037142D01*
X206587142Y-140108571D01*
X206230000Y-140108571D01*
X205944285Y-140037142D01*
X205801428Y-139965714D01*
X205730000Y-139894285D01*
X205658571Y-139751428D01*
X205658571Y-138322857D02*
X205658571Y-138180000D01*
X205730000Y-138037142D01*
X205801428Y-137965714D01*
X205944285Y-137894285D01*
X206230000Y-137822857D01*
X206587142Y-137822857D01*
X206872857Y-137894285D01*
X207015714Y-137965714D01*
X207087142Y-138037142D01*
X207158571Y-138180000D01*
X207158571Y-138322857D01*
X207087142Y-138465714D01*
X207015714Y-138537142D01*
X206872857Y-138608571D01*
X206587142Y-138680000D01*
X206230000Y-138680000D01*
X205944285Y-138608571D01*
X205801428Y-138537142D01*
X205730000Y-138465714D01*
X205658571Y-138322857D01*
X205658571Y-136894285D02*
X205658571Y-136751428D01*
X205730000Y-136608571D01*
X205801428Y-136537142D01*
X205944285Y-136465714D01*
X206230000Y-136394285D01*
X206587142Y-136394285D01*
X206872857Y-136465714D01*
X207015714Y-136537142D01*
X207087142Y-136608571D01*
X207158571Y-136751428D01*
X207158571Y-136894285D01*
X207087142Y-137037142D01*
X207015714Y-137108571D01*
X206872857Y-137180000D01*
X206587142Y-137251428D01*
X206230000Y-137251428D01*
X205944285Y-137180000D01*
X205801428Y-137108571D01*
X205730000Y-137037142D01*
X205658571Y-136894285D01*
X207158571Y-134608571D02*
X206158571Y-134608571D01*
X205658571Y-134608571D02*
X205730000Y-134680000D01*
X205801428Y-134608571D01*
X205730000Y-134537142D01*
X205658571Y-134608571D01*
X205801428Y-134608571D01*
X206158571Y-133894285D02*
X207158571Y-133894285D01*
X206301428Y-133894285D02*
X206230000Y-133822857D01*
X206158571Y-133680000D01*
X206158571Y-133465714D01*
X206230000Y-133322857D01*
X206372857Y-133251428D01*
X207158571Y-133251428D01*
X209550000Y-146050000D02*
X207693580Y-146050000D01*
X209550000Y-130810000D02*
X207693580Y-130810000D01*
X208280000Y-146050000D02*
X208280000Y-130810000D01*
X208280000Y-146050000D02*
X208280000Y-130810000D01*
X208280000Y-146050000D02*
X208866421Y-144923496D01*
X208280000Y-146050000D02*
X207693579Y-144923496D01*
X208280000Y-130810000D02*
X207693579Y-131936504D01*
X208280000Y-130810000D02*
X208866421Y-131936504D01*
X208252857Y-127148571D02*
X207395714Y-127148571D01*
X207824285Y-127148571D02*
X207824285Y-125648571D01*
X207681428Y-125862857D01*
X207538571Y-126005714D01*
X207395714Y-126077142D01*
X208824285Y-125791428D02*
X208895714Y-125720000D01*
X209038571Y-125648571D01*
X209395714Y-125648571D01*
X209538571Y-125720000D01*
X209610000Y-125791428D01*
X209681428Y-125934285D01*
X209681428Y-126077142D01*
X209610000Y-126291428D01*
X208752857Y-127148571D01*
X209681428Y-127148571D01*
X210324285Y-127005714D02*
X210395714Y-127077142D01*
X210324285Y-127148571D01*
X210252857Y-127077142D01*
X210324285Y-127005714D01*
X210324285Y-127148571D01*
X211324285Y-125648571D02*
X211467142Y-125648571D01*
X211610000Y-125720000D01*
X211681428Y-125791428D01*
X211752857Y-125934285D01*
X211824285Y-126220000D01*
X211824285Y-126577142D01*
X211752857Y-126862857D01*
X211681428Y-127005714D01*
X211610000Y-127077142D01*
X211467142Y-127148571D01*
X211324285Y-127148571D01*
X211181428Y-127077142D01*
X211110000Y-127005714D01*
X211038571Y-126862857D01*
X210967142Y-126577142D01*
X210967142Y-126220000D01*
X211038571Y-125934285D01*
X211110000Y-125791428D01*
X211181428Y-125720000D01*
X211324285Y-125648571D01*
X212752857Y-125648571D02*
X212895714Y-125648571D01*
X213038571Y-125720000D01*
X213110000Y-125791428D01*
X213181428Y-125934285D01*
X213252857Y-126220000D01*
X213252857Y-126577142D01*
X213181428Y-126862857D01*
X213110000Y-127005714D01*
X213038571Y-127077142D01*
X212895714Y-127148571D01*
X212752857Y-127148571D01*
X212610000Y-127077142D01*
X212538571Y-127005714D01*
X212467142Y-126862857D01*
X212395714Y-126577142D01*
X212395714Y-126220000D01*
X212467142Y-125934285D01*
X212538571Y-125791428D01*
X212610000Y-125720000D01*
X212752857Y-125648571D01*
X214181428Y-125648571D02*
X214324285Y-125648571D01*
X214467142Y-125720000D01*
X214538571Y-125791428D01*
X214610000Y-125934285D01*
X214681428Y-126220000D01*
X214681428Y-126577142D01*
X214610000Y-126862857D01*
X214538571Y-127005714D01*
X214467142Y-127077142D01*
X214324285Y-127148571D01*
X214181428Y-127148571D01*
X214038571Y-127077142D01*
X213967142Y-127005714D01*
X213895714Y-126862857D01*
X213824285Y-126577142D01*
X213824285Y-126220000D01*
X213895714Y-125934285D01*
X213967142Y-125791428D01*
X214038571Y-125720000D01*
X214181428Y-125648571D01*
X215610000Y-125648571D02*
X215752857Y-125648571D01*
X215895714Y-125720000D01*
X215967142Y-125791428D01*
X216038571Y-125934285D01*
X216110000Y-126220000D01*
X216110000Y-126577142D01*
X216038571Y-126862857D01*
X215967142Y-127005714D01*
X215895714Y-127077142D01*
X215752857Y-127148571D01*
X215610000Y-127148571D01*
X215467142Y-127077142D01*
X215395714Y-127005714D01*
X215324285Y-126862857D01*
X215252857Y-126577142D01*
X215252857Y-126220000D01*
X215324285Y-125934285D01*
X215395714Y-125791428D01*
X215467142Y-125720000D01*
X215610000Y-125648571D01*
X217895714Y-127148571D02*
X217895714Y-126148571D01*
X217895714Y-125648571D02*
X217824285Y-125720000D01*
X217895714Y-125791428D01*
X217967142Y-125720000D01*
X217895714Y-125648571D01*
X217895714Y-125791428D01*
X218610000Y-126148571D02*
X218610000Y-127148571D01*
X218610000Y-126291428D02*
X218681428Y-126220000D01*
X218824285Y-126148571D01*
X219038571Y-126148571D01*
X219181428Y-126220000D01*
X219252857Y-126362857D01*
X219252857Y-127148571D01*
X365760000Y-130810000D02*
X365760000Y-127683580D01*
X60960000Y-130810000D02*
X60960000Y-127683580D01*
X365760000Y-128270000D02*
X60960000Y-128270000D01*
X365760000Y-128270000D02*
X60960000Y-128270000D01*
X365760000Y-128270000D02*
X364633496Y-127683579D01*
X365760000Y-128270000D02*
X364633496Y-128856421D01*
X60960000Y-128270000D02*
X62086504Y-128856421D01*
X60960000Y-128270000D02*
X62086504Y-127683579D01*
X213332857Y-111908571D02*
X212475714Y-111908571D01*
X212904285Y-111908571D02*
X212904285Y-110408571D01*
X212761428Y-110622857D01*
X212618571Y-110765714D01*
X212475714Y-110837142D01*
X214761428Y-111908571D02*
X213904285Y-111908571D01*
X214332857Y-111908571D02*
X214332857Y-110408571D01*
X214190000Y-110622857D01*
X214047142Y-110765714D01*
X213904285Y-110837142D01*
X215404285Y-111765714D02*
X215475714Y-111837142D01*
X215404285Y-111908571D01*
X215332857Y-111837142D01*
X215404285Y-111765714D01*
X215404285Y-111908571D01*
X216904285Y-111908571D02*
X216047142Y-111908571D01*
X216475714Y-111908571D02*
X216475714Y-110408571D01*
X216332857Y-110622857D01*
X216190000Y-110765714D01*
X216047142Y-110837142D01*
X217832857Y-110408571D02*
X217975714Y-110408571D01*
X218118571Y-110480000D01*
X218190000Y-110551428D01*
X218261428Y-110694285D01*
X218332857Y-110980000D01*
X218332857Y-111337142D01*
X218261428Y-111622857D01*
X218190000Y-111765714D01*
X218118571Y-111837142D01*
X217975714Y-111908571D01*
X217832857Y-111908571D01*
X217690000Y-111837142D01*
X217618571Y-111765714D01*
X217547142Y-111622857D01*
X217475714Y-111337142D01*
X217475714Y-110980000D01*
X217547142Y-110694285D01*
X217618571Y-110551428D01*
X217690000Y-110480000D01*
X217832857Y-110408571D01*
X219261428Y-110408571D02*
X219404285Y-110408571D01*
X219547142Y-110480000D01*
X219618571Y-110551428D01*
X219690000Y-110694285D01*
X219761428Y-110980000D01*
X219761428Y-111337142D01*
X219690000Y-111622857D01*
X219618571Y-111765714D01*
X219547142Y-111837142D01*
X219404285Y-111908571D01*
X219261428Y-111908571D01*
X219118571Y-111837142D01*
X219047142Y-111765714D01*
X218975714Y-111622857D01*
X218904285Y-111337142D01*
X218904285Y-110980000D01*
X218975714Y-110694285D01*
X219047142Y-110551428D01*
X219118571Y-110480000D01*
X219261428Y-110408571D01*
X220690000Y-110408571D02*
X220832857Y-110408571D01*
X220975714Y-110480000D01*
X221047142Y-110551428D01*
X221118571Y-110694285D01*
X221190000Y-110980000D01*
X221190000Y-111337142D01*
X221118571Y-111622857D01*
X221047142Y-111765714D01*
X220975714Y-111837142D01*
X220832857Y-111908571D01*
X220690000Y-111908571D01*
X220547142Y-111837142D01*
X220475714Y-111765714D01*
X220404285Y-111622857D01*
X220332857Y-111337142D01*
X220332857Y-110980000D01*
X220404285Y-110694285D01*
X220475714Y-110551428D01*
X220547142Y-110480000D01*
X220690000Y-110408571D01*
X222975714Y-111908571D02*
X222975714Y-110908571D01*
X222975714Y-110408571D02*
X222904285Y-110480000D01*
X222975714Y-110551428D01*
X223047142Y-110480000D01*
X222975714Y-110408571D01*
X222975714Y-110551428D01*
X223690000Y-110908571D02*
X223690000Y-111908571D01*
X223690000Y-111051428D02*
X223761428Y-110980000D01*
X223904285Y-110908571D01*
X224118571Y-110908571D01*
X224261428Y-110980000D01*
X224332857Y-111122857D01*
X224332857Y-111908571D01*
X359410000Y-115570000D02*
X359410000Y-112443580D01*
X77470000Y-115570000D02*
X77470000Y-112443580D01*
X359410000Y-113030000D02*
X77470000Y-113030000D01*
X359410000Y-113030000D02*
X77470000Y-113030000D01*
X359410000Y-113030000D02*
X358283496Y-112443579D01*
X359410000Y-113030000D02*
X358283496Y-113616421D01*
X77470000Y-113030000D02*
X78596504Y-113616421D01*
X77470000Y-113030000D02*
X78596504Y-112443579D01*
M02*
