%TF.GenerationSoftware,KiCad,Pcbnew,(6.0.11)*%
%TF.CreationDate,2024-06-16T13:35:34-04:00*%
%TF.ProjectId,NS32016-BC,4e533332-3031-4362-9d42-432e6b696361,rev?*%
%TF.SameCoordinates,Original*%
%TF.FileFunction,Legend,Bot*%
%TF.FilePolarity,Positive*%
%FSLAX46Y46*%
G04 Gerber Fmt 4.6, Leading zero omitted, Abs format (unit mm)*
G04 Created by KiCad (PCBNEW (6.0.11)) date 2024-06-16 13:35:34*
%MOMM*%
%LPD*%
G01*
G04 APERTURE LIST*
%ADD10C,0.120000*%
%ADD11C,0.150000*%
%ADD12C,0.200000*%
%ADD13C,0.108000*%
%ADD14C,0.100000*%
G04 APERTURE END LIST*
D10*
%TO.C,C1*%
X342398333Y-306355714D02*
X342436428Y-306393809D01*
X342550714Y-306431904D01*
X342626904Y-306431904D01*
X342741190Y-306393809D01*
X342817380Y-306317619D01*
X342855476Y-306241428D01*
X342893571Y-306089047D01*
X342893571Y-305974761D01*
X342855476Y-305822380D01*
X342817380Y-305746190D01*
X342741190Y-305670000D01*
X342626904Y-305631904D01*
X342550714Y-305631904D01*
X342436428Y-305670000D01*
X342398333Y-305708095D01*
X341636428Y-306431904D02*
X342093571Y-306431904D01*
X341865000Y-306431904D02*
X341865000Y-305631904D01*
X341941190Y-305746190D01*
X342017380Y-305822380D01*
X342093571Y-305860476D01*
D11*
%TO.C,C2*%
X336081666Y-306427142D02*
X336129285Y-306474761D01*
X336272142Y-306522380D01*
X336367380Y-306522380D01*
X336510238Y-306474761D01*
X336605476Y-306379523D01*
X336653095Y-306284285D01*
X336700714Y-306093809D01*
X336700714Y-305950952D01*
X336653095Y-305760476D01*
X336605476Y-305665238D01*
X336510238Y-305570000D01*
X336367380Y-305522380D01*
X336272142Y-305522380D01*
X336129285Y-305570000D01*
X336081666Y-305617619D01*
X335700714Y-305617619D02*
X335653095Y-305570000D01*
X335557857Y-305522380D01*
X335319761Y-305522380D01*
X335224523Y-305570000D01*
X335176904Y-305617619D01*
X335129285Y-305712857D01*
X335129285Y-305808095D01*
X335176904Y-305950952D01*
X335748333Y-306522380D01*
X335129285Y-306522380D01*
%TO.C,C3*%
X268327142Y-354798333D02*
X268374761Y-354750714D01*
X268422380Y-354607857D01*
X268422380Y-354512619D01*
X268374761Y-354369761D01*
X268279523Y-354274523D01*
X268184285Y-354226904D01*
X267993809Y-354179285D01*
X267850952Y-354179285D01*
X267660476Y-354226904D01*
X267565238Y-354274523D01*
X267470000Y-354369761D01*
X267422380Y-354512619D01*
X267422380Y-354607857D01*
X267470000Y-354750714D01*
X267517619Y-354798333D01*
X267422380Y-355131666D02*
X267422380Y-355750714D01*
X267803333Y-355417380D01*
X267803333Y-355560238D01*
X267850952Y-355655476D01*
X267898571Y-355703095D01*
X267993809Y-355750714D01*
X268231904Y-355750714D01*
X268327142Y-355703095D01*
X268374761Y-355655476D01*
X268422380Y-355560238D01*
X268422380Y-355274523D01*
X268374761Y-355179285D01*
X268327142Y-355131666D01*
D10*
%TO.C,C4*%
X323348333Y-364140714D02*
X323386428Y-364178809D01*
X323500714Y-364216904D01*
X323576904Y-364216904D01*
X323691190Y-364178809D01*
X323767380Y-364102619D01*
X323805476Y-364026428D01*
X323843571Y-363874047D01*
X323843571Y-363759761D01*
X323805476Y-363607380D01*
X323767380Y-363531190D01*
X323691190Y-363455000D01*
X323576904Y-363416904D01*
X323500714Y-363416904D01*
X323386428Y-363455000D01*
X323348333Y-363493095D01*
X322662619Y-363683571D02*
X322662619Y-364216904D01*
X322853095Y-363378809D02*
X323043571Y-363950238D01*
X322548333Y-363950238D01*
%TO.C,C5*%
X311918333Y-364140714D02*
X311956428Y-364178809D01*
X312070714Y-364216904D01*
X312146904Y-364216904D01*
X312261190Y-364178809D01*
X312337380Y-364102619D01*
X312375476Y-364026428D01*
X312413571Y-363874047D01*
X312413571Y-363759761D01*
X312375476Y-363607380D01*
X312337380Y-363531190D01*
X312261190Y-363455000D01*
X312146904Y-363416904D01*
X312070714Y-363416904D01*
X311956428Y-363455000D01*
X311918333Y-363493095D01*
X311194523Y-363416904D02*
X311575476Y-363416904D01*
X311613571Y-363797857D01*
X311575476Y-363759761D01*
X311499285Y-363721666D01*
X311308809Y-363721666D01*
X311232619Y-363759761D01*
X311194523Y-363797857D01*
X311156428Y-363874047D01*
X311156428Y-364064523D01*
X311194523Y-364140714D01*
X311232619Y-364178809D01*
X311308809Y-364216904D01*
X311499285Y-364216904D01*
X311575476Y-364178809D01*
X311613571Y-364140714D01*
D11*
%TO.C,C8*%
X159591666Y-317222142D02*
X159639285Y-317269761D01*
X159782142Y-317317380D01*
X159877380Y-317317380D01*
X160020238Y-317269761D01*
X160115476Y-317174523D01*
X160163095Y-317079285D01*
X160210714Y-316888809D01*
X160210714Y-316745952D01*
X160163095Y-316555476D01*
X160115476Y-316460238D01*
X160020238Y-316365000D01*
X159877380Y-316317380D01*
X159782142Y-316317380D01*
X159639285Y-316365000D01*
X159591666Y-316412619D01*
X159020238Y-316745952D02*
X159115476Y-316698333D01*
X159163095Y-316650714D01*
X159210714Y-316555476D01*
X159210714Y-316507857D01*
X159163095Y-316412619D01*
X159115476Y-316365000D01*
X159020238Y-316317380D01*
X158829761Y-316317380D01*
X158734523Y-316365000D01*
X158686904Y-316412619D01*
X158639285Y-316507857D01*
X158639285Y-316555476D01*
X158686904Y-316650714D01*
X158734523Y-316698333D01*
X158829761Y-316745952D01*
X159020238Y-316745952D01*
X159115476Y-316793571D01*
X159163095Y-316841190D01*
X159210714Y-316936428D01*
X159210714Y-317126904D01*
X159163095Y-317222142D01*
X159115476Y-317269761D01*
X159020238Y-317317380D01*
X158829761Y-317317380D01*
X158734523Y-317269761D01*
X158686904Y-317222142D01*
X158639285Y-317126904D01*
X158639285Y-316936428D01*
X158686904Y-316841190D01*
X158734523Y-316793571D01*
X158829761Y-316745952D01*
%TO.C,C9*%
X169711666Y-319127142D02*
X169759285Y-319174761D01*
X169902142Y-319222380D01*
X169997380Y-319222380D01*
X170140238Y-319174761D01*
X170235476Y-319079523D01*
X170283095Y-318984285D01*
X170330714Y-318793809D01*
X170330714Y-318650952D01*
X170283095Y-318460476D01*
X170235476Y-318365238D01*
X170140238Y-318270000D01*
X169997380Y-318222380D01*
X169902142Y-318222380D01*
X169759285Y-318270000D01*
X169711666Y-318317619D01*
X169235476Y-319222380D02*
X169045000Y-319222380D01*
X168949761Y-319174761D01*
X168902142Y-319127142D01*
X168806904Y-318984285D01*
X168759285Y-318793809D01*
X168759285Y-318412857D01*
X168806904Y-318317619D01*
X168854523Y-318270000D01*
X168949761Y-318222380D01*
X169140238Y-318222380D01*
X169235476Y-318270000D01*
X169283095Y-318317619D01*
X169330714Y-318412857D01*
X169330714Y-318650952D01*
X169283095Y-318746190D01*
X169235476Y-318793809D01*
X169140238Y-318841428D01*
X168949761Y-318841428D01*
X168854523Y-318793809D01*
X168806904Y-318746190D01*
X168759285Y-318650952D01*
%TO.C,C100*%
X226417142Y-355110952D02*
X226464761Y-355063333D01*
X226512380Y-354920476D01*
X226512380Y-354825238D01*
X226464761Y-354682380D01*
X226369523Y-354587142D01*
X226274285Y-354539523D01*
X226083809Y-354491904D01*
X225940952Y-354491904D01*
X225750476Y-354539523D01*
X225655238Y-354587142D01*
X225560000Y-354682380D01*
X225512380Y-354825238D01*
X225512380Y-354920476D01*
X225560000Y-355063333D01*
X225607619Y-355110952D01*
X226512380Y-356063333D02*
X226512380Y-355491904D01*
X226512380Y-355777619D02*
X225512380Y-355777619D01*
X225655238Y-355682380D01*
X225750476Y-355587142D01*
X225798095Y-355491904D01*
X225512380Y-356682380D02*
X225512380Y-356777619D01*
X225560000Y-356872857D01*
X225607619Y-356920476D01*
X225702857Y-356968095D01*
X225893333Y-357015714D01*
X226131428Y-357015714D01*
X226321904Y-356968095D01*
X226417142Y-356920476D01*
X226464761Y-356872857D01*
X226512380Y-356777619D01*
X226512380Y-356682380D01*
X226464761Y-356587142D01*
X226417142Y-356539523D01*
X226321904Y-356491904D01*
X226131428Y-356444285D01*
X225893333Y-356444285D01*
X225702857Y-356491904D01*
X225607619Y-356539523D01*
X225560000Y-356587142D01*
X225512380Y-356682380D01*
X225512380Y-357634761D02*
X225512380Y-357730000D01*
X225560000Y-357825238D01*
X225607619Y-357872857D01*
X225702857Y-357920476D01*
X225893333Y-357968095D01*
X226131428Y-357968095D01*
X226321904Y-357920476D01*
X226417142Y-357872857D01*
X226464761Y-357825238D01*
X226512380Y-357730000D01*
X226512380Y-357634761D01*
X226464761Y-357539523D01*
X226417142Y-357491904D01*
X226321904Y-357444285D01*
X226131428Y-357396666D01*
X225893333Y-357396666D01*
X225702857Y-357444285D01*
X225607619Y-357491904D01*
X225560000Y-357539523D01*
X225512380Y-357634761D01*
%TO.C,C101*%
X275947142Y-353845952D02*
X275994761Y-353798333D01*
X276042380Y-353655476D01*
X276042380Y-353560238D01*
X275994761Y-353417380D01*
X275899523Y-353322142D01*
X275804285Y-353274523D01*
X275613809Y-353226904D01*
X275470952Y-353226904D01*
X275280476Y-353274523D01*
X275185238Y-353322142D01*
X275090000Y-353417380D01*
X275042380Y-353560238D01*
X275042380Y-353655476D01*
X275090000Y-353798333D01*
X275137619Y-353845952D01*
X276042380Y-354798333D02*
X276042380Y-354226904D01*
X276042380Y-354512619D02*
X275042380Y-354512619D01*
X275185238Y-354417380D01*
X275280476Y-354322142D01*
X275328095Y-354226904D01*
X275042380Y-355417380D02*
X275042380Y-355512619D01*
X275090000Y-355607857D01*
X275137619Y-355655476D01*
X275232857Y-355703095D01*
X275423333Y-355750714D01*
X275661428Y-355750714D01*
X275851904Y-355703095D01*
X275947142Y-355655476D01*
X275994761Y-355607857D01*
X276042380Y-355512619D01*
X276042380Y-355417380D01*
X275994761Y-355322142D01*
X275947142Y-355274523D01*
X275851904Y-355226904D01*
X275661428Y-355179285D01*
X275423333Y-355179285D01*
X275232857Y-355226904D01*
X275137619Y-355274523D01*
X275090000Y-355322142D01*
X275042380Y-355417380D01*
X276042380Y-356703095D02*
X276042380Y-356131666D01*
X276042380Y-356417380D02*
X275042380Y-356417380D01*
X275185238Y-356322142D01*
X275280476Y-356226904D01*
X275328095Y-356131666D01*
%TO.C,C102*%
X210669047Y-340082142D02*
X210716666Y-340129761D01*
X210859523Y-340177380D01*
X210954761Y-340177380D01*
X211097619Y-340129761D01*
X211192857Y-340034523D01*
X211240476Y-339939285D01*
X211288095Y-339748809D01*
X211288095Y-339605952D01*
X211240476Y-339415476D01*
X211192857Y-339320238D01*
X211097619Y-339225000D01*
X210954761Y-339177380D01*
X210859523Y-339177380D01*
X210716666Y-339225000D01*
X210669047Y-339272619D01*
X209716666Y-340177380D02*
X210288095Y-340177380D01*
X210002380Y-340177380D02*
X210002380Y-339177380D01*
X210097619Y-339320238D01*
X210192857Y-339415476D01*
X210288095Y-339463095D01*
X209097619Y-339177380D02*
X209002380Y-339177380D01*
X208907142Y-339225000D01*
X208859523Y-339272619D01*
X208811904Y-339367857D01*
X208764285Y-339558333D01*
X208764285Y-339796428D01*
X208811904Y-339986904D01*
X208859523Y-340082142D01*
X208907142Y-340129761D01*
X209002380Y-340177380D01*
X209097619Y-340177380D01*
X209192857Y-340129761D01*
X209240476Y-340082142D01*
X209288095Y-339986904D01*
X209335714Y-339796428D01*
X209335714Y-339558333D01*
X209288095Y-339367857D01*
X209240476Y-339272619D01*
X209192857Y-339225000D01*
X209097619Y-339177380D01*
X208383333Y-339272619D02*
X208335714Y-339225000D01*
X208240476Y-339177380D01*
X208002380Y-339177380D01*
X207907142Y-339225000D01*
X207859523Y-339272619D01*
X207811904Y-339367857D01*
X207811904Y-339463095D01*
X207859523Y-339605952D01*
X208430952Y-340177380D01*
X207811904Y-340177380D01*
%TO.C,C103*%
X237339047Y-340082142D02*
X237386666Y-340129761D01*
X237529523Y-340177380D01*
X237624761Y-340177380D01*
X237767619Y-340129761D01*
X237862857Y-340034523D01*
X237910476Y-339939285D01*
X237958095Y-339748809D01*
X237958095Y-339605952D01*
X237910476Y-339415476D01*
X237862857Y-339320238D01*
X237767619Y-339225000D01*
X237624761Y-339177380D01*
X237529523Y-339177380D01*
X237386666Y-339225000D01*
X237339047Y-339272619D01*
X236386666Y-340177380D02*
X236958095Y-340177380D01*
X236672380Y-340177380D02*
X236672380Y-339177380D01*
X236767619Y-339320238D01*
X236862857Y-339415476D01*
X236958095Y-339463095D01*
X235767619Y-339177380D02*
X235672380Y-339177380D01*
X235577142Y-339225000D01*
X235529523Y-339272619D01*
X235481904Y-339367857D01*
X235434285Y-339558333D01*
X235434285Y-339796428D01*
X235481904Y-339986904D01*
X235529523Y-340082142D01*
X235577142Y-340129761D01*
X235672380Y-340177380D01*
X235767619Y-340177380D01*
X235862857Y-340129761D01*
X235910476Y-340082142D01*
X235958095Y-339986904D01*
X236005714Y-339796428D01*
X236005714Y-339558333D01*
X235958095Y-339367857D01*
X235910476Y-339272619D01*
X235862857Y-339225000D01*
X235767619Y-339177380D01*
X235100952Y-339177380D02*
X234481904Y-339177380D01*
X234815238Y-339558333D01*
X234672380Y-339558333D01*
X234577142Y-339605952D01*
X234529523Y-339653571D01*
X234481904Y-339748809D01*
X234481904Y-339986904D01*
X234529523Y-340082142D01*
X234577142Y-340129761D01*
X234672380Y-340177380D01*
X234958095Y-340177380D01*
X235053333Y-340129761D01*
X235100952Y-340082142D01*
D10*
%TO.C,D1*%
X212980476Y-359131904D02*
X212980476Y-358331904D01*
X212790000Y-358331904D01*
X212675714Y-358370000D01*
X212599523Y-358446190D01*
X212561428Y-358522380D01*
X212523333Y-358674761D01*
X212523333Y-358789047D01*
X212561428Y-358941428D01*
X212599523Y-359017619D01*
X212675714Y-359093809D01*
X212790000Y-359131904D01*
X212980476Y-359131904D01*
X211761428Y-359131904D02*
X212218571Y-359131904D01*
X211990000Y-359131904D02*
X211990000Y-358331904D01*
X212066190Y-358446190D01*
X212142380Y-358522380D01*
X212218571Y-358560476D01*
D11*
X208541904Y-357422380D02*
X208541904Y-356422380D01*
X207970476Y-357422380D02*
X208399047Y-356850952D01*
X207970476Y-356422380D02*
X208541904Y-356993809D01*
%TO.C,D2*%
X352242380Y-205714404D02*
X351242380Y-205714404D01*
X351242380Y-205952500D01*
X351290000Y-206095357D01*
X351385238Y-206190595D01*
X351480476Y-206238214D01*
X351670952Y-206285833D01*
X351813809Y-206285833D01*
X352004285Y-206238214D01*
X352099523Y-206190595D01*
X352194761Y-206095357D01*
X352242380Y-205952500D01*
X352242380Y-205714404D01*
X351337619Y-206666785D02*
X351290000Y-206714404D01*
X351242380Y-206809642D01*
X351242380Y-207047738D01*
X351290000Y-207142976D01*
X351337619Y-207190595D01*
X351432857Y-207238214D01*
X351528095Y-207238214D01*
X351670952Y-207190595D01*
X352242380Y-206619166D01*
X352242380Y-207238214D01*
X354842380Y-197858095D02*
X353842380Y-197858095D01*
X354842380Y-198429523D02*
X354270952Y-198000952D01*
X353842380Y-198429523D02*
X354413809Y-197858095D01*
D10*
%TO.C,D100*%
X245492380Y-359131904D02*
X245492380Y-358331904D01*
X245301904Y-358331904D01*
X245187619Y-358370000D01*
X245111428Y-358446190D01*
X245073333Y-358522380D01*
X245035238Y-358674761D01*
X245035238Y-358789047D01*
X245073333Y-358941428D01*
X245111428Y-359017619D01*
X245187619Y-359093809D01*
X245301904Y-359131904D01*
X245492380Y-359131904D01*
X244273333Y-359131904D02*
X244730476Y-359131904D01*
X244501904Y-359131904D02*
X244501904Y-358331904D01*
X244578095Y-358446190D01*
X244654285Y-358522380D01*
X244730476Y-358560476D01*
X243778095Y-358331904D02*
X243701904Y-358331904D01*
X243625714Y-358370000D01*
X243587619Y-358408095D01*
X243549523Y-358484285D01*
X243511428Y-358636666D01*
X243511428Y-358827142D01*
X243549523Y-358979523D01*
X243587619Y-359055714D01*
X243625714Y-359093809D01*
X243701904Y-359131904D01*
X243778095Y-359131904D01*
X243854285Y-359093809D01*
X243892380Y-359055714D01*
X243930476Y-358979523D01*
X243968571Y-358827142D01*
X243968571Y-358636666D01*
X243930476Y-358484285D01*
X243892380Y-358408095D01*
X243854285Y-358370000D01*
X243778095Y-358331904D01*
X243016190Y-358331904D02*
X242940000Y-358331904D01*
X242863809Y-358370000D01*
X242825714Y-358408095D01*
X242787619Y-358484285D01*
X242749523Y-358636666D01*
X242749523Y-358827142D01*
X242787619Y-358979523D01*
X242825714Y-359055714D01*
X242863809Y-359093809D01*
X242940000Y-359131904D01*
X243016190Y-359131904D01*
X243092380Y-359093809D01*
X243130476Y-359055714D01*
X243168571Y-358979523D01*
X243206666Y-358827142D01*
X243206666Y-358636666D01*
X243168571Y-358484285D01*
X243130476Y-358408095D01*
X243092380Y-358370000D01*
X243016190Y-358331904D01*
D11*
X240291904Y-357422380D02*
X240291904Y-356422380D01*
X239720476Y-357422380D02*
X240149047Y-356850952D01*
X239720476Y-356422380D02*
X240291904Y-356993809D01*
%TO.C,D101*%
X240291904Y-352342380D02*
X240291904Y-351342380D01*
X239720476Y-352342380D02*
X240149047Y-351770952D01*
X239720476Y-351342380D02*
X240291904Y-351913809D01*
D10*
X245492380Y-354051904D02*
X245492380Y-353251904D01*
X245301904Y-353251904D01*
X245187619Y-353290000D01*
X245111428Y-353366190D01*
X245073333Y-353442380D01*
X245035238Y-353594761D01*
X245035238Y-353709047D01*
X245073333Y-353861428D01*
X245111428Y-353937619D01*
X245187619Y-354013809D01*
X245301904Y-354051904D01*
X245492380Y-354051904D01*
X244273333Y-354051904D02*
X244730476Y-354051904D01*
X244501904Y-354051904D02*
X244501904Y-353251904D01*
X244578095Y-353366190D01*
X244654285Y-353442380D01*
X244730476Y-353480476D01*
X243778095Y-353251904D02*
X243701904Y-353251904D01*
X243625714Y-353290000D01*
X243587619Y-353328095D01*
X243549523Y-353404285D01*
X243511428Y-353556666D01*
X243511428Y-353747142D01*
X243549523Y-353899523D01*
X243587619Y-353975714D01*
X243625714Y-354013809D01*
X243701904Y-354051904D01*
X243778095Y-354051904D01*
X243854285Y-354013809D01*
X243892380Y-353975714D01*
X243930476Y-353899523D01*
X243968571Y-353747142D01*
X243968571Y-353556666D01*
X243930476Y-353404285D01*
X243892380Y-353328095D01*
X243854285Y-353290000D01*
X243778095Y-353251904D01*
X242749523Y-354051904D02*
X243206666Y-354051904D01*
X242978095Y-354051904D02*
X242978095Y-353251904D01*
X243054285Y-353366190D01*
X243130476Y-353442380D01*
X243206666Y-353480476D01*
D12*
%TO.C,D102*%
X227056904Y-366947619D02*
X226256904Y-366947619D01*
X226256904Y-367138095D01*
X226295000Y-367252380D01*
X226371190Y-367328571D01*
X226447380Y-367366666D01*
X226599761Y-367404761D01*
X226714047Y-367404761D01*
X226866428Y-367366666D01*
X226942619Y-367328571D01*
X227018809Y-367252380D01*
X227056904Y-367138095D01*
X227056904Y-366947619D01*
X227056904Y-368166666D02*
X227056904Y-367709523D01*
X227056904Y-367938095D02*
X226256904Y-367938095D01*
X226371190Y-367861904D01*
X226447380Y-367785714D01*
X226485476Y-367709523D01*
X226256904Y-368661904D02*
X226256904Y-368738095D01*
X226295000Y-368814285D01*
X226333095Y-368852380D01*
X226409285Y-368890476D01*
X226561666Y-368928571D01*
X226752142Y-368928571D01*
X226904523Y-368890476D01*
X226980714Y-368852380D01*
X227018809Y-368814285D01*
X227056904Y-368738095D01*
X227056904Y-368661904D01*
X227018809Y-368585714D01*
X226980714Y-368547619D01*
X226904523Y-368509523D01*
X226752142Y-368471428D01*
X226561666Y-368471428D01*
X226409285Y-368509523D01*
X226333095Y-368547619D01*
X226295000Y-368585714D01*
X226256904Y-368661904D01*
X226333095Y-369233333D02*
X226295000Y-369271428D01*
X226256904Y-369347619D01*
X226256904Y-369538095D01*
X226295000Y-369614285D01*
X226333095Y-369652380D01*
X226409285Y-369690476D01*
X226485476Y-369690476D01*
X226599761Y-369652380D01*
X227056904Y-369195238D01*
X227056904Y-369690476D01*
D11*
%TO.C,P1*%
X362688095Y-237942380D02*
X362688095Y-236942380D01*
X362307142Y-236942380D01*
X362211904Y-236990000D01*
X362164285Y-237037619D01*
X362116666Y-237132857D01*
X362116666Y-237275714D01*
X362164285Y-237370952D01*
X362211904Y-237418571D01*
X362307142Y-237466190D01*
X362688095Y-237466190D01*
X361164285Y-237942380D02*
X361735714Y-237942380D01*
X361450000Y-237942380D02*
X361450000Y-236942380D01*
X361545238Y-237085238D01*
X361640476Y-237180476D01*
X361735714Y-237228095D01*
%TO.C,P2*%
X362688095Y-290012380D02*
X362688095Y-289012380D01*
X362307142Y-289012380D01*
X362211904Y-289060000D01*
X362164285Y-289107619D01*
X362116666Y-289202857D01*
X362116666Y-289345714D01*
X362164285Y-289440952D01*
X362211904Y-289488571D01*
X362307142Y-289536190D01*
X362688095Y-289536190D01*
X361735714Y-289107619D02*
X361688095Y-289060000D01*
X361592857Y-289012380D01*
X361354761Y-289012380D01*
X361259523Y-289060000D01*
X361211904Y-289107619D01*
X361164285Y-289202857D01*
X361164285Y-289298095D01*
X361211904Y-289440952D01*
X361783333Y-290012380D01*
X361164285Y-290012380D01*
%TO.C,P3*%
X191238095Y-363672380D02*
X191238095Y-362672380D01*
X190857142Y-362672380D01*
X190761904Y-362720000D01*
X190714285Y-362767619D01*
X190666666Y-362862857D01*
X190666666Y-363005714D01*
X190714285Y-363100952D01*
X190761904Y-363148571D01*
X190857142Y-363196190D01*
X191238095Y-363196190D01*
X190333333Y-362672380D02*
X189714285Y-362672380D01*
X190047619Y-363053333D01*
X189904761Y-363053333D01*
X189809523Y-363100952D01*
X189761904Y-363148571D01*
X189714285Y-363243809D01*
X189714285Y-363481904D01*
X189761904Y-363577142D01*
X189809523Y-363624761D01*
X189904761Y-363672380D01*
X190190476Y-363672380D01*
X190285714Y-363624761D01*
X190333333Y-363577142D01*
%TO.C,P4*%
X190603095Y-345892380D02*
X190603095Y-344892380D01*
X190222142Y-344892380D01*
X190126904Y-344940000D01*
X190079285Y-344987619D01*
X190031666Y-345082857D01*
X190031666Y-345225714D01*
X190079285Y-345320952D01*
X190126904Y-345368571D01*
X190222142Y-345416190D01*
X190603095Y-345416190D01*
X189174523Y-345225714D02*
X189174523Y-345892380D01*
X189412619Y-344844761D02*
X189650714Y-345559047D01*
X189031666Y-345559047D01*
%TO.C,P6*%
X196032380Y-347241904D02*
X195032380Y-347241904D01*
X195032380Y-347622857D01*
X195080000Y-347718095D01*
X195127619Y-347765714D01*
X195222857Y-347813333D01*
X195365714Y-347813333D01*
X195460952Y-347765714D01*
X195508571Y-347718095D01*
X195556190Y-347622857D01*
X195556190Y-347241904D01*
X195032380Y-348670476D02*
X195032380Y-348480000D01*
X195080000Y-348384761D01*
X195127619Y-348337142D01*
X195270476Y-348241904D01*
X195460952Y-348194285D01*
X195841904Y-348194285D01*
X195937142Y-348241904D01*
X195984761Y-348289523D01*
X196032380Y-348384761D01*
X196032380Y-348575238D01*
X195984761Y-348670476D01*
X195937142Y-348718095D01*
X195841904Y-348765714D01*
X195603809Y-348765714D01*
X195508571Y-348718095D01*
X195460952Y-348670476D01*
X195413333Y-348575238D01*
X195413333Y-348384761D01*
X195460952Y-348289523D01*
X195508571Y-348241904D01*
X195603809Y-348194285D01*
%TO.C,P100*%
X279820476Y-360497380D02*
X279820476Y-359497380D01*
X279439523Y-359497380D01*
X279344285Y-359545000D01*
X279296666Y-359592619D01*
X279249047Y-359687857D01*
X279249047Y-359830714D01*
X279296666Y-359925952D01*
X279344285Y-359973571D01*
X279439523Y-360021190D01*
X279820476Y-360021190D01*
X278296666Y-360497380D02*
X278868095Y-360497380D01*
X278582380Y-360497380D02*
X278582380Y-359497380D01*
X278677619Y-359640238D01*
X278772857Y-359735476D01*
X278868095Y-359783095D01*
X277677619Y-359497380D02*
X277582380Y-359497380D01*
X277487142Y-359545000D01*
X277439523Y-359592619D01*
X277391904Y-359687857D01*
X277344285Y-359878333D01*
X277344285Y-360116428D01*
X277391904Y-360306904D01*
X277439523Y-360402142D01*
X277487142Y-360449761D01*
X277582380Y-360497380D01*
X277677619Y-360497380D01*
X277772857Y-360449761D01*
X277820476Y-360402142D01*
X277868095Y-360306904D01*
X277915714Y-360116428D01*
X277915714Y-359878333D01*
X277868095Y-359687857D01*
X277820476Y-359592619D01*
X277772857Y-359545000D01*
X277677619Y-359497380D01*
X276725238Y-359497380D02*
X276630000Y-359497380D01*
X276534761Y-359545000D01*
X276487142Y-359592619D01*
X276439523Y-359687857D01*
X276391904Y-359878333D01*
X276391904Y-360116428D01*
X276439523Y-360306904D01*
X276487142Y-360402142D01*
X276534761Y-360449761D01*
X276630000Y-360497380D01*
X276725238Y-360497380D01*
X276820476Y-360449761D01*
X276868095Y-360402142D01*
X276915714Y-360306904D01*
X276963333Y-360116428D01*
X276963333Y-359878333D01*
X276915714Y-359687857D01*
X276868095Y-359592619D01*
X276820476Y-359545000D01*
X276725238Y-359497380D01*
D13*
%TO.C,R1*%
X212210000Y-354015714D02*
X212450000Y-353672857D01*
X212621428Y-354015714D02*
X212621428Y-353295714D01*
X212347142Y-353295714D01*
X212278571Y-353330000D01*
X212244285Y-353364285D01*
X212210000Y-353432857D01*
X212210000Y-353535714D01*
X212244285Y-353604285D01*
X212278571Y-353638571D01*
X212347142Y-353672857D01*
X212621428Y-353672857D01*
X211524285Y-354015714D02*
X211935714Y-354015714D01*
X211730000Y-354015714D02*
X211730000Y-353295714D01*
X211798571Y-353398571D01*
X211867142Y-353467142D01*
X211935714Y-353501428D01*
%TO.C,R100*%
X233215714Y-354015714D02*
X233455714Y-353672857D01*
X233627142Y-354015714D02*
X233627142Y-353295714D01*
X233352857Y-353295714D01*
X233284285Y-353330000D01*
X233250000Y-353364285D01*
X233215714Y-353432857D01*
X233215714Y-353535714D01*
X233250000Y-353604285D01*
X233284285Y-353638571D01*
X233352857Y-353672857D01*
X233627142Y-353672857D01*
X232530000Y-354015714D02*
X232941428Y-354015714D01*
X232735714Y-354015714D02*
X232735714Y-353295714D01*
X232804285Y-353398571D01*
X232872857Y-353467142D01*
X232941428Y-353501428D01*
X232084285Y-353295714D02*
X232015714Y-353295714D01*
X231947142Y-353330000D01*
X231912857Y-353364285D01*
X231878571Y-353432857D01*
X231844285Y-353570000D01*
X231844285Y-353741428D01*
X231878571Y-353878571D01*
X231912857Y-353947142D01*
X231947142Y-353981428D01*
X232015714Y-354015714D01*
X232084285Y-354015714D01*
X232152857Y-353981428D01*
X232187142Y-353947142D01*
X232221428Y-353878571D01*
X232255714Y-353741428D01*
X232255714Y-353570000D01*
X232221428Y-353432857D01*
X232187142Y-353364285D01*
X232152857Y-353330000D01*
X232084285Y-353295714D01*
X231398571Y-353295714D02*
X231330000Y-353295714D01*
X231261428Y-353330000D01*
X231227142Y-353364285D01*
X231192857Y-353432857D01*
X231158571Y-353570000D01*
X231158571Y-353741428D01*
X231192857Y-353878571D01*
X231227142Y-353947142D01*
X231261428Y-353981428D01*
X231330000Y-354015714D01*
X231398571Y-354015714D01*
X231467142Y-353981428D01*
X231501428Y-353947142D01*
X231535714Y-353878571D01*
X231570000Y-353741428D01*
X231570000Y-353570000D01*
X231535714Y-353432857D01*
X231501428Y-353364285D01*
X231467142Y-353330000D01*
X231398571Y-353295714D01*
%TO.C,R101*%
X256075714Y-354015714D02*
X256315714Y-353672857D01*
X256487142Y-354015714D02*
X256487142Y-353295714D01*
X256212857Y-353295714D01*
X256144285Y-353330000D01*
X256110000Y-353364285D01*
X256075714Y-353432857D01*
X256075714Y-353535714D01*
X256110000Y-353604285D01*
X256144285Y-353638571D01*
X256212857Y-353672857D01*
X256487142Y-353672857D01*
X255390000Y-354015714D02*
X255801428Y-354015714D01*
X255595714Y-354015714D02*
X255595714Y-353295714D01*
X255664285Y-353398571D01*
X255732857Y-353467142D01*
X255801428Y-353501428D01*
X254944285Y-353295714D02*
X254875714Y-353295714D01*
X254807142Y-353330000D01*
X254772857Y-353364285D01*
X254738571Y-353432857D01*
X254704285Y-353570000D01*
X254704285Y-353741428D01*
X254738571Y-353878571D01*
X254772857Y-353947142D01*
X254807142Y-353981428D01*
X254875714Y-354015714D01*
X254944285Y-354015714D01*
X255012857Y-353981428D01*
X255047142Y-353947142D01*
X255081428Y-353878571D01*
X255115714Y-353741428D01*
X255115714Y-353570000D01*
X255081428Y-353432857D01*
X255047142Y-353364285D01*
X255012857Y-353330000D01*
X254944285Y-353295714D01*
X254018571Y-354015714D02*
X254430000Y-354015714D01*
X254224285Y-354015714D02*
X254224285Y-353295714D01*
X254292857Y-353398571D01*
X254361428Y-353467142D01*
X254430000Y-353501428D01*
%TO.C,R102*%
X256075714Y-359095714D02*
X256315714Y-358752857D01*
X256487142Y-359095714D02*
X256487142Y-358375714D01*
X256212857Y-358375714D01*
X256144285Y-358410000D01*
X256110000Y-358444285D01*
X256075714Y-358512857D01*
X256075714Y-358615714D01*
X256110000Y-358684285D01*
X256144285Y-358718571D01*
X256212857Y-358752857D01*
X256487142Y-358752857D01*
X255390000Y-359095714D02*
X255801428Y-359095714D01*
X255595714Y-359095714D02*
X255595714Y-358375714D01*
X255664285Y-358478571D01*
X255732857Y-358547142D01*
X255801428Y-358581428D01*
X254944285Y-358375714D02*
X254875714Y-358375714D01*
X254807142Y-358410000D01*
X254772857Y-358444285D01*
X254738571Y-358512857D01*
X254704285Y-358650000D01*
X254704285Y-358821428D01*
X254738571Y-358958571D01*
X254772857Y-359027142D01*
X254807142Y-359061428D01*
X254875714Y-359095714D01*
X254944285Y-359095714D01*
X255012857Y-359061428D01*
X255047142Y-359027142D01*
X255081428Y-358958571D01*
X255115714Y-358821428D01*
X255115714Y-358650000D01*
X255081428Y-358512857D01*
X255047142Y-358444285D01*
X255012857Y-358410000D01*
X254944285Y-358375714D01*
X254430000Y-358444285D02*
X254395714Y-358410000D01*
X254327142Y-358375714D01*
X254155714Y-358375714D01*
X254087142Y-358410000D01*
X254052857Y-358444285D01*
X254018571Y-358512857D01*
X254018571Y-358581428D01*
X254052857Y-358684285D01*
X254464285Y-359095714D01*
X254018571Y-359095714D01*
%TO.C,R103*%
X233215714Y-359095714D02*
X233455714Y-358752857D01*
X233627142Y-359095714D02*
X233627142Y-358375714D01*
X233352857Y-358375714D01*
X233284285Y-358410000D01*
X233250000Y-358444285D01*
X233215714Y-358512857D01*
X233215714Y-358615714D01*
X233250000Y-358684285D01*
X233284285Y-358718571D01*
X233352857Y-358752857D01*
X233627142Y-358752857D01*
X232530000Y-359095714D02*
X232941428Y-359095714D01*
X232735714Y-359095714D02*
X232735714Y-358375714D01*
X232804285Y-358478571D01*
X232872857Y-358547142D01*
X232941428Y-358581428D01*
X232084285Y-358375714D02*
X232015714Y-358375714D01*
X231947142Y-358410000D01*
X231912857Y-358444285D01*
X231878571Y-358512857D01*
X231844285Y-358650000D01*
X231844285Y-358821428D01*
X231878571Y-358958571D01*
X231912857Y-359027142D01*
X231947142Y-359061428D01*
X232015714Y-359095714D01*
X232084285Y-359095714D01*
X232152857Y-359061428D01*
X232187142Y-359027142D01*
X232221428Y-358958571D01*
X232255714Y-358821428D01*
X232255714Y-358650000D01*
X232221428Y-358512857D01*
X232187142Y-358444285D01*
X232152857Y-358410000D01*
X232084285Y-358375714D01*
X231604285Y-358375714D02*
X231158571Y-358375714D01*
X231398571Y-358650000D01*
X231295714Y-358650000D01*
X231227142Y-358684285D01*
X231192857Y-358718571D01*
X231158571Y-358787142D01*
X231158571Y-358958571D01*
X231192857Y-359027142D01*
X231227142Y-359061428D01*
X231295714Y-359095714D01*
X231501428Y-359095714D01*
X231570000Y-359061428D01*
X231604285Y-359027142D01*
D11*
%TO.C,RP1*%
X136342380Y-306673333D02*
X135866190Y-306340000D01*
X136342380Y-306101904D02*
X135342380Y-306101904D01*
X135342380Y-306482857D01*
X135390000Y-306578095D01*
X135437619Y-306625714D01*
X135532857Y-306673333D01*
X135675714Y-306673333D01*
X135770952Y-306625714D01*
X135818571Y-306578095D01*
X135866190Y-306482857D01*
X135866190Y-306101904D01*
X136342380Y-307101904D02*
X135342380Y-307101904D01*
X135342380Y-307482857D01*
X135390000Y-307578095D01*
X135437619Y-307625714D01*
X135532857Y-307673333D01*
X135675714Y-307673333D01*
X135770952Y-307625714D01*
X135818571Y-307578095D01*
X135866190Y-307482857D01*
X135866190Y-307101904D01*
X136342380Y-308625714D02*
X136342380Y-308054285D01*
X136342380Y-308340000D02*
X135342380Y-308340000D01*
X135485238Y-308244761D01*
X135580476Y-308149523D01*
X135628095Y-308054285D01*
%TO.C,RP2*%
X160472380Y-306673333D02*
X159996190Y-306340000D01*
X160472380Y-306101904D02*
X159472380Y-306101904D01*
X159472380Y-306482857D01*
X159520000Y-306578095D01*
X159567619Y-306625714D01*
X159662857Y-306673333D01*
X159805714Y-306673333D01*
X159900952Y-306625714D01*
X159948571Y-306578095D01*
X159996190Y-306482857D01*
X159996190Y-306101904D01*
X160472380Y-307101904D02*
X159472380Y-307101904D01*
X159472380Y-307482857D01*
X159520000Y-307578095D01*
X159567619Y-307625714D01*
X159662857Y-307673333D01*
X159805714Y-307673333D01*
X159900952Y-307625714D01*
X159948571Y-307578095D01*
X159996190Y-307482857D01*
X159996190Y-307101904D01*
X159567619Y-308054285D02*
X159520000Y-308101904D01*
X159472380Y-308197142D01*
X159472380Y-308435238D01*
X159520000Y-308530476D01*
X159567619Y-308578095D01*
X159662857Y-308625714D01*
X159758095Y-308625714D01*
X159900952Y-308578095D01*
X160472380Y-308006666D01*
X160472380Y-308625714D01*
%TO.C,RP3*%
X184602380Y-306673333D02*
X184126190Y-306340000D01*
X184602380Y-306101904D02*
X183602380Y-306101904D01*
X183602380Y-306482857D01*
X183650000Y-306578095D01*
X183697619Y-306625714D01*
X183792857Y-306673333D01*
X183935714Y-306673333D01*
X184030952Y-306625714D01*
X184078571Y-306578095D01*
X184126190Y-306482857D01*
X184126190Y-306101904D01*
X184602380Y-307101904D02*
X183602380Y-307101904D01*
X183602380Y-307482857D01*
X183650000Y-307578095D01*
X183697619Y-307625714D01*
X183792857Y-307673333D01*
X183935714Y-307673333D01*
X184030952Y-307625714D01*
X184078571Y-307578095D01*
X184126190Y-307482857D01*
X184126190Y-307101904D01*
X183602380Y-308006666D02*
X183602380Y-308625714D01*
X183983333Y-308292380D01*
X183983333Y-308435238D01*
X184030952Y-308530476D01*
X184078571Y-308578095D01*
X184173809Y-308625714D01*
X184411904Y-308625714D01*
X184507142Y-308578095D01*
X184554761Y-308530476D01*
X184602380Y-308435238D01*
X184602380Y-308149523D01*
X184554761Y-308054285D01*
X184507142Y-308006666D01*
%TO.C,RR1*%
X357322380Y-188563333D02*
X356846190Y-188230000D01*
X357322380Y-187991904D02*
X356322380Y-187991904D01*
X356322380Y-188372857D01*
X356370000Y-188468095D01*
X356417619Y-188515714D01*
X356512857Y-188563333D01*
X356655714Y-188563333D01*
X356750952Y-188515714D01*
X356798571Y-188468095D01*
X356846190Y-188372857D01*
X356846190Y-187991904D01*
X357322380Y-189563333D02*
X356846190Y-189230000D01*
X357322380Y-188991904D02*
X356322380Y-188991904D01*
X356322380Y-189372857D01*
X356370000Y-189468095D01*
X356417619Y-189515714D01*
X356512857Y-189563333D01*
X356655714Y-189563333D01*
X356750952Y-189515714D01*
X356798571Y-189468095D01*
X356846190Y-189372857D01*
X356846190Y-188991904D01*
X357322380Y-190515714D02*
X357322380Y-189944285D01*
X357322380Y-190230000D02*
X356322380Y-190230000D01*
X356465238Y-190134761D01*
X356560476Y-190039523D01*
X356608095Y-189944285D01*
%TO.C,RR2*%
X357322380Y-227933333D02*
X356846190Y-227600000D01*
X357322380Y-227361904D02*
X356322380Y-227361904D01*
X356322380Y-227742857D01*
X356370000Y-227838095D01*
X356417619Y-227885714D01*
X356512857Y-227933333D01*
X356655714Y-227933333D01*
X356750952Y-227885714D01*
X356798571Y-227838095D01*
X356846190Y-227742857D01*
X356846190Y-227361904D01*
X357322380Y-228933333D02*
X356846190Y-228600000D01*
X357322380Y-228361904D02*
X356322380Y-228361904D01*
X356322380Y-228742857D01*
X356370000Y-228838095D01*
X356417619Y-228885714D01*
X356512857Y-228933333D01*
X356655714Y-228933333D01*
X356750952Y-228885714D01*
X356798571Y-228838095D01*
X356846190Y-228742857D01*
X356846190Y-228361904D01*
X356417619Y-229314285D02*
X356370000Y-229361904D01*
X356322380Y-229457142D01*
X356322380Y-229695238D01*
X356370000Y-229790476D01*
X356417619Y-229838095D01*
X356512857Y-229885714D01*
X356608095Y-229885714D01*
X356750952Y-229838095D01*
X357322380Y-229266666D01*
X357322380Y-229885714D01*
%TO.C,RR3*%
X352242380Y-188563333D02*
X351766190Y-188230000D01*
X352242380Y-187991904D02*
X351242380Y-187991904D01*
X351242380Y-188372857D01*
X351290000Y-188468095D01*
X351337619Y-188515714D01*
X351432857Y-188563333D01*
X351575714Y-188563333D01*
X351670952Y-188515714D01*
X351718571Y-188468095D01*
X351766190Y-188372857D01*
X351766190Y-187991904D01*
X352242380Y-189563333D02*
X351766190Y-189230000D01*
X352242380Y-188991904D02*
X351242380Y-188991904D01*
X351242380Y-189372857D01*
X351290000Y-189468095D01*
X351337619Y-189515714D01*
X351432857Y-189563333D01*
X351575714Y-189563333D01*
X351670952Y-189515714D01*
X351718571Y-189468095D01*
X351766190Y-189372857D01*
X351766190Y-188991904D01*
X351242380Y-189896666D02*
X351242380Y-190515714D01*
X351623333Y-190182380D01*
X351623333Y-190325238D01*
X351670952Y-190420476D01*
X351718571Y-190468095D01*
X351813809Y-190515714D01*
X352051904Y-190515714D01*
X352147142Y-190468095D01*
X352194761Y-190420476D01*
X352242380Y-190325238D01*
X352242380Y-190039523D01*
X352194761Y-189944285D01*
X352147142Y-189896666D01*
%TO.C,RR4*%
X352242380Y-227933333D02*
X351766190Y-227600000D01*
X352242380Y-227361904D02*
X351242380Y-227361904D01*
X351242380Y-227742857D01*
X351290000Y-227838095D01*
X351337619Y-227885714D01*
X351432857Y-227933333D01*
X351575714Y-227933333D01*
X351670952Y-227885714D01*
X351718571Y-227838095D01*
X351766190Y-227742857D01*
X351766190Y-227361904D01*
X352242380Y-228933333D02*
X351766190Y-228600000D01*
X352242380Y-228361904D02*
X351242380Y-228361904D01*
X351242380Y-228742857D01*
X351290000Y-228838095D01*
X351337619Y-228885714D01*
X351432857Y-228933333D01*
X351575714Y-228933333D01*
X351670952Y-228885714D01*
X351718571Y-228838095D01*
X351766190Y-228742857D01*
X351766190Y-228361904D01*
X351575714Y-229790476D02*
X352242380Y-229790476D01*
X351194761Y-229552380D02*
X351909047Y-229314285D01*
X351909047Y-229933333D01*
%TO.C,RR8*%
X291282380Y-302863333D02*
X290806190Y-302530000D01*
X291282380Y-302291904D02*
X290282380Y-302291904D01*
X290282380Y-302672857D01*
X290330000Y-302768095D01*
X290377619Y-302815714D01*
X290472857Y-302863333D01*
X290615714Y-302863333D01*
X290710952Y-302815714D01*
X290758571Y-302768095D01*
X290806190Y-302672857D01*
X290806190Y-302291904D01*
X291282380Y-303863333D02*
X290806190Y-303530000D01*
X291282380Y-303291904D02*
X290282380Y-303291904D01*
X290282380Y-303672857D01*
X290330000Y-303768095D01*
X290377619Y-303815714D01*
X290472857Y-303863333D01*
X290615714Y-303863333D01*
X290710952Y-303815714D01*
X290758571Y-303768095D01*
X290806190Y-303672857D01*
X290806190Y-303291904D01*
X290710952Y-304434761D02*
X290663333Y-304339523D01*
X290615714Y-304291904D01*
X290520476Y-304244285D01*
X290472857Y-304244285D01*
X290377619Y-304291904D01*
X290330000Y-304339523D01*
X290282380Y-304434761D01*
X290282380Y-304625238D01*
X290330000Y-304720476D01*
X290377619Y-304768095D01*
X290472857Y-304815714D01*
X290520476Y-304815714D01*
X290615714Y-304768095D01*
X290663333Y-304720476D01*
X290710952Y-304625238D01*
X290710952Y-304434761D01*
X290758571Y-304339523D01*
X290806190Y-304291904D01*
X290901428Y-304244285D01*
X291091904Y-304244285D01*
X291187142Y-304291904D01*
X291234761Y-304339523D01*
X291282380Y-304434761D01*
X291282380Y-304625238D01*
X291234761Y-304720476D01*
X291187142Y-304768095D01*
X291091904Y-304815714D01*
X290901428Y-304815714D01*
X290806190Y-304768095D01*
X290758571Y-304720476D01*
X290710952Y-304625238D01*
%TO.C,RR7*%
X124912380Y-315563333D02*
X124436190Y-315230000D01*
X124912380Y-314991904D02*
X123912380Y-314991904D01*
X123912380Y-315372857D01*
X123960000Y-315468095D01*
X124007619Y-315515714D01*
X124102857Y-315563333D01*
X124245714Y-315563333D01*
X124340952Y-315515714D01*
X124388571Y-315468095D01*
X124436190Y-315372857D01*
X124436190Y-314991904D01*
X124912380Y-316563333D02*
X124436190Y-316230000D01*
X124912380Y-315991904D02*
X123912380Y-315991904D01*
X123912380Y-316372857D01*
X123960000Y-316468095D01*
X124007619Y-316515714D01*
X124102857Y-316563333D01*
X124245714Y-316563333D01*
X124340952Y-316515714D01*
X124388571Y-316468095D01*
X124436190Y-316372857D01*
X124436190Y-315991904D01*
X123912380Y-316896666D02*
X123912380Y-317563333D01*
X124912380Y-317134761D01*
%TO.C,SW1*%
X214443333Y-369049761D02*
X214300476Y-369097380D01*
X214062380Y-369097380D01*
X213967142Y-369049761D01*
X213919523Y-369002142D01*
X213871904Y-368906904D01*
X213871904Y-368811666D01*
X213919523Y-368716428D01*
X213967142Y-368668809D01*
X214062380Y-368621190D01*
X214252857Y-368573571D01*
X214348095Y-368525952D01*
X214395714Y-368478333D01*
X214443333Y-368383095D01*
X214443333Y-368287857D01*
X214395714Y-368192619D01*
X214348095Y-368145000D01*
X214252857Y-368097380D01*
X214014761Y-368097380D01*
X213871904Y-368145000D01*
X213538571Y-368097380D02*
X213300476Y-369097380D01*
X213110000Y-368383095D01*
X212919523Y-369097380D01*
X212681428Y-368097380D01*
X211776666Y-369097380D02*
X212348095Y-369097380D01*
X212062380Y-369097380D02*
X212062380Y-368097380D01*
X212157619Y-368240238D01*
X212252857Y-368335476D01*
X212348095Y-368383095D01*
%TO.C,SW100*%
X234695714Y-369164761D02*
X234552857Y-369212380D01*
X234314761Y-369212380D01*
X234219523Y-369164761D01*
X234171904Y-369117142D01*
X234124285Y-369021904D01*
X234124285Y-368926666D01*
X234171904Y-368831428D01*
X234219523Y-368783809D01*
X234314761Y-368736190D01*
X234505238Y-368688571D01*
X234600476Y-368640952D01*
X234648095Y-368593333D01*
X234695714Y-368498095D01*
X234695714Y-368402857D01*
X234648095Y-368307619D01*
X234600476Y-368260000D01*
X234505238Y-368212380D01*
X234267142Y-368212380D01*
X234124285Y-368260000D01*
X233790952Y-368212380D02*
X233552857Y-369212380D01*
X233362380Y-368498095D01*
X233171904Y-369212380D01*
X232933809Y-368212380D01*
X232029047Y-369212380D02*
X232600476Y-369212380D01*
X232314761Y-369212380D02*
X232314761Y-368212380D01*
X232410000Y-368355238D01*
X232505238Y-368450476D01*
X232600476Y-368498095D01*
X231410000Y-368212380D02*
X231314761Y-368212380D01*
X231219523Y-368260000D01*
X231171904Y-368307619D01*
X231124285Y-368402857D01*
X231076666Y-368593333D01*
X231076666Y-368831428D01*
X231124285Y-369021904D01*
X231171904Y-369117142D01*
X231219523Y-369164761D01*
X231314761Y-369212380D01*
X231410000Y-369212380D01*
X231505238Y-369164761D01*
X231552857Y-369117142D01*
X231600476Y-369021904D01*
X231648095Y-368831428D01*
X231648095Y-368593333D01*
X231600476Y-368402857D01*
X231552857Y-368307619D01*
X231505238Y-368260000D01*
X231410000Y-368212380D01*
X230457619Y-368212380D02*
X230362380Y-368212380D01*
X230267142Y-368260000D01*
X230219523Y-368307619D01*
X230171904Y-368402857D01*
X230124285Y-368593333D01*
X230124285Y-368831428D01*
X230171904Y-369021904D01*
X230219523Y-369117142D01*
X230267142Y-369164761D01*
X230362380Y-369212380D01*
X230457619Y-369212380D01*
X230552857Y-369164761D01*
X230600476Y-369117142D01*
X230648095Y-369021904D01*
X230695714Y-368831428D01*
X230695714Y-368593333D01*
X230648095Y-368402857D01*
X230600476Y-368307619D01*
X230552857Y-368260000D01*
X230457619Y-368212380D01*
%TO.C,U1*%
X322032380Y-315468095D02*
X322841904Y-315468095D01*
X322937142Y-315515714D01*
X322984761Y-315563333D01*
X323032380Y-315658571D01*
X323032380Y-315849047D01*
X322984761Y-315944285D01*
X322937142Y-315991904D01*
X322841904Y-316039523D01*
X322032380Y-316039523D01*
X323032380Y-317039523D02*
X323032380Y-316468095D01*
X323032380Y-316753809D02*
X322032380Y-316753809D01*
X322175238Y-316658571D01*
X322270476Y-316563333D01*
X322318095Y-316468095D01*
%TO.C,U2*%
X322032380Y-334518095D02*
X322841904Y-334518095D01*
X322937142Y-334565714D01*
X322984761Y-334613333D01*
X323032380Y-334708571D01*
X323032380Y-334899047D01*
X322984761Y-334994285D01*
X322937142Y-335041904D01*
X322841904Y-335089523D01*
X322032380Y-335089523D01*
X322127619Y-335518095D02*
X322080000Y-335565714D01*
X322032380Y-335660952D01*
X322032380Y-335899047D01*
X322080000Y-335994285D01*
X322127619Y-336041904D01*
X322222857Y-336089523D01*
X322318095Y-336089523D01*
X322460952Y-336041904D01*
X323032380Y-335470476D01*
X323032380Y-336089523D01*
%TO.C,U3*%
X348062380Y-353568095D02*
X348871904Y-353568095D01*
X348967142Y-353615714D01*
X349014761Y-353663333D01*
X349062380Y-353758571D01*
X349062380Y-353949047D01*
X349014761Y-354044285D01*
X348967142Y-354091904D01*
X348871904Y-354139523D01*
X348062380Y-354139523D01*
X348062380Y-354520476D02*
X348062380Y-355139523D01*
X348443333Y-354806190D01*
X348443333Y-354949047D01*
X348490952Y-355044285D01*
X348538571Y-355091904D01*
X348633809Y-355139523D01*
X348871904Y-355139523D01*
X348967142Y-355091904D01*
X349014761Y-355044285D01*
X349062380Y-354949047D01*
X349062380Y-354663333D01*
X349014761Y-354568095D01*
X348967142Y-354520476D01*
%TO.C,U4*%
X319492380Y-269748095D02*
X320301904Y-269748095D01*
X320397142Y-269795714D01*
X320444761Y-269843333D01*
X320492380Y-269938571D01*
X320492380Y-270129047D01*
X320444761Y-270224285D01*
X320397142Y-270271904D01*
X320301904Y-270319523D01*
X319492380Y-270319523D01*
X319825714Y-271224285D02*
X320492380Y-271224285D01*
X319444761Y-270986190D02*
X320159047Y-270748095D01*
X320159047Y-271367142D01*
%TO.C,U5*%
X309332380Y-353568095D02*
X310141904Y-353568095D01*
X310237142Y-353615714D01*
X310284761Y-353663333D01*
X310332380Y-353758571D01*
X310332380Y-353949047D01*
X310284761Y-354044285D01*
X310237142Y-354091904D01*
X310141904Y-354139523D01*
X309332380Y-354139523D01*
X309332380Y-355091904D02*
X309332380Y-354615714D01*
X309808571Y-354568095D01*
X309760952Y-354615714D01*
X309713333Y-354710952D01*
X309713333Y-354949047D01*
X309760952Y-355044285D01*
X309808571Y-355091904D01*
X309903809Y-355139523D01*
X310141904Y-355139523D01*
X310237142Y-355091904D01*
X310284761Y-355044285D01*
X310332380Y-354949047D01*
X310332380Y-354710952D01*
X310284761Y-354615714D01*
X310237142Y-354568095D01*
%TO.C,U6*%
X230592380Y-326898095D02*
X231401904Y-326898095D01*
X231497142Y-326945714D01*
X231544761Y-326993333D01*
X231592380Y-327088571D01*
X231592380Y-327279047D01*
X231544761Y-327374285D01*
X231497142Y-327421904D01*
X231401904Y-327469523D01*
X230592380Y-327469523D01*
X230592380Y-328374285D02*
X230592380Y-328183809D01*
X230640000Y-328088571D01*
X230687619Y-328040952D01*
X230830476Y-327945714D01*
X231020952Y-327898095D01*
X231401904Y-327898095D01*
X231497142Y-327945714D01*
X231544761Y-327993333D01*
X231592380Y-328088571D01*
X231592380Y-328279047D01*
X231544761Y-328374285D01*
X231497142Y-328421904D01*
X231401904Y-328469523D01*
X231163809Y-328469523D01*
X231068571Y-328421904D01*
X231020952Y-328374285D01*
X230973333Y-328279047D01*
X230973333Y-328088571D01*
X231020952Y-327993333D01*
X231068571Y-327945714D01*
X231163809Y-327898095D01*
%TO.C,U7*%
X230592380Y-305308095D02*
X231401904Y-305308095D01*
X231497142Y-305355714D01*
X231544761Y-305403333D01*
X231592380Y-305498571D01*
X231592380Y-305689047D01*
X231544761Y-305784285D01*
X231497142Y-305831904D01*
X231401904Y-305879523D01*
X230592380Y-305879523D01*
X230592380Y-306260476D02*
X230592380Y-306927142D01*
X231592380Y-306498571D01*
%TO.C,U8*%
X230592380Y-281178095D02*
X231401904Y-281178095D01*
X231497142Y-281225714D01*
X231544761Y-281273333D01*
X231592380Y-281368571D01*
X231592380Y-281559047D01*
X231544761Y-281654285D01*
X231497142Y-281701904D01*
X231401904Y-281749523D01*
X230592380Y-281749523D01*
X231020952Y-282368571D02*
X230973333Y-282273333D01*
X230925714Y-282225714D01*
X230830476Y-282178095D01*
X230782857Y-282178095D01*
X230687619Y-282225714D01*
X230640000Y-282273333D01*
X230592380Y-282368571D01*
X230592380Y-282559047D01*
X230640000Y-282654285D01*
X230687619Y-282701904D01*
X230782857Y-282749523D01*
X230830476Y-282749523D01*
X230925714Y-282701904D01*
X230973333Y-282654285D01*
X231020952Y-282559047D01*
X231020952Y-282368571D01*
X231068571Y-282273333D01*
X231116190Y-282225714D01*
X231211428Y-282178095D01*
X231401904Y-282178095D01*
X231497142Y-282225714D01*
X231544761Y-282273333D01*
X231592380Y-282368571D01*
X231592380Y-282559047D01*
X231544761Y-282654285D01*
X231497142Y-282701904D01*
X231401904Y-282749523D01*
X231211428Y-282749523D01*
X231116190Y-282701904D01*
X231068571Y-282654285D01*
X231020952Y-282559047D01*
%TO.C,U9*%
X230592380Y-259588095D02*
X231401904Y-259588095D01*
X231497142Y-259635714D01*
X231544761Y-259683333D01*
X231592380Y-259778571D01*
X231592380Y-259969047D01*
X231544761Y-260064285D01*
X231497142Y-260111904D01*
X231401904Y-260159523D01*
X230592380Y-260159523D01*
X231592380Y-260683333D02*
X231592380Y-260873809D01*
X231544761Y-260969047D01*
X231497142Y-261016666D01*
X231354285Y-261111904D01*
X231163809Y-261159523D01*
X230782857Y-261159523D01*
X230687619Y-261111904D01*
X230640000Y-261064285D01*
X230592380Y-260969047D01*
X230592380Y-260778571D01*
X230640000Y-260683333D01*
X230687619Y-260635714D01*
X230782857Y-260588095D01*
X231020952Y-260588095D01*
X231116190Y-260635714D01*
X231163809Y-260683333D01*
X231211428Y-260778571D01*
X231211428Y-260969047D01*
X231163809Y-261064285D01*
X231116190Y-261111904D01*
X231020952Y-261159523D01*
%TO.C,U10*%
X269962380Y-330231904D02*
X270771904Y-330231904D01*
X270867142Y-330279523D01*
X270914761Y-330327142D01*
X270962380Y-330422380D01*
X270962380Y-330612857D01*
X270914761Y-330708095D01*
X270867142Y-330755714D01*
X270771904Y-330803333D01*
X269962380Y-330803333D01*
X270962380Y-331803333D02*
X270962380Y-331231904D01*
X270962380Y-331517619D02*
X269962380Y-331517619D01*
X270105238Y-331422380D01*
X270200476Y-331327142D01*
X270248095Y-331231904D01*
X269962380Y-332422380D02*
X269962380Y-332517619D01*
X270010000Y-332612857D01*
X270057619Y-332660476D01*
X270152857Y-332708095D01*
X270343333Y-332755714D01*
X270581428Y-332755714D01*
X270771904Y-332708095D01*
X270867142Y-332660476D01*
X270914761Y-332612857D01*
X270962380Y-332517619D01*
X270962380Y-332422380D01*
X270914761Y-332327142D01*
X270867142Y-332279523D01*
X270771904Y-332231904D01*
X270581428Y-332184285D01*
X270343333Y-332184285D01*
X270152857Y-332231904D01*
X270057619Y-332279523D01*
X270010000Y-332327142D01*
X269962380Y-332422380D01*
%TO.C,U11*%
X269962380Y-316261904D02*
X270771904Y-316261904D01*
X270867142Y-316309523D01*
X270914761Y-316357142D01*
X270962380Y-316452380D01*
X270962380Y-316642857D01*
X270914761Y-316738095D01*
X270867142Y-316785714D01*
X270771904Y-316833333D01*
X269962380Y-316833333D01*
X270962380Y-317833333D02*
X270962380Y-317261904D01*
X270962380Y-317547619D02*
X269962380Y-317547619D01*
X270105238Y-317452380D01*
X270200476Y-317357142D01*
X270248095Y-317261904D01*
X270962380Y-318785714D02*
X270962380Y-318214285D01*
X270962380Y-318500000D02*
X269962380Y-318500000D01*
X270105238Y-318404761D01*
X270200476Y-318309523D01*
X270248095Y-318214285D01*
%TO.C,U12*%
X269962380Y-301021904D02*
X270771904Y-301021904D01*
X270867142Y-301069523D01*
X270914761Y-301117142D01*
X270962380Y-301212380D01*
X270962380Y-301402857D01*
X270914761Y-301498095D01*
X270867142Y-301545714D01*
X270771904Y-301593333D01*
X269962380Y-301593333D01*
X270962380Y-302593333D02*
X270962380Y-302021904D01*
X270962380Y-302307619D02*
X269962380Y-302307619D01*
X270105238Y-302212380D01*
X270200476Y-302117142D01*
X270248095Y-302021904D01*
X270057619Y-302974285D02*
X270010000Y-303021904D01*
X269962380Y-303117142D01*
X269962380Y-303355238D01*
X270010000Y-303450476D01*
X270057619Y-303498095D01*
X270152857Y-303545714D01*
X270248095Y-303545714D01*
X270390952Y-303498095D01*
X270962380Y-302926666D01*
X270962380Y-303545714D01*
%TO.C,U13*%
X269962380Y-285781904D02*
X270771904Y-285781904D01*
X270867142Y-285829523D01*
X270914761Y-285877142D01*
X270962380Y-285972380D01*
X270962380Y-286162857D01*
X270914761Y-286258095D01*
X270867142Y-286305714D01*
X270771904Y-286353333D01*
X269962380Y-286353333D01*
X270962380Y-287353333D02*
X270962380Y-286781904D01*
X270962380Y-287067619D02*
X269962380Y-287067619D01*
X270105238Y-286972380D01*
X270200476Y-286877142D01*
X270248095Y-286781904D01*
X269962380Y-287686666D02*
X269962380Y-288305714D01*
X270343333Y-287972380D01*
X270343333Y-288115238D01*
X270390952Y-288210476D01*
X270438571Y-288258095D01*
X270533809Y-288305714D01*
X270771904Y-288305714D01*
X270867142Y-288258095D01*
X270914761Y-288210476D01*
X270962380Y-288115238D01*
X270962380Y-287829523D01*
X270914761Y-287734285D01*
X270867142Y-287686666D01*
%TO.C,U14*%
X269962380Y-270541904D02*
X270771904Y-270541904D01*
X270867142Y-270589523D01*
X270914761Y-270637142D01*
X270962380Y-270732380D01*
X270962380Y-270922857D01*
X270914761Y-271018095D01*
X270867142Y-271065714D01*
X270771904Y-271113333D01*
X269962380Y-271113333D01*
X270962380Y-272113333D02*
X270962380Y-271541904D01*
X270962380Y-271827619D02*
X269962380Y-271827619D01*
X270105238Y-271732380D01*
X270200476Y-271637142D01*
X270248095Y-271541904D01*
X270295714Y-272970476D02*
X270962380Y-272970476D01*
X269914761Y-272732380D02*
X270629047Y-272494285D01*
X270629047Y-273113333D01*
%TO.C,U15*%
X269962380Y-255301904D02*
X270771904Y-255301904D01*
X270867142Y-255349523D01*
X270914761Y-255397142D01*
X270962380Y-255492380D01*
X270962380Y-255682857D01*
X270914761Y-255778095D01*
X270867142Y-255825714D01*
X270771904Y-255873333D01*
X269962380Y-255873333D01*
X270962380Y-256873333D02*
X270962380Y-256301904D01*
X270962380Y-256587619D02*
X269962380Y-256587619D01*
X270105238Y-256492380D01*
X270200476Y-256397142D01*
X270248095Y-256301904D01*
X269962380Y-257778095D02*
X269962380Y-257301904D01*
X270438571Y-257254285D01*
X270390952Y-257301904D01*
X270343333Y-257397142D01*
X270343333Y-257635238D01*
X270390952Y-257730476D01*
X270438571Y-257778095D01*
X270533809Y-257825714D01*
X270771904Y-257825714D01*
X270867142Y-257778095D01*
X270914761Y-257730476D01*
X270962380Y-257635238D01*
X270962380Y-257397142D01*
X270914761Y-257301904D01*
X270867142Y-257254285D01*
%TO.C,U16*%
X269962380Y-227361904D02*
X270771904Y-227361904D01*
X270867142Y-227409523D01*
X270914761Y-227457142D01*
X270962380Y-227552380D01*
X270962380Y-227742857D01*
X270914761Y-227838095D01*
X270867142Y-227885714D01*
X270771904Y-227933333D01*
X269962380Y-227933333D01*
X270962380Y-228933333D02*
X270962380Y-228361904D01*
X270962380Y-228647619D02*
X269962380Y-228647619D01*
X270105238Y-228552380D01*
X270200476Y-228457142D01*
X270248095Y-228361904D01*
X269962380Y-229790476D02*
X269962380Y-229600000D01*
X270010000Y-229504761D01*
X270057619Y-229457142D01*
X270200476Y-229361904D01*
X270390952Y-229314285D01*
X270771904Y-229314285D01*
X270867142Y-229361904D01*
X270914761Y-229409523D01*
X270962380Y-229504761D01*
X270962380Y-229695238D01*
X270914761Y-229790476D01*
X270867142Y-229838095D01*
X270771904Y-229885714D01*
X270533809Y-229885714D01*
X270438571Y-229838095D01*
X270390952Y-229790476D01*
X270343333Y-229695238D01*
X270343333Y-229504761D01*
X270390952Y-229409523D01*
X270438571Y-229361904D01*
X270533809Y-229314285D01*
%TO.C,U17*%
X319492380Y-189261904D02*
X320301904Y-189261904D01*
X320397142Y-189309523D01*
X320444761Y-189357142D01*
X320492380Y-189452380D01*
X320492380Y-189642857D01*
X320444761Y-189738095D01*
X320397142Y-189785714D01*
X320301904Y-189833333D01*
X319492380Y-189833333D01*
X320492380Y-190833333D02*
X320492380Y-190261904D01*
X320492380Y-190547619D02*
X319492380Y-190547619D01*
X319635238Y-190452380D01*
X319730476Y-190357142D01*
X319778095Y-190261904D01*
X319492380Y-191166666D02*
X319492380Y-191833333D01*
X320492380Y-191404761D01*
%TO.C,U18*%
X319492380Y-170211904D02*
X320301904Y-170211904D01*
X320397142Y-170259523D01*
X320444761Y-170307142D01*
X320492380Y-170402380D01*
X320492380Y-170592857D01*
X320444761Y-170688095D01*
X320397142Y-170735714D01*
X320301904Y-170783333D01*
X319492380Y-170783333D01*
X320492380Y-171783333D02*
X320492380Y-171211904D01*
X320492380Y-171497619D02*
X319492380Y-171497619D01*
X319635238Y-171402380D01*
X319730476Y-171307142D01*
X319778095Y-171211904D01*
X319920952Y-172354761D02*
X319873333Y-172259523D01*
X319825714Y-172211904D01*
X319730476Y-172164285D01*
X319682857Y-172164285D01*
X319587619Y-172211904D01*
X319540000Y-172259523D01*
X319492380Y-172354761D01*
X319492380Y-172545238D01*
X319540000Y-172640476D01*
X319587619Y-172688095D01*
X319682857Y-172735714D01*
X319730476Y-172735714D01*
X319825714Y-172688095D01*
X319873333Y-172640476D01*
X319920952Y-172545238D01*
X319920952Y-172354761D01*
X319968571Y-172259523D01*
X320016190Y-172211904D01*
X320111428Y-172164285D01*
X320301904Y-172164285D01*
X320397142Y-172211904D01*
X320444761Y-172259523D01*
X320492380Y-172354761D01*
X320492380Y-172545238D01*
X320444761Y-172640476D01*
X320397142Y-172688095D01*
X320301904Y-172735714D01*
X320111428Y-172735714D01*
X320016190Y-172688095D01*
X319968571Y-172640476D01*
X319920952Y-172545238D01*
%TO.C,U19*%
X302982380Y-154971904D02*
X303791904Y-154971904D01*
X303887142Y-155019523D01*
X303934761Y-155067142D01*
X303982380Y-155162380D01*
X303982380Y-155352857D01*
X303934761Y-155448095D01*
X303887142Y-155495714D01*
X303791904Y-155543333D01*
X302982380Y-155543333D01*
X303982380Y-156543333D02*
X303982380Y-155971904D01*
X303982380Y-156257619D02*
X302982380Y-156257619D01*
X303125238Y-156162380D01*
X303220476Y-156067142D01*
X303268095Y-155971904D01*
X303982380Y-157019523D02*
X303982380Y-157210000D01*
X303934761Y-157305238D01*
X303887142Y-157352857D01*
X303744285Y-157448095D01*
X303553809Y-157495714D01*
X303172857Y-157495714D01*
X303077619Y-157448095D01*
X303030000Y-157400476D01*
X302982380Y-157305238D01*
X302982380Y-157114761D01*
X303030000Y-157019523D01*
X303077619Y-156971904D01*
X303172857Y-156924285D01*
X303410952Y-156924285D01*
X303506190Y-156971904D01*
X303553809Y-157019523D01*
X303601428Y-157114761D01*
X303601428Y-157305238D01*
X303553809Y-157400476D01*
X303506190Y-157448095D01*
X303410952Y-157495714D01*
%TO.C,U20*%
X329652380Y-154971904D02*
X330461904Y-154971904D01*
X330557142Y-155019523D01*
X330604761Y-155067142D01*
X330652380Y-155162380D01*
X330652380Y-155352857D01*
X330604761Y-155448095D01*
X330557142Y-155495714D01*
X330461904Y-155543333D01*
X329652380Y-155543333D01*
X329747619Y-155971904D02*
X329700000Y-156019523D01*
X329652380Y-156114761D01*
X329652380Y-156352857D01*
X329700000Y-156448095D01*
X329747619Y-156495714D01*
X329842857Y-156543333D01*
X329938095Y-156543333D01*
X330080952Y-156495714D01*
X330652380Y-155924285D01*
X330652380Y-156543333D01*
X329652380Y-157162380D02*
X329652380Y-157257619D01*
X329700000Y-157352857D01*
X329747619Y-157400476D01*
X329842857Y-157448095D01*
X330033333Y-157495714D01*
X330271428Y-157495714D01*
X330461904Y-157448095D01*
X330557142Y-157400476D01*
X330604761Y-157352857D01*
X330652380Y-157257619D01*
X330652380Y-157162380D01*
X330604761Y-157067142D01*
X330557142Y-157019523D01*
X330461904Y-156971904D01*
X330271428Y-156924285D01*
X330033333Y-156924285D01*
X329842857Y-156971904D01*
X329747619Y-157019523D01*
X329700000Y-157067142D01*
X329652380Y-157162380D01*
%TO.C,U32*%
X319492380Y-208311904D02*
X320301904Y-208311904D01*
X320397142Y-208359523D01*
X320444761Y-208407142D01*
X320492380Y-208502380D01*
X320492380Y-208692857D01*
X320444761Y-208788095D01*
X320397142Y-208835714D01*
X320301904Y-208883333D01*
X319492380Y-208883333D01*
X319492380Y-209264285D02*
X319492380Y-209883333D01*
X319873333Y-209550000D01*
X319873333Y-209692857D01*
X319920952Y-209788095D01*
X319968571Y-209835714D01*
X320063809Y-209883333D01*
X320301904Y-209883333D01*
X320397142Y-209835714D01*
X320444761Y-209788095D01*
X320492380Y-209692857D01*
X320492380Y-209407142D01*
X320444761Y-209311904D01*
X320397142Y-209264285D01*
X319587619Y-210264285D02*
X319540000Y-210311904D01*
X319492380Y-210407142D01*
X319492380Y-210645238D01*
X319540000Y-210740476D01*
X319587619Y-210788095D01*
X319682857Y-210835714D01*
X319778095Y-210835714D01*
X319920952Y-210788095D01*
X320492380Y-210216666D01*
X320492380Y-210835714D01*
%TO.C,U33*%
X322032380Y-289591904D02*
X322841904Y-289591904D01*
X322937142Y-289639523D01*
X322984761Y-289687142D01*
X323032380Y-289782380D01*
X323032380Y-289972857D01*
X322984761Y-290068095D01*
X322937142Y-290115714D01*
X322841904Y-290163333D01*
X322032380Y-290163333D01*
X322032380Y-290544285D02*
X322032380Y-291163333D01*
X322413333Y-290830000D01*
X322413333Y-290972857D01*
X322460952Y-291068095D01*
X322508571Y-291115714D01*
X322603809Y-291163333D01*
X322841904Y-291163333D01*
X322937142Y-291115714D01*
X322984761Y-291068095D01*
X323032380Y-290972857D01*
X323032380Y-290687142D01*
X322984761Y-290591904D01*
X322937142Y-290544285D01*
X322032380Y-291496666D02*
X322032380Y-292115714D01*
X322413333Y-291782380D01*
X322413333Y-291925238D01*
X322460952Y-292020476D01*
X322508571Y-292068095D01*
X322603809Y-292115714D01*
X322841904Y-292115714D01*
X322937142Y-292068095D01*
X322984761Y-292020476D01*
X323032380Y-291925238D01*
X323032380Y-291639523D01*
X322984761Y-291544285D01*
X322937142Y-291496666D01*
%TO.C,U34*%
X163282380Y-327691904D02*
X164091904Y-327691904D01*
X164187142Y-327739523D01*
X164234761Y-327787142D01*
X164282380Y-327882380D01*
X164282380Y-328072857D01*
X164234761Y-328168095D01*
X164187142Y-328215714D01*
X164091904Y-328263333D01*
X163282380Y-328263333D01*
X163282380Y-328644285D02*
X163282380Y-329263333D01*
X163663333Y-328930000D01*
X163663333Y-329072857D01*
X163710952Y-329168095D01*
X163758571Y-329215714D01*
X163853809Y-329263333D01*
X164091904Y-329263333D01*
X164187142Y-329215714D01*
X164234761Y-329168095D01*
X164282380Y-329072857D01*
X164282380Y-328787142D01*
X164234761Y-328691904D01*
X164187142Y-328644285D01*
X163615714Y-330120476D02*
X164282380Y-330120476D01*
X163234761Y-329882380D02*
X163949047Y-329644285D01*
X163949047Y-330263333D01*
%TO.C,U35*%
X177252380Y-367061904D02*
X178061904Y-367061904D01*
X178157142Y-367109523D01*
X178204761Y-367157142D01*
X178252380Y-367252380D01*
X178252380Y-367442857D01*
X178204761Y-367538095D01*
X178157142Y-367585714D01*
X178061904Y-367633333D01*
X177252380Y-367633333D01*
X177252380Y-368014285D02*
X177252380Y-368633333D01*
X177633333Y-368300000D01*
X177633333Y-368442857D01*
X177680952Y-368538095D01*
X177728571Y-368585714D01*
X177823809Y-368633333D01*
X178061904Y-368633333D01*
X178157142Y-368585714D01*
X178204761Y-368538095D01*
X178252380Y-368442857D01*
X178252380Y-368157142D01*
X178204761Y-368061904D01*
X178157142Y-368014285D01*
X177252380Y-369538095D02*
X177252380Y-369061904D01*
X177728571Y-369014285D01*
X177680952Y-369061904D01*
X177633333Y-369157142D01*
X177633333Y-369395238D01*
X177680952Y-369490476D01*
X177728571Y-369538095D01*
X177823809Y-369585714D01*
X178061904Y-369585714D01*
X178157142Y-369538095D01*
X178204761Y-369490476D01*
X178252380Y-369395238D01*
X178252380Y-369157142D01*
X178204761Y-369061904D01*
X178157142Y-369014285D01*
%TO.C,U36*%
X177252380Y-349281904D02*
X178061904Y-349281904D01*
X178157142Y-349329523D01*
X178204761Y-349377142D01*
X178252380Y-349472380D01*
X178252380Y-349662857D01*
X178204761Y-349758095D01*
X178157142Y-349805714D01*
X178061904Y-349853333D01*
X177252380Y-349853333D01*
X177252380Y-350234285D02*
X177252380Y-350853333D01*
X177633333Y-350520000D01*
X177633333Y-350662857D01*
X177680952Y-350758095D01*
X177728571Y-350805714D01*
X177823809Y-350853333D01*
X178061904Y-350853333D01*
X178157142Y-350805714D01*
X178204761Y-350758095D01*
X178252380Y-350662857D01*
X178252380Y-350377142D01*
X178204761Y-350281904D01*
X178157142Y-350234285D01*
X177252380Y-351710476D02*
X177252380Y-351520000D01*
X177300000Y-351424761D01*
X177347619Y-351377142D01*
X177490476Y-351281904D01*
X177680952Y-351234285D01*
X178061904Y-351234285D01*
X178157142Y-351281904D01*
X178204761Y-351329523D01*
X178252380Y-351424761D01*
X178252380Y-351615238D01*
X178204761Y-351710476D01*
X178157142Y-351758095D01*
X178061904Y-351805714D01*
X177823809Y-351805714D01*
X177728571Y-351758095D01*
X177680952Y-351710476D01*
X177633333Y-351615238D01*
X177633333Y-351424761D01*
X177680952Y-351329523D01*
X177728571Y-351281904D01*
X177823809Y-351234285D01*
%TO.C,U37*%
X142962380Y-367061904D02*
X143771904Y-367061904D01*
X143867142Y-367109523D01*
X143914761Y-367157142D01*
X143962380Y-367252380D01*
X143962380Y-367442857D01*
X143914761Y-367538095D01*
X143867142Y-367585714D01*
X143771904Y-367633333D01*
X142962380Y-367633333D01*
X142962380Y-368014285D02*
X142962380Y-368633333D01*
X143343333Y-368300000D01*
X143343333Y-368442857D01*
X143390952Y-368538095D01*
X143438571Y-368585714D01*
X143533809Y-368633333D01*
X143771904Y-368633333D01*
X143867142Y-368585714D01*
X143914761Y-368538095D01*
X143962380Y-368442857D01*
X143962380Y-368157142D01*
X143914761Y-368061904D01*
X143867142Y-368014285D01*
X142962380Y-368966666D02*
X142962380Y-369633333D01*
X143962380Y-369204761D01*
%TO.C,U38*%
X142962380Y-355631904D02*
X143771904Y-355631904D01*
X143867142Y-355679523D01*
X143914761Y-355727142D01*
X143962380Y-355822380D01*
X143962380Y-356012857D01*
X143914761Y-356108095D01*
X143867142Y-356155714D01*
X143771904Y-356203333D01*
X142962380Y-356203333D01*
X142962380Y-356584285D02*
X142962380Y-357203333D01*
X143343333Y-356870000D01*
X143343333Y-357012857D01*
X143390952Y-357108095D01*
X143438571Y-357155714D01*
X143533809Y-357203333D01*
X143771904Y-357203333D01*
X143867142Y-357155714D01*
X143914761Y-357108095D01*
X143962380Y-357012857D01*
X143962380Y-356727142D01*
X143914761Y-356631904D01*
X143867142Y-356584285D01*
X143390952Y-357774761D02*
X143343333Y-357679523D01*
X143295714Y-357631904D01*
X143200476Y-357584285D01*
X143152857Y-357584285D01*
X143057619Y-357631904D01*
X143010000Y-357679523D01*
X142962380Y-357774761D01*
X142962380Y-357965238D01*
X143010000Y-358060476D01*
X143057619Y-358108095D01*
X143152857Y-358155714D01*
X143200476Y-358155714D01*
X143295714Y-358108095D01*
X143343333Y-358060476D01*
X143390952Y-357965238D01*
X143390952Y-357774761D01*
X143438571Y-357679523D01*
X143486190Y-357631904D01*
X143581428Y-357584285D01*
X143771904Y-357584285D01*
X143867142Y-357631904D01*
X143914761Y-357679523D01*
X143962380Y-357774761D01*
X143962380Y-357965238D01*
X143914761Y-358060476D01*
X143867142Y-358108095D01*
X143771904Y-358155714D01*
X143581428Y-358155714D01*
X143486190Y-358108095D01*
X143438571Y-358060476D01*
X143390952Y-357965238D01*
%TO.C,U39*%
X140422380Y-344201904D02*
X141231904Y-344201904D01*
X141327142Y-344249523D01*
X141374761Y-344297142D01*
X141422380Y-344392380D01*
X141422380Y-344582857D01*
X141374761Y-344678095D01*
X141327142Y-344725714D01*
X141231904Y-344773333D01*
X140422380Y-344773333D01*
X140422380Y-345154285D02*
X140422380Y-345773333D01*
X140803333Y-345440000D01*
X140803333Y-345582857D01*
X140850952Y-345678095D01*
X140898571Y-345725714D01*
X140993809Y-345773333D01*
X141231904Y-345773333D01*
X141327142Y-345725714D01*
X141374761Y-345678095D01*
X141422380Y-345582857D01*
X141422380Y-345297142D01*
X141374761Y-345201904D01*
X141327142Y-345154285D01*
X141422380Y-346249523D02*
X141422380Y-346440000D01*
X141374761Y-346535238D01*
X141327142Y-346582857D01*
X141184285Y-346678095D01*
X140993809Y-346725714D01*
X140612857Y-346725714D01*
X140517619Y-346678095D01*
X140470000Y-346630476D01*
X140422380Y-346535238D01*
X140422380Y-346344761D01*
X140470000Y-346249523D01*
X140517619Y-346201904D01*
X140612857Y-346154285D01*
X140850952Y-346154285D01*
X140946190Y-346201904D01*
X140993809Y-346249523D01*
X141041428Y-346344761D01*
X141041428Y-346535238D01*
X140993809Y-346630476D01*
X140946190Y-346678095D01*
X140850952Y-346725714D01*
%TO.C,U40*%
X225512380Y-227361904D02*
X226321904Y-227361904D01*
X226417142Y-227409523D01*
X226464761Y-227457142D01*
X226512380Y-227552380D01*
X226512380Y-227742857D01*
X226464761Y-227838095D01*
X226417142Y-227885714D01*
X226321904Y-227933333D01*
X225512380Y-227933333D01*
X225845714Y-228838095D02*
X226512380Y-228838095D01*
X225464761Y-228600000D02*
X226179047Y-228361904D01*
X226179047Y-228980952D01*
X225512380Y-229552380D02*
X225512380Y-229647619D01*
X225560000Y-229742857D01*
X225607619Y-229790476D01*
X225702857Y-229838095D01*
X225893333Y-229885714D01*
X226131428Y-229885714D01*
X226321904Y-229838095D01*
X226417142Y-229790476D01*
X226464761Y-229742857D01*
X226512380Y-229647619D01*
X226512380Y-229552380D01*
X226464761Y-229457142D01*
X226417142Y-229409523D01*
X226321904Y-229361904D01*
X226131428Y-229314285D01*
X225893333Y-229314285D01*
X225702857Y-229361904D01*
X225607619Y-229409523D01*
X225560000Y-229457142D01*
X225512380Y-229552380D01*
%TO.C,U57*%
X319492380Y-227361904D02*
X320301904Y-227361904D01*
X320397142Y-227409523D01*
X320444761Y-227457142D01*
X320492380Y-227552380D01*
X320492380Y-227742857D01*
X320444761Y-227838095D01*
X320397142Y-227885714D01*
X320301904Y-227933333D01*
X319492380Y-227933333D01*
X319492380Y-228885714D02*
X319492380Y-228409523D01*
X319968571Y-228361904D01*
X319920952Y-228409523D01*
X319873333Y-228504761D01*
X319873333Y-228742857D01*
X319920952Y-228838095D01*
X319968571Y-228885714D01*
X320063809Y-228933333D01*
X320301904Y-228933333D01*
X320397142Y-228885714D01*
X320444761Y-228838095D01*
X320492380Y-228742857D01*
X320492380Y-228504761D01*
X320444761Y-228409523D01*
X320397142Y-228361904D01*
X319492380Y-229266666D02*
X319492380Y-229933333D01*
X320492380Y-229504761D01*
%TO.C,U58*%
X336002380Y-242601904D02*
X336811904Y-242601904D01*
X336907142Y-242649523D01*
X336954761Y-242697142D01*
X337002380Y-242792380D01*
X337002380Y-242982857D01*
X336954761Y-243078095D01*
X336907142Y-243125714D01*
X336811904Y-243173333D01*
X336002380Y-243173333D01*
X336002380Y-244125714D02*
X336002380Y-243649523D01*
X336478571Y-243601904D01*
X336430952Y-243649523D01*
X336383333Y-243744761D01*
X336383333Y-243982857D01*
X336430952Y-244078095D01*
X336478571Y-244125714D01*
X336573809Y-244173333D01*
X336811904Y-244173333D01*
X336907142Y-244125714D01*
X336954761Y-244078095D01*
X337002380Y-243982857D01*
X337002380Y-243744761D01*
X336954761Y-243649523D01*
X336907142Y-243601904D01*
X336430952Y-244744761D02*
X336383333Y-244649523D01*
X336335714Y-244601904D01*
X336240476Y-244554285D01*
X336192857Y-244554285D01*
X336097619Y-244601904D01*
X336050000Y-244649523D01*
X336002380Y-244744761D01*
X336002380Y-244935238D01*
X336050000Y-245030476D01*
X336097619Y-245078095D01*
X336192857Y-245125714D01*
X336240476Y-245125714D01*
X336335714Y-245078095D01*
X336383333Y-245030476D01*
X336430952Y-244935238D01*
X336430952Y-244744761D01*
X336478571Y-244649523D01*
X336526190Y-244601904D01*
X336621428Y-244554285D01*
X336811904Y-244554285D01*
X336907142Y-244601904D01*
X336954761Y-244649523D01*
X337002380Y-244744761D01*
X337002380Y-244935238D01*
X336954761Y-245030476D01*
X336907142Y-245078095D01*
X336811904Y-245125714D01*
X336621428Y-245125714D01*
X336526190Y-245078095D01*
X336478571Y-245030476D01*
X336430952Y-244935238D01*
%TO.C,U59*%
X336002380Y-254031904D02*
X336811904Y-254031904D01*
X336907142Y-254079523D01*
X336954761Y-254127142D01*
X337002380Y-254222380D01*
X337002380Y-254412857D01*
X336954761Y-254508095D01*
X336907142Y-254555714D01*
X336811904Y-254603333D01*
X336002380Y-254603333D01*
X336002380Y-255555714D02*
X336002380Y-255079523D01*
X336478571Y-255031904D01*
X336430952Y-255079523D01*
X336383333Y-255174761D01*
X336383333Y-255412857D01*
X336430952Y-255508095D01*
X336478571Y-255555714D01*
X336573809Y-255603333D01*
X336811904Y-255603333D01*
X336907142Y-255555714D01*
X336954761Y-255508095D01*
X337002380Y-255412857D01*
X337002380Y-255174761D01*
X336954761Y-255079523D01*
X336907142Y-255031904D01*
X337002380Y-256079523D02*
X337002380Y-256270000D01*
X336954761Y-256365238D01*
X336907142Y-256412857D01*
X336764285Y-256508095D01*
X336573809Y-256555714D01*
X336192857Y-256555714D01*
X336097619Y-256508095D01*
X336050000Y-256460476D01*
X336002380Y-256365238D01*
X336002380Y-256174761D01*
X336050000Y-256079523D01*
X336097619Y-256031904D01*
X336192857Y-255984285D01*
X336430952Y-255984285D01*
X336526190Y-256031904D01*
X336573809Y-256079523D01*
X336621428Y-256174761D01*
X336621428Y-256365238D01*
X336573809Y-256460476D01*
X336526190Y-256508095D01*
X336430952Y-256555714D01*
%TO.C,U60*%
X302982380Y-254031904D02*
X303791904Y-254031904D01*
X303887142Y-254079523D01*
X303934761Y-254127142D01*
X303982380Y-254222380D01*
X303982380Y-254412857D01*
X303934761Y-254508095D01*
X303887142Y-254555714D01*
X303791904Y-254603333D01*
X302982380Y-254603333D01*
X302982380Y-255508095D02*
X302982380Y-255317619D01*
X303030000Y-255222380D01*
X303077619Y-255174761D01*
X303220476Y-255079523D01*
X303410952Y-255031904D01*
X303791904Y-255031904D01*
X303887142Y-255079523D01*
X303934761Y-255127142D01*
X303982380Y-255222380D01*
X303982380Y-255412857D01*
X303934761Y-255508095D01*
X303887142Y-255555714D01*
X303791904Y-255603333D01*
X303553809Y-255603333D01*
X303458571Y-255555714D01*
X303410952Y-255508095D01*
X303363333Y-255412857D01*
X303363333Y-255222380D01*
X303410952Y-255127142D01*
X303458571Y-255079523D01*
X303553809Y-255031904D01*
X302982380Y-256222380D02*
X302982380Y-256317619D01*
X303030000Y-256412857D01*
X303077619Y-256460476D01*
X303172857Y-256508095D01*
X303363333Y-256555714D01*
X303601428Y-256555714D01*
X303791904Y-256508095D01*
X303887142Y-256460476D01*
X303934761Y-256412857D01*
X303982380Y-256317619D01*
X303982380Y-256222380D01*
X303934761Y-256127142D01*
X303887142Y-256079523D01*
X303791904Y-256031904D01*
X303601428Y-255984285D01*
X303363333Y-255984285D01*
X303172857Y-256031904D01*
X303077619Y-256079523D01*
X303030000Y-256127142D01*
X302982380Y-256222380D01*
%TO.C,U100*%
X221702380Y-342455714D02*
X222511904Y-342455714D01*
X222607142Y-342503333D01*
X222654761Y-342550952D01*
X222702380Y-342646190D01*
X222702380Y-342836666D01*
X222654761Y-342931904D01*
X222607142Y-342979523D01*
X222511904Y-343027142D01*
X221702380Y-343027142D01*
X222702380Y-344027142D02*
X222702380Y-343455714D01*
X222702380Y-343741428D02*
X221702380Y-343741428D01*
X221845238Y-343646190D01*
X221940476Y-343550952D01*
X221988095Y-343455714D01*
X221702380Y-344646190D02*
X221702380Y-344741428D01*
X221750000Y-344836666D01*
X221797619Y-344884285D01*
X221892857Y-344931904D01*
X222083333Y-344979523D01*
X222321428Y-344979523D01*
X222511904Y-344931904D01*
X222607142Y-344884285D01*
X222654761Y-344836666D01*
X222702380Y-344741428D01*
X222702380Y-344646190D01*
X222654761Y-344550952D01*
X222607142Y-344503333D01*
X222511904Y-344455714D01*
X222321428Y-344408095D01*
X222083333Y-344408095D01*
X221892857Y-344455714D01*
X221797619Y-344503333D01*
X221750000Y-344550952D01*
X221702380Y-344646190D01*
X221702380Y-345598571D02*
X221702380Y-345693809D01*
X221750000Y-345789047D01*
X221797619Y-345836666D01*
X221892857Y-345884285D01*
X222083333Y-345931904D01*
X222321428Y-345931904D01*
X222511904Y-345884285D01*
X222607142Y-345836666D01*
X222654761Y-345789047D01*
X222702380Y-345693809D01*
X222702380Y-345598571D01*
X222654761Y-345503333D01*
X222607142Y-345455714D01*
X222511904Y-345408095D01*
X222321428Y-345360476D01*
X222083333Y-345360476D01*
X221892857Y-345408095D01*
X221797619Y-345455714D01*
X221750000Y-345503333D01*
X221702380Y-345598571D01*
%TO.C,U101*%
X248372380Y-342455714D02*
X249181904Y-342455714D01*
X249277142Y-342503333D01*
X249324761Y-342550952D01*
X249372380Y-342646190D01*
X249372380Y-342836666D01*
X249324761Y-342931904D01*
X249277142Y-342979523D01*
X249181904Y-343027142D01*
X248372380Y-343027142D01*
X249372380Y-344027142D02*
X249372380Y-343455714D01*
X249372380Y-343741428D02*
X248372380Y-343741428D01*
X248515238Y-343646190D01*
X248610476Y-343550952D01*
X248658095Y-343455714D01*
X248372380Y-344646190D02*
X248372380Y-344741428D01*
X248420000Y-344836666D01*
X248467619Y-344884285D01*
X248562857Y-344931904D01*
X248753333Y-344979523D01*
X248991428Y-344979523D01*
X249181904Y-344931904D01*
X249277142Y-344884285D01*
X249324761Y-344836666D01*
X249372380Y-344741428D01*
X249372380Y-344646190D01*
X249324761Y-344550952D01*
X249277142Y-344503333D01*
X249181904Y-344455714D01*
X248991428Y-344408095D01*
X248753333Y-344408095D01*
X248562857Y-344455714D01*
X248467619Y-344503333D01*
X248420000Y-344550952D01*
X248372380Y-344646190D01*
X249372380Y-345931904D02*
X249372380Y-345360476D01*
X249372380Y-345646190D02*
X248372380Y-345646190D01*
X248515238Y-345550952D01*
X248610476Y-345455714D01*
X248658095Y-345360476D01*
%TO.C,X1*%
X275042380Y-343360476D02*
X276042380Y-344027142D01*
X275042380Y-344027142D02*
X276042380Y-343360476D01*
X276042380Y-344931904D02*
X276042380Y-344360476D01*
X276042380Y-344646190D02*
X275042380Y-344646190D01*
X275185238Y-344550952D01*
X275280476Y-344455714D01*
X275328095Y-344360476D01*
%TO.C,X2*%
X276312380Y-174450476D02*
X277312380Y-175117142D01*
X276312380Y-175117142D02*
X277312380Y-174450476D01*
X276407619Y-175450476D02*
X276360000Y-175498095D01*
X276312380Y-175593333D01*
X276312380Y-175831428D01*
X276360000Y-175926666D01*
X276407619Y-175974285D01*
X276502857Y-176021904D01*
X276598095Y-176021904D01*
X276740952Y-175974285D01*
X277312380Y-175402857D01*
X277312380Y-176021904D01*
%TO.C,X3*%
X302982380Y-243030476D02*
X303982380Y-243697142D01*
X302982380Y-243697142D02*
X303982380Y-243030476D01*
X302982380Y-243982857D02*
X302982380Y-244601904D01*
X303363333Y-244268571D01*
X303363333Y-244411428D01*
X303410952Y-244506666D01*
X303458571Y-244554285D01*
X303553809Y-244601904D01*
X303791904Y-244601904D01*
X303887142Y-244554285D01*
X303934761Y-244506666D01*
X303982380Y-244411428D01*
X303982380Y-244125714D01*
X303934761Y-244030476D01*
X303887142Y-243982857D01*
%TO.C,P7*%
X287472380Y-353591904D02*
X286472380Y-353591904D01*
X286472380Y-353972857D01*
X286520000Y-354068095D01*
X286567619Y-354115714D01*
X286662857Y-354163333D01*
X286805714Y-354163333D01*
X286900952Y-354115714D01*
X286948571Y-354068095D01*
X286996190Y-353972857D01*
X286996190Y-353591904D01*
X286472380Y-354496666D02*
X286472380Y-355163333D01*
X287472380Y-354734761D01*
%TO.C,P8*%
X290012380Y-359941904D02*
X289012380Y-359941904D01*
X289012380Y-360322857D01*
X289060000Y-360418095D01*
X289107619Y-360465714D01*
X289202857Y-360513333D01*
X289345714Y-360513333D01*
X289440952Y-360465714D01*
X289488571Y-360418095D01*
X289536190Y-360322857D01*
X289536190Y-359941904D01*
X289440952Y-361084761D02*
X289393333Y-360989523D01*
X289345714Y-360941904D01*
X289250476Y-360894285D01*
X289202857Y-360894285D01*
X289107619Y-360941904D01*
X289060000Y-360989523D01*
X289012380Y-361084761D01*
X289012380Y-361275238D01*
X289060000Y-361370476D01*
X289107619Y-361418095D01*
X289202857Y-361465714D01*
X289250476Y-361465714D01*
X289345714Y-361418095D01*
X289393333Y-361370476D01*
X289440952Y-361275238D01*
X289440952Y-361084761D01*
X289488571Y-360989523D01*
X289536190Y-360941904D01*
X289631428Y-360894285D01*
X289821904Y-360894285D01*
X289917142Y-360941904D01*
X289964761Y-360989523D01*
X290012380Y-361084761D01*
X290012380Y-361275238D01*
X289964761Y-361370476D01*
X289917142Y-361418095D01*
X289821904Y-361465714D01*
X289631428Y-361465714D01*
X289536190Y-361418095D01*
X289488571Y-361370476D01*
X289440952Y-361275238D01*
%TO.C,C6*%
X129897142Y-328723333D02*
X129944761Y-328675714D01*
X129992380Y-328532857D01*
X129992380Y-328437619D01*
X129944761Y-328294761D01*
X129849523Y-328199523D01*
X129754285Y-328151904D01*
X129563809Y-328104285D01*
X129420952Y-328104285D01*
X129230476Y-328151904D01*
X129135238Y-328199523D01*
X129040000Y-328294761D01*
X128992380Y-328437619D01*
X128992380Y-328532857D01*
X129040000Y-328675714D01*
X129087619Y-328723333D01*
X128992380Y-329580476D02*
X128992380Y-329390000D01*
X129040000Y-329294761D01*
X129087619Y-329247142D01*
X129230476Y-329151904D01*
X129420952Y-329104285D01*
X129801904Y-329104285D01*
X129897142Y-329151904D01*
X129944761Y-329199523D01*
X129992380Y-329294761D01*
X129992380Y-329485238D01*
X129944761Y-329580476D01*
X129897142Y-329628095D01*
X129801904Y-329675714D01*
X129563809Y-329675714D01*
X129468571Y-329628095D01*
X129420952Y-329580476D01*
X129373333Y-329485238D01*
X129373333Y-329294761D01*
X129420952Y-329199523D01*
X129468571Y-329151904D01*
X129563809Y-329104285D01*
%TO.C,C7*%
X198286666Y-284837142D02*
X198334285Y-284884761D01*
X198477142Y-284932380D01*
X198572380Y-284932380D01*
X198715238Y-284884761D01*
X198810476Y-284789523D01*
X198858095Y-284694285D01*
X198905714Y-284503809D01*
X198905714Y-284360952D01*
X198858095Y-284170476D01*
X198810476Y-284075238D01*
X198715238Y-283980000D01*
X198572380Y-283932380D01*
X198477142Y-283932380D01*
X198334285Y-283980000D01*
X198286666Y-284027619D01*
X197953333Y-283932380D02*
X197286666Y-283932380D01*
X197715238Y-284932380D01*
%TO.C,C10*%
X198762857Y-277217142D02*
X198810476Y-277264761D01*
X198953333Y-277312380D01*
X199048571Y-277312380D01*
X199191428Y-277264761D01*
X199286666Y-277169523D01*
X199334285Y-277074285D01*
X199381904Y-276883809D01*
X199381904Y-276740952D01*
X199334285Y-276550476D01*
X199286666Y-276455238D01*
X199191428Y-276360000D01*
X199048571Y-276312380D01*
X198953333Y-276312380D01*
X198810476Y-276360000D01*
X198762857Y-276407619D01*
X197810476Y-277312380D02*
X198381904Y-277312380D01*
X198096190Y-277312380D02*
X198096190Y-276312380D01*
X198191428Y-276455238D01*
X198286666Y-276550476D01*
X198381904Y-276598095D01*
X197191428Y-276312380D02*
X197096190Y-276312380D01*
X197000952Y-276360000D01*
X196953333Y-276407619D01*
X196905714Y-276502857D01*
X196858095Y-276693333D01*
X196858095Y-276931428D01*
X196905714Y-277121904D01*
X196953333Y-277217142D01*
X197000952Y-277264761D01*
X197096190Y-277312380D01*
X197191428Y-277312380D01*
X197286666Y-277264761D01*
X197334285Y-277217142D01*
X197381904Y-277121904D01*
X197429523Y-276931428D01*
X197429523Y-276693333D01*
X197381904Y-276502857D01*
X197334285Y-276407619D01*
X197286666Y-276360000D01*
X197191428Y-276312380D01*
%TO.C,C11*%
X127357142Y-356187142D02*
X127404761Y-356139523D01*
X127452380Y-355996666D01*
X127452380Y-355901428D01*
X127404761Y-355758571D01*
X127309523Y-355663333D01*
X127214285Y-355615714D01*
X127023809Y-355568095D01*
X126880952Y-355568095D01*
X126690476Y-355615714D01*
X126595238Y-355663333D01*
X126500000Y-355758571D01*
X126452380Y-355901428D01*
X126452380Y-355996666D01*
X126500000Y-356139523D01*
X126547619Y-356187142D01*
X127452380Y-357139523D02*
X127452380Y-356568095D01*
X127452380Y-356853809D02*
X126452380Y-356853809D01*
X126595238Y-356758571D01*
X126690476Y-356663333D01*
X126738095Y-356568095D01*
X127452380Y-358091904D02*
X127452380Y-357520476D01*
X127452380Y-357806190D02*
X126452380Y-357806190D01*
X126595238Y-357710952D01*
X126690476Y-357615714D01*
X126738095Y-357520476D01*
%TO.C,C12*%
X198762857Y-269597142D02*
X198810476Y-269644761D01*
X198953333Y-269692380D01*
X199048571Y-269692380D01*
X199191428Y-269644761D01*
X199286666Y-269549523D01*
X199334285Y-269454285D01*
X199381904Y-269263809D01*
X199381904Y-269120952D01*
X199334285Y-268930476D01*
X199286666Y-268835238D01*
X199191428Y-268740000D01*
X199048571Y-268692380D01*
X198953333Y-268692380D01*
X198810476Y-268740000D01*
X198762857Y-268787619D01*
X197810476Y-269692380D02*
X198381904Y-269692380D01*
X198096190Y-269692380D02*
X198096190Y-268692380D01*
X198191428Y-268835238D01*
X198286666Y-268930476D01*
X198381904Y-268978095D01*
X197429523Y-268787619D02*
X197381904Y-268740000D01*
X197286666Y-268692380D01*
X197048571Y-268692380D01*
X196953333Y-268740000D01*
X196905714Y-268787619D01*
X196858095Y-268882857D01*
X196858095Y-268978095D01*
X196905714Y-269120952D01*
X197477142Y-269692380D01*
X196858095Y-269692380D01*
%TO.C,C13*%
X198762857Y-261977142D02*
X198810476Y-262024761D01*
X198953333Y-262072380D01*
X199048571Y-262072380D01*
X199191428Y-262024761D01*
X199286666Y-261929523D01*
X199334285Y-261834285D01*
X199381904Y-261643809D01*
X199381904Y-261500952D01*
X199334285Y-261310476D01*
X199286666Y-261215238D01*
X199191428Y-261120000D01*
X199048571Y-261072380D01*
X198953333Y-261072380D01*
X198810476Y-261120000D01*
X198762857Y-261167619D01*
X197810476Y-262072380D02*
X198381904Y-262072380D01*
X198096190Y-262072380D02*
X198096190Y-261072380D01*
X198191428Y-261215238D01*
X198286666Y-261310476D01*
X198381904Y-261358095D01*
X197477142Y-261072380D02*
X196858095Y-261072380D01*
X197191428Y-261453333D01*
X197048571Y-261453333D01*
X196953333Y-261500952D01*
X196905714Y-261548571D01*
X196858095Y-261643809D01*
X196858095Y-261881904D01*
X196905714Y-261977142D01*
X196953333Y-262024761D01*
X197048571Y-262072380D01*
X197334285Y-262072380D01*
X197429523Y-262024761D01*
X197477142Y-261977142D01*
%TO.C,C14*%
X127357142Y-344757142D02*
X127404761Y-344709523D01*
X127452380Y-344566666D01*
X127452380Y-344471428D01*
X127404761Y-344328571D01*
X127309523Y-344233333D01*
X127214285Y-344185714D01*
X127023809Y-344138095D01*
X126880952Y-344138095D01*
X126690476Y-344185714D01*
X126595238Y-344233333D01*
X126500000Y-344328571D01*
X126452380Y-344471428D01*
X126452380Y-344566666D01*
X126500000Y-344709523D01*
X126547619Y-344757142D01*
X127452380Y-345709523D02*
X127452380Y-345138095D01*
X127452380Y-345423809D02*
X126452380Y-345423809D01*
X126595238Y-345328571D01*
X126690476Y-345233333D01*
X126738095Y-345138095D01*
X126785714Y-346566666D02*
X127452380Y-346566666D01*
X126404761Y-346328571D02*
X127119047Y-346090476D01*
X127119047Y-346709523D01*
%TO.C,C15*%
X198762857Y-254357142D02*
X198810476Y-254404761D01*
X198953333Y-254452380D01*
X199048571Y-254452380D01*
X199191428Y-254404761D01*
X199286666Y-254309523D01*
X199334285Y-254214285D01*
X199381904Y-254023809D01*
X199381904Y-253880952D01*
X199334285Y-253690476D01*
X199286666Y-253595238D01*
X199191428Y-253500000D01*
X199048571Y-253452380D01*
X198953333Y-253452380D01*
X198810476Y-253500000D01*
X198762857Y-253547619D01*
X197810476Y-254452380D02*
X198381904Y-254452380D01*
X198096190Y-254452380D02*
X198096190Y-253452380D01*
X198191428Y-253595238D01*
X198286666Y-253690476D01*
X198381904Y-253738095D01*
X196905714Y-253452380D02*
X197381904Y-253452380D01*
X197429523Y-253928571D01*
X197381904Y-253880952D01*
X197286666Y-253833333D01*
X197048571Y-253833333D01*
X196953333Y-253880952D01*
X196905714Y-253928571D01*
X196858095Y-254023809D01*
X196858095Y-254261904D01*
X196905714Y-254357142D01*
X196953333Y-254404761D01*
X197048571Y-254452380D01*
X197286666Y-254452380D01*
X197381904Y-254404761D01*
X197429523Y-254357142D01*
%TO.C,C16*%
X198762857Y-246737142D02*
X198810476Y-246784761D01*
X198953333Y-246832380D01*
X199048571Y-246832380D01*
X199191428Y-246784761D01*
X199286666Y-246689523D01*
X199334285Y-246594285D01*
X199381904Y-246403809D01*
X199381904Y-246260952D01*
X199334285Y-246070476D01*
X199286666Y-245975238D01*
X199191428Y-245880000D01*
X199048571Y-245832380D01*
X198953333Y-245832380D01*
X198810476Y-245880000D01*
X198762857Y-245927619D01*
X197810476Y-246832380D02*
X198381904Y-246832380D01*
X198096190Y-246832380D02*
X198096190Y-245832380D01*
X198191428Y-245975238D01*
X198286666Y-246070476D01*
X198381904Y-246118095D01*
X196953333Y-245832380D02*
X197143809Y-245832380D01*
X197239047Y-245880000D01*
X197286666Y-245927619D01*
X197381904Y-246070476D01*
X197429523Y-246260952D01*
X197429523Y-246641904D01*
X197381904Y-246737142D01*
X197334285Y-246784761D01*
X197239047Y-246832380D01*
X197048571Y-246832380D01*
X196953333Y-246784761D01*
X196905714Y-246737142D01*
X196858095Y-246641904D01*
X196858095Y-246403809D01*
X196905714Y-246308571D01*
X196953333Y-246260952D01*
X197048571Y-246213333D01*
X197239047Y-246213333D01*
X197334285Y-246260952D01*
X197381904Y-246308571D01*
X197429523Y-246403809D01*
%TO.C,C17*%
X165457142Y-348567142D02*
X165504761Y-348519523D01*
X165552380Y-348376666D01*
X165552380Y-348281428D01*
X165504761Y-348138571D01*
X165409523Y-348043333D01*
X165314285Y-347995714D01*
X165123809Y-347948095D01*
X164980952Y-347948095D01*
X164790476Y-347995714D01*
X164695238Y-348043333D01*
X164600000Y-348138571D01*
X164552380Y-348281428D01*
X164552380Y-348376666D01*
X164600000Y-348519523D01*
X164647619Y-348567142D01*
X165552380Y-349519523D02*
X165552380Y-348948095D01*
X165552380Y-349233809D02*
X164552380Y-349233809D01*
X164695238Y-349138571D01*
X164790476Y-349043333D01*
X164838095Y-348948095D01*
X164552380Y-349852857D02*
X164552380Y-350519523D01*
X165552380Y-350090952D01*
%TO.C,C18*%
X198762857Y-239117142D02*
X198810476Y-239164761D01*
X198953333Y-239212380D01*
X199048571Y-239212380D01*
X199191428Y-239164761D01*
X199286666Y-239069523D01*
X199334285Y-238974285D01*
X199381904Y-238783809D01*
X199381904Y-238640952D01*
X199334285Y-238450476D01*
X199286666Y-238355238D01*
X199191428Y-238260000D01*
X199048571Y-238212380D01*
X198953333Y-238212380D01*
X198810476Y-238260000D01*
X198762857Y-238307619D01*
X197810476Y-239212380D02*
X198381904Y-239212380D01*
X198096190Y-239212380D02*
X198096190Y-238212380D01*
X198191428Y-238355238D01*
X198286666Y-238450476D01*
X198381904Y-238498095D01*
X197239047Y-238640952D02*
X197334285Y-238593333D01*
X197381904Y-238545714D01*
X197429523Y-238450476D01*
X197429523Y-238402857D01*
X197381904Y-238307619D01*
X197334285Y-238260000D01*
X197239047Y-238212380D01*
X197048571Y-238212380D01*
X196953333Y-238260000D01*
X196905714Y-238307619D01*
X196858095Y-238402857D01*
X196858095Y-238450476D01*
X196905714Y-238545714D01*
X196953333Y-238593333D01*
X197048571Y-238640952D01*
X197239047Y-238640952D01*
X197334285Y-238688571D01*
X197381904Y-238736190D01*
X197429523Y-238831428D01*
X197429523Y-239021904D01*
X197381904Y-239117142D01*
X197334285Y-239164761D01*
X197239047Y-239212380D01*
X197048571Y-239212380D01*
X196953333Y-239164761D01*
X196905714Y-239117142D01*
X196858095Y-239021904D01*
X196858095Y-238831428D01*
X196905714Y-238736190D01*
X196953333Y-238688571D01*
X197048571Y-238640952D01*
%TO.C,C19*%
X198762857Y-231497142D02*
X198810476Y-231544761D01*
X198953333Y-231592380D01*
X199048571Y-231592380D01*
X199191428Y-231544761D01*
X199286666Y-231449523D01*
X199334285Y-231354285D01*
X199381904Y-231163809D01*
X199381904Y-231020952D01*
X199334285Y-230830476D01*
X199286666Y-230735238D01*
X199191428Y-230640000D01*
X199048571Y-230592380D01*
X198953333Y-230592380D01*
X198810476Y-230640000D01*
X198762857Y-230687619D01*
X197810476Y-231592380D02*
X198381904Y-231592380D01*
X198096190Y-231592380D02*
X198096190Y-230592380D01*
X198191428Y-230735238D01*
X198286666Y-230830476D01*
X198381904Y-230878095D01*
X197334285Y-231592380D02*
X197143809Y-231592380D01*
X197048571Y-231544761D01*
X197000952Y-231497142D01*
X196905714Y-231354285D01*
X196858095Y-231163809D01*
X196858095Y-230782857D01*
X196905714Y-230687619D01*
X196953333Y-230640000D01*
X197048571Y-230592380D01*
X197239047Y-230592380D01*
X197334285Y-230640000D01*
X197381904Y-230687619D01*
X197429523Y-230782857D01*
X197429523Y-231020952D01*
X197381904Y-231116190D01*
X197334285Y-231163809D01*
X197239047Y-231211428D01*
X197048571Y-231211428D01*
X196953333Y-231163809D01*
X196905714Y-231116190D01*
X196858095Y-231020952D01*
%TO.C,C20*%
X254357142Y-330787142D02*
X254404761Y-330739523D01*
X254452380Y-330596666D01*
X254452380Y-330501428D01*
X254404761Y-330358571D01*
X254309523Y-330263333D01*
X254214285Y-330215714D01*
X254023809Y-330168095D01*
X253880952Y-330168095D01*
X253690476Y-330215714D01*
X253595238Y-330263333D01*
X253500000Y-330358571D01*
X253452380Y-330501428D01*
X253452380Y-330596666D01*
X253500000Y-330739523D01*
X253547619Y-330787142D01*
X253547619Y-331168095D02*
X253500000Y-331215714D01*
X253452380Y-331310952D01*
X253452380Y-331549047D01*
X253500000Y-331644285D01*
X253547619Y-331691904D01*
X253642857Y-331739523D01*
X253738095Y-331739523D01*
X253880952Y-331691904D01*
X254452380Y-331120476D01*
X254452380Y-331739523D01*
X253452380Y-332358571D02*
X253452380Y-332453809D01*
X253500000Y-332549047D01*
X253547619Y-332596666D01*
X253642857Y-332644285D01*
X253833333Y-332691904D01*
X254071428Y-332691904D01*
X254261904Y-332644285D01*
X254357142Y-332596666D01*
X254404761Y-332549047D01*
X254452380Y-332453809D01*
X254452380Y-332358571D01*
X254404761Y-332263333D01*
X254357142Y-332215714D01*
X254261904Y-332168095D01*
X254071428Y-332120476D01*
X253833333Y-332120476D01*
X253642857Y-332168095D01*
X253547619Y-332215714D01*
X253500000Y-332263333D01*
X253452380Y-332358571D01*
%TO.C,C21*%
X160662857Y-239117142D02*
X160710476Y-239164761D01*
X160853333Y-239212380D01*
X160948571Y-239212380D01*
X161091428Y-239164761D01*
X161186666Y-239069523D01*
X161234285Y-238974285D01*
X161281904Y-238783809D01*
X161281904Y-238640952D01*
X161234285Y-238450476D01*
X161186666Y-238355238D01*
X161091428Y-238260000D01*
X160948571Y-238212380D01*
X160853333Y-238212380D01*
X160710476Y-238260000D01*
X160662857Y-238307619D01*
X160281904Y-238307619D02*
X160234285Y-238260000D01*
X160139047Y-238212380D01*
X159900952Y-238212380D01*
X159805714Y-238260000D01*
X159758095Y-238307619D01*
X159710476Y-238402857D01*
X159710476Y-238498095D01*
X159758095Y-238640952D01*
X160329523Y-239212380D01*
X159710476Y-239212380D01*
X158758095Y-239212380D02*
X159329523Y-239212380D01*
X159043809Y-239212380D02*
X159043809Y-238212380D01*
X159139047Y-238355238D01*
X159234285Y-238450476D01*
X159329523Y-238498095D01*
%TO.C,C22*%
X160662857Y-246737142D02*
X160710476Y-246784761D01*
X160853333Y-246832380D01*
X160948571Y-246832380D01*
X161091428Y-246784761D01*
X161186666Y-246689523D01*
X161234285Y-246594285D01*
X161281904Y-246403809D01*
X161281904Y-246260952D01*
X161234285Y-246070476D01*
X161186666Y-245975238D01*
X161091428Y-245880000D01*
X160948571Y-245832380D01*
X160853333Y-245832380D01*
X160710476Y-245880000D01*
X160662857Y-245927619D01*
X160281904Y-245927619D02*
X160234285Y-245880000D01*
X160139047Y-245832380D01*
X159900952Y-245832380D01*
X159805714Y-245880000D01*
X159758095Y-245927619D01*
X159710476Y-246022857D01*
X159710476Y-246118095D01*
X159758095Y-246260952D01*
X160329523Y-246832380D01*
X159710476Y-246832380D01*
X159329523Y-245927619D02*
X159281904Y-245880000D01*
X159186666Y-245832380D01*
X158948571Y-245832380D01*
X158853333Y-245880000D01*
X158805714Y-245927619D01*
X158758095Y-246022857D01*
X158758095Y-246118095D01*
X158805714Y-246260952D01*
X159377142Y-246832380D01*
X158758095Y-246832380D01*
%TO.C,C23*%
X165457142Y-367617142D02*
X165504761Y-367569523D01*
X165552380Y-367426666D01*
X165552380Y-367331428D01*
X165504761Y-367188571D01*
X165409523Y-367093333D01*
X165314285Y-367045714D01*
X165123809Y-366998095D01*
X164980952Y-366998095D01*
X164790476Y-367045714D01*
X164695238Y-367093333D01*
X164600000Y-367188571D01*
X164552380Y-367331428D01*
X164552380Y-367426666D01*
X164600000Y-367569523D01*
X164647619Y-367617142D01*
X164647619Y-367998095D02*
X164600000Y-368045714D01*
X164552380Y-368140952D01*
X164552380Y-368379047D01*
X164600000Y-368474285D01*
X164647619Y-368521904D01*
X164742857Y-368569523D01*
X164838095Y-368569523D01*
X164980952Y-368521904D01*
X165552380Y-367950476D01*
X165552380Y-368569523D01*
X164552380Y-368902857D02*
X164552380Y-369521904D01*
X164933333Y-369188571D01*
X164933333Y-369331428D01*
X164980952Y-369426666D01*
X165028571Y-369474285D01*
X165123809Y-369521904D01*
X165361904Y-369521904D01*
X165457142Y-369474285D01*
X165504761Y-369426666D01*
X165552380Y-369331428D01*
X165552380Y-369045714D01*
X165504761Y-368950476D01*
X165457142Y-368902857D01*
%TO.C,C24*%
X160662857Y-254357142D02*
X160710476Y-254404761D01*
X160853333Y-254452380D01*
X160948571Y-254452380D01*
X161091428Y-254404761D01*
X161186666Y-254309523D01*
X161234285Y-254214285D01*
X161281904Y-254023809D01*
X161281904Y-253880952D01*
X161234285Y-253690476D01*
X161186666Y-253595238D01*
X161091428Y-253500000D01*
X160948571Y-253452380D01*
X160853333Y-253452380D01*
X160710476Y-253500000D01*
X160662857Y-253547619D01*
X160281904Y-253547619D02*
X160234285Y-253500000D01*
X160139047Y-253452380D01*
X159900952Y-253452380D01*
X159805714Y-253500000D01*
X159758095Y-253547619D01*
X159710476Y-253642857D01*
X159710476Y-253738095D01*
X159758095Y-253880952D01*
X160329523Y-254452380D01*
X159710476Y-254452380D01*
X158853333Y-253785714D02*
X158853333Y-254452380D01*
X159091428Y-253404761D02*
X159329523Y-254119047D01*
X158710476Y-254119047D01*
%TO.C,C25*%
X160662857Y-261977142D02*
X160710476Y-262024761D01*
X160853333Y-262072380D01*
X160948571Y-262072380D01*
X161091428Y-262024761D01*
X161186666Y-261929523D01*
X161234285Y-261834285D01*
X161281904Y-261643809D01*
X161281904Y-261500952D01*
X161234285Y-261310476D01*
X161186666Y-261215238D01*
X161091428Y-261120000D01*
X160948571Y-261072380D01*
X160853333Y-261072380D01*
X160710476Y-261120000D01*
X160662857Y-261167619D01*
X160281904Y-261167619D02*
X160234285Y-261120000D01*
X160139047Y-261072380D01*
X159900952Y-261072380D01*
X159805714Y-261120000D01*
X159758095Y-261167619D01*
X159710476Y-261262857D01*
X159710476Y-261358095D01*
X159758095Y-261500952D01*
X160329523Y-262072380D01*
X159710476Y-262072380D01*
X158805714Y-261072380D02*
X159281904Y-261072380D01*
X159329523Y-261548571D01*
X159281904Y-261500952D01*
X159186666Y-261453333D01*
X158948571Y-261453333D01*
X158853333Y-261500952D01*
X158805714Y-261548571D01*
X158758095Y-261643809D01*
X158758095Y-261881904D01*
X158805714Y-261977142D01*
X158853333Y-262024761D01*
X158948571Y-262072380D01*
X159186666Y-262072380D01*
X159281904Y-262024761D01*
X159329523Y-261977142D01*
%TO.C,C26*%
X127357142Y-367617142D02*
X127404761Y-367569523D01*
X127452380Y-367426666D01*
X127452380Y-367331428D01*
X127404761Y-367188571D01*
X127309523Y-367093333D01*
X127214285Y-367045714D01*
X127023809Y-366998095D01*
X126880952Y-366998095D01*
X126690476Y-367045714D01*
X126595238Y-367093333D01*
X126500000Y-367188571D01*
X126452380Y-367331428D01*
X126452380Y-367426666D01*
X126500000Y-367569523D01*
X126547619Y-367617142D01*
X126547619Y-367998095D02*
X126500000Y-368045714D01*
X126452380Y-368140952D01*
X126452380Y-368379047D01*
X126500000Y-368474285D01*
X126547619Y-368521904D01*
X126642857Y-368569523D01*
X126738095Y-368569523D01*
X126880952Y-368521904D01*
X127452380Y-367950476D01*
X127452380Y-368569523D01*
X126452380Y-369426666D02*
X126452380Y-369236190D01*
X126500000Y-369140952D01*
X126547619Y-369093333D01*
X126690476Y-368998095D01*
X126880952Y-368950476D01*
X127261904Y-368950476D01*
X127357142Y-368998095D01*
X127404761Y-369045714D01*
X127452380Y-369140952D01*
X127452380Y-369331428D01*
X127404761Y-369426666D01*
X127357142Y-369474285D01*
X127261904Y-369521904D01*
X127023809Y-369521904D01*
X126928571Y-369474285D01*
X126880952Y-369426666D01*
X126833333Y-369331428D01*
X126833333Y-369140952D01*
X126880952Y-369045714D01*
X126928571Y-368998095D01*
X127023809Y-368950476D01*
%TO.C,C27*%
X160662857Y-269597142D02*
X160710476Y-269644761D01*
X160853333Y-269692380D01*
X160948571Y-269692380D01*
X161091428Y-269644761D01*
X161186666Y-269549523D01*
X161234285Y-269454285D01*
X161281904Y-269263809D01*
X161281904Y-269120952D01*
X161234285Y-268930476D01*
X161186666Y-268835238D01*
X161091428Y-268740000D01*
X160948571Y-268692380D01*
X160853333Y-268692380D01*
X160710476Y-268740000D01*
X160662857Y-268787619D01*
X160281904Y-268787619D02*
X160234285Y-268740000D01*
X160139047Y-268692380D01*
X159900952Y-268692380D01*
X159805714Y-268740000D01*
X159758095Y-268787619D01*
X159710476Y-268882857D01*
X159710476Y-268978095D01*
X159758095Y-269120952D01*
X160329523Y-269692380D01*
X159710476Y-269692380D01*
X159377142Y-268692380D02*
X158710476Y-268692380D01*
X159139047Y-269692380D01*
%TO.C,C28*%
X160662857Y-277217142D02*
X160710476Y-277264761D01*
X160853333Y-277312380D01*
X160948571Y-277312380D01*
X161091428Y-277264761D01*
X161186666Y-277169523D01*
X161234285Y-277074285D01*
X161281904Y-276883809D01*
X161281904Y-276740952D01*
X161234285Y-276550476D01*
X161186666Y-276455238D01*
X161091428Y-276360000D01*
X160948571Y-276312380D01*
X160853333Y-276312380D01*
X160710476Y-276360000D01*
X160662857Y-276407619D01*
X160281904Y-276407619D02*
X160234285Y-276360000D01*
X160139047Y-276312380D01*
X159900952Y-276312380D01*
X159805714Y-276360000D01*
X159758095Y-276407619D01*
X159710476Y-276502857D01*
X159710476Y-276598095D01*
X159758095Y-276740952D01*
X160329523Y-277312380D01*
X159710476Y-277312380D01*
X159139047Y-276740952D02*
X159234285Y-276693333D01*
X159281904Y-276645714D01*
X159329523Y-276550476D01*
X159329523Y-276502857D01*
X159281904Y-276407619D01*
X159234285Y-276360000D01*
X159139047Y-276312380D01*
X158948571Y-276312380D01*
X158853333Y-276360000D01*
X158805714Y-276407619D01*
X158758095Y-276502857D01*
X158758095Y-276550476D01*
X158805714Y-276645714D01*
X158853333Y-276693333D01*
X158948571Y-276740952D01*
X159139047Y-276740952D01*
X159234285Y-276788571D01*
X159281904Y-276836190D01*
X159329523Y-276931428D01*
X159329523Y-277121904D01*
X159281904Y-277217142D01*
X159234285Y-277264761D01*
X159139047Y-277312380D01*
X158948571Y-277312380D01*
X158853333Y-277264761D01*
X158805714Y-277217142D01*
X158758095Y-277121904D01*
X158758095Y-276931428D01*
X158805714Y-276836190D01*
X158853333Y-276788571D01*
X158948571Y-276740952D01*
%TO.C,C29*%
X209907142Y-227917142D02*
X209954761Y-227869523D01*
X210002380Y-227726666D01*
X210002380Y-227631428D01*
X209954761Y-227488571D01*
X209859523Y-227393333D01*
X209764285Y-227345714D01*
X209573809Y-227298095D01*
X209430952Y-227298095D01*
X209240476Y-227345714D01*
X209145238Y-227393333D01*
X209050000Y-227488571D01*
X209002380Y-227631428D01*
X209002380Y-227726666D01*
X209050000Y-227869523D01*
X209097619Y-227917142D01*
X209097619Y-228298095D02*
X209050000Y-228345714D01*
X209002380Y-228440952D01*
X209002380Y-228679047D01*
X209050000Y-228774285D01*
X209097619Y-228821904D01*
X209192857Y-228869523D01*
X209288095Y-228869523D01*
X209430952Y-228821904D01*
X210002380Y-228250476D01*
X210002380Y-228869523D01*
X210002380Y-229345714D02*
X210002380Y-229536190D01*
X209954761Y-229631428D01*
X209907142Y-229679047D01*
X209764285Y-229774285D01*
X209573809Y-229821904D01*
X209192857Y-229821904D01*
X209097619Y-229774285D01*
X209050000Y-229726666D01*
X209002380Y-229631428D01*
X209002380Y-229440952D01*
X209050000Y-229345714D01*
X209097619Y-229298095D01*
X209192857Y-229250476D01*
X209430952Y-229250476D01*
X209526190Y-229298095D01*
X209573809Y-229345714D01*
X209621428Y-229440952D01*
X209621428Y-229631428D01*
X209573809Y-229726666D01*
X209526190Y-229774285D01*
X209430952Y-229821904D01*
%TO.C,C30*%
X160662857Y-284837142D02*
X160710476Y-284884761D01*
X160853333Y-284932380D01*
X160948571Y-284932380D01*
X161091428Y-284884761D01*
X161186666Y-284789523D01*
X161234285Y-284694285D01*
X161281904Y-284503809D01*
X161281904Y-284360952D01*
X161234285Y-284170476D01*
X161186666Y-284075238D01*
X161091428Y-283980000D01*
X160948571Y-283932380D01*
X160853333Y-283932380D01*
X160710476Y-283980000D01*
X160662857Y-284027619D01*
X160329523Y-283932380D02*
X159710476Y-283932380D01*
X160043809Y-284313333D01*
X159900952Y-284313333D01*
X159805714Y-284360952D01*
X159758095Y-284408571D01*
X159710476Y-284503809D01*
X159710476Y-284741904D01*
X159758095Y-284837142D01*
X159805714Y-284884761D01*
X159900952Y-284932380D01*
X160186666Y-284932380D01*
X160281904Y-284884761D01*
X160329523Y-284837142D01*
X159091428Y-283932380D02*
X158996190Y-283932380D01*
X158900952Y-283980000D01*
X158853333Y-284027619D01*
X158805714Y-284122857D01*
X158758095Y-284313333D01*
X158758095Y-284551428D01*
X158805714Y-284741904D01*
X158853333Y-284837142D01*
X158900952Y-284884761D01*
X158996190Y-284932380D01*
X159091428Y-284932380D01*
X159186666Y-284884761D01*
X159234285Y-284837142D01*
X159281904Y-284741904D01*
X159329523Y-284551428D01*
X159329523Y-284313333D01*
X159281904Y-284122857D01*
X159234285Y-284027619D01*
X159186666Y-283980000D01*
X159091428Y-283932380D01*
%TO.C,C31*%
X160662857Y-231497142D02*
X160710476Y-231544761D01*
X160853333Y-231592380D01*
X160948571Y-231592380D01*
X161091428Y-231544761D01*
X161186666Y-231449523D01*
X161234285Y-231354285D01*
X161281904Y-231163809D01*
X161281904Y-231020952D01*
X161234285Y-230830476D01*
X161186666Y-230735238D01*
X161091428Y-230640000D01*
X160948571Y-230592380D01*
X160853333Y-230592380D01*
X160710476Y-230640000D01*
X160662857Y-230687619D01*
X160329523Y-230592380D02*
X159710476Y-230592380D01*
X160043809Y-230973333D01*
X159900952Y-230973333D01*
X159805714Y-231020952D01*
X159758095Y-231068571D01*
X159710476Y-231163809D01*
X159710476Y-231401904D01*
X159758095Y-231497142D01*
X159805714Y-231544761D01*
X159900952Y-231592380D01*
X160186666Y-231592380D01*
X160281904Y-231544761D01*
X160329523Y-231497142D01*
X158758095Y-231592380D02*
X159329523Y-231592380D01*
X159043809Y-231592380D02*
X159043809Y-230592380D01*
X159139047Y-230735238D01*
X159234285Y-230830476D01*
X159329523Y-230878095D01*
%TO.C,C32*%
X209907142Y-259667142D02*
X209954761Y-259619523D01*
X210002380Y-259476666D01*
X210002380Y-259381428D01*
X209954761Y-259238571D01*
X209859523Y-259143333D01*
X209764285Y-259095714D01*
X209573809Y-259048095D01*
X209430952Y-259048095D01*
X209240476Y-259095714D01*
X209145238Y-259143333D01*
X209050000Y-259238571D01*
X209002380Y-259381428D01*
X209002380Y-259476666D01*
X209050000Y-259619523D01*
X209097619Y-259667142D01*
X209002380Y-260000476D02*
X209002380Y-260619523D01*
X209383333Y-260286190D01*
X209383333Y-260429047D01*
X209430952Y-260524285D01*
X209478571Y-260571904D01*
X209573809Y-260619523D01*
X209811904Y-260619523D01*
X209907142Y-260571904D01*
X209954761Y-260524285D01*
X210002380Y-260429047D01*
X210002380Y-260143333D01*
X209954761Y-260048095D01*
X209907142Y-260000476D01*
X209097619Y-261000476D02*
X209050000Y-261048095D01*
X209002380Y-261143333D01*
X209002380Y-261381428D01*
X209050000Y-261476666D01*
X209097619Y-261524285D01*
X209192857Y-261571904D01*
X209288095Y-261571904D01*
X209430952Y-261524285D01*
X210002380Y-260952857D01*
X210002380Y-261571904D01*
%TO.C,C33*%
X209907142Y-281257142D02*
X209954761Y-281209523D01*
X210002380Y-281066666D01*
X210002380Y-280971428D01*
X209954761Y-280828571D01*
X209859523Y-280733333D01*
X209764285Y-280685714D01*
X209573809Y-280638095D01*
X209430952Y-280638095D01*
X209240476Y-280685714D01*
X209145238Y-280733333D01*
X209050000Y-280828571D01*
X209002380Y-280971428D01*
X209002380Y-281066666D01*
X209050000Y-281209523D01*
X209097619Y-281257142D01*
X209002380Y-281590476D02*
X209002380Y-282209523D01*
X209383333Y-281876190D01*
X209383333Y-282019047D01*
X209430952Y-282114285D01*
X209478571Y-282161904D01*
X209573809Y-282209523D01*
X209811904Y-282209523D01*
X209907142Y-282161904D01*
X209954761Y-282114285D01*
X210002380Y-282019047D01*
X210002380Y-281733333D01*
X209954761Y-281638095D01*
X209907142Y-281590476D01*
X209002380Y-282542857D02*
X209002380Y-283161904D01*
X209383333Y-282828571D01*
X209383333Y-282971428D01*
X209430952Y-283066666D01*
X209478571Y-283114285D01*
X209573809Y-283161904D01*
X209811904Y-283161904D01*
X209907142Y-283114285D01*
X209954761Y-283066666D01*
X210002380Y-282971428D01*
X210002380Y-282685714D01*
X209954761Y-282590476D01*
X209907142Y-282542857D01*
%TO.C,C34*%
X206097142Y-305387142D02*
X206144761Y-305339523D01*
X206192380Y-305196666D01*
X206192380Y-305101428D01*
X206144761Y-304958571D01*
X206049523Y-304863333D01*
X205954285Y-304815714D01*
X205763809Y-304768095D01*
X205620952Y-304768095D01*
X205430476Y-304815714D01*
X205335238Y-304863333D01*
X205240000Y-304958571D01*
X205192380Y-305101428D01*
X205192380Y-305196666D01*
X205240000Y-305339523D01*
X205287619Y-305387142D01*
X205192380Y-305720476D02*
X205192380Y-306339523D01*
X205573333Y-306006190D01*
X205573333Y-306149047D01*
X205620952Y-306244285D01*
X205668571Y-306291904D01*
X205763809Y-306339523D01*
X206001904Y-306339523D01*
X206097142Y-306291904D01*
X206144761Y-306244285D01*
X206192380Y-306149047D01*
X206192380Y-305863333D01*
X206144761Y-305768095D01*
X206097142Y-305720476D01*
X205525714Y-307196666D02*
X206192380Y-307196666D01*
X205144761Y-306958571D02*
X205859047Y-306720476D01*
X205859047Y-307339523D01*
%TO.C,C35*%
X291187142Y-353647142D02*
X291234761Y-353599523D01*
X291282380Y-353456666D01*
X291282380Y-353361428D01*
X291234761Y-353218571D01*
X291139523Y-353123333D01*
X291044285Y-353075714D01*
X290853809Y-353028095D01*
X290710952Y-353028095D01*
X290520476Y-353075714D01*
X290425238Y-353123333D01*
X290330000Y-353218571D01*
X290282380Y-353361428D01*
X290282380Y-353456666D01*
X290330000Y-353599523D01*
X290377619Y-353647142D01*
X290282380Y-353980476D02*
X290282380Y-354599523D01*
X290663333Y-354266190D01*
X290663333Y-354409047D01*
X290710952Y-354504285D01*
X290758571Y-354551904D01*
X290853809Y-354599523D01*
X291091904Y-354599523D01*
X291187142Y-354551904D01*
X291234761Y-354504285D01*
X291282380Y-354409047D01*
X291282380Y-354123333D01*
X291234761Y-354028095D01*
X291187142Y-353980476D01*
X290282380Y-355504285D02*
X290282380Y-355028095D01*
X290758571Y-354980476D01*
X290710952Y-355028095D01*
X290663333Y-355123333D01*
X290663333Y-355361428D01*
X290710952Y-355456666D01*
X290758571Y-355504285D01*
X290853809Y-355551904D01*
X291091904Y-355551904D01*
X291187142Y-355504285D01*
X291234761Y-355456666D01*
X291282380Y-355361428D01*
X291282380Y-355123333D01*
X291234761Y-355028095D01*
X291187142Y-354980476D01*
%TO.C,C36*%
X330557142Y-353647142D02*
X330604761Y-353599523D01*
X330652380Y-353456666D01*
X330652380Y-353361428D01*
X330604761Y-353218571D01*
X330509523Y-353123333D01*
X330414285Y-353075714D01*
X330223809Y-353028095D01*
X330080952Y-353028095D01*
X329890476Y-353075714D01*
X329795238Y-353123333D01*
X329700000Y-353218571D01*
X329652380Y-353361428D01*
X329652380Y-353456666D01*
X329700000Y-353599523D01*
X329747619Y-353647142D01*
X329652380Y-353980476D02*
X329652380Y-354599523D01*
X330033333Y-354266190D01*
X330033333Y-354409047D01*
X330080952Y-354504285D01*
X330128571Y-354551904D01*
X330223809Y-354599523D01*
X330461904Y-354599523D01*
X330557142Y-354551904D01*
X330604761Y-354504285D01*
X330652380Y-354409047D01*
X330652380Y-354123333D01*
X330604761Y-354028095D01*
X330557142Y-353980476D01*
X329652380Y-355456666D02*
X329652380Y-355266190D01*
X329700000Y-355170952D01*
X329747619Y-355123333D01*
X329890476Y-355028095D01*
X330080952Y-354980476D01*
X330461904Y-354980476D01*
X330557142Y-355028095D01*
X330604761Y-355075714D01*
X330652380Y-355170952D01*
X330652380Y-355361428D01*
X330604761Y-355456666D01*
X330557142Y-355504285D01*
X330461904Y-355551904D01*
X330223809Y-355551904D01*
X330128571Y-355504285D01*
X330080952Y-355456666D01*
X330033333Y-355361428D01*
X330033333Y-355170952D01*
X330080952Y-355075714D01*
X330128571Y-355028095D01*
X330223809Y-354980476D01*
%TO.C,C37*%
X288647142Y-334597142D02*
X288694761Y-334549523D01*
X288742380Y-334406666D01*
X288742380Y-334311428D01*
X288694761Y-334168571D01*
X288599523Y-334073333D01*
X288504285Y-334025714D01*
X288313809Y-333978095D01*
X288170952Y-333978095D01*
X287980476Y-334025714D01*
X287885238Y-334073333D01*
X287790000Y-334168571D01*
X287742380Y-334311428D01*
X287742380Y-334406666D01*
X287790000Y-334549523D01*
X287837619Y-334597142D01*
X287742380Y-334930476D02*
X287742380Y-335549523D01*
X288123333Y-335216190D01*
X288123333Y-335359047D01*
X288170952Y-335454285D01*
X288218571Y-335501904D01*
X288313809Y-335549523D01*
X288551904Y-335549523D01*
X288647142Y-335501904D01*
X288694761Y-335454285D01*
X288742380Y-335359047D01*
X288742380Y-335073333D01*
X288694761Y-334978095D01*
X288647142Y-334930476D01*
X287742380Y-335882857D02*
X287742380Y-336549523D01*
X288742380Y-336120952D01*
%TO.C,C38*%
X254357142Y-271097142D02*
X254404761Y-271049523D01*
X254452380Y-270906666D01*
X254452380Y-270811428D01*
X254404761Y-270668571D01*
X254309523Y-270573333D01*
X254214285Y-270525714D01*
X254023809Y-270478095D01*
X253880952Y-270478095D01*
X253690476Y-270525714D01*
X253595238Y-270573333D01*
X253500000Y-270668571D01*
X253452380Y-270811428D01*
X253452380Y-270906666D01*
X253500000Y-271049523D01*
X253547619Y-271097142D01*
X253452380Y-271430476D02*
X253452380Y-272049523D01*
X253833333Y-271716190D01*
X253833333Y-271859047D01*
X253880952Y-271954285D01*
X253928571Y-272001904D01*
X254023809Y-272049523D01*
X254261904Y-272049523D01*
X254357142Y-272001904D01*
X254404761Y-271954285D01*
X254452380Y-271859047D01*
X254452380Y-271573333D01*
X254404761Y-271478095D01*
X254357142Y-271430476D01*
X253880952Y-272620952D02*
X253833333Y-272525714D01*
X253785714Y-272478095D01*
X253690476Y-272430476D01*
X253642857Y-272430476D01*
X253547619Y-272478095D01*
X253500000Y-272525714D01*
X253452380Y-272620952D01*
X253452380Y-272811428D01*
X253500000Y-272906666D01*
X253547619Y-272954285D01*
X253642857Y-273001904D01*
X253690476Y-273001904D01*
X253785714Y-272954285D01*
X253833333Y-272906666D01*
X253880952Y-272811428D01*
X253880952Y-272620952D01*
X253928571Y-272525714D01*
X253976190Y-272478095D01*
X254071428Y-272430476D01*
X254261904Y-272430476D01*
X254357142Y-272478095D01*
X254404761Y-272525714D01*
X254452380Y-272620952D01*
X254452380Y-272811428D01*
X254404761Y-272906666D01*
X254357142Y-272954285D01*
X254261904Y-273001904D01*
X254071428Y-273001904D01*
X253976190Y-272954285D01*
X253928571Y-272906666D01*
X253880952Y-272811428D01*
%TO.C,C39*%
X288647142Y-315547142D02*
X288694761Y-315499523D01*
X288742380Y-315356666D01*
X288742380Y-315261428D01*
X288694761Y-315118571D01*
X288599523Y-315023333D01*
X288504285Y-314975714D01*
X288313809Y-314928095D01*
X288170952Y-314928095D01*
X287980476Y-314975714D01*
X287885238Y-315023333D01*
X287790000Y-315118571D01*
X287742380Y-315261428D01*
X287742380Y-315356666D01*
X287790000Y-315499523D01*
X287837619Y-315547142D01*
X287742380Y-315880476D02*
X287742380Y-316499523D01*
X288123333Y-316166190D01*
X288123333Y-316309047D01*
X288170952Y-316404285D01*
X288218571Y-316451904D01*
X288313809Y-316499523D01*
X288551904Y-316499523D01*
X288647142Y-316451904D01*
X288694761Y-316404285D01*
X288742380Y-316309047D01*
X288742380Y-316023333D01*
X288694761Y-315928095D01*
X288647142Y-315880476D01*
X288742380Y-316975714D02*
X288742380Y-317166190D01*
X288694761Y-317261428D01*
X288647142Y-317309047D01*
X288504285Y-317404285D01*
X288313809Y-317451904D01*
X287932857Y-317451904D01*
X287837619Y-317404285D01*
X287790000Y-317356666D01*
X287742380Y-317261428D01*
X287742380Y-317070952D01*
X287790000Y-316975714D01*
X287837619Y-316928095D01*
X287932857Y-316880476D01*
X288170952Y-316880476D01*
X288266190Y-316928095D01*
X288313809Y-316975714D01*
X288361428Y-317070952D01*
X288361428Y-317261428D01*
X288313809Y-317356666D01*
X288266190Y-317404285D01*
X288170952Y-317451904D01*
%TO.C,C40*%
X288647142Y-290147142D02*
X288694761Y-290099523D01*
X288742380Y-289956666D01*
X288742380Y-289861428D01*
X288694761Y-289718571D01*
X288599523Y-289623333D01*
X288504285Y-289575714D01*
X288313809Y-289528095D01*
X288170952Y-289528095D01*
X287980476Y-289575714D01*
X287885238Y-289623333D01*
X287790000Y-289718571D01*
X287742380Y-289861428D01*
X287742380Y-289956666D01*
X287790000Y-290099523D01*
X287837619Y-290147142D01*
X288075714Y-291004285D02*
X288742380Y-291004285D01*
X287694761Y-290766190D02*
X288409047Y-290528095D01*
X288409047Y-291147142D01*
X287742380Y-291718571D02*
X287742380Y-291813809D01*
X287790000Y-291909047D01*
X287837619Y-291956666D01*
X287932857Y-292004285D01*
X288123333Y-292051904D01*
X288361428Y-292051904D01*
X288551904Y-292004285D01*
X288647142Y-291956666D01*
X288694761Y-291909047D01*
X288742380Y-291813809D01*
X288742380Y-291718571D01*
X288694761Y-291623333D01*
X288647142Y-291575714D01*
X288551904Y-291528095D01*
X288361428Y-291480476D01*
X288123333Y-291480476D01*
X287932857Y-291528095D01*
X287837619Y-291575714D01*
X287790000Y-291623333D01*
X287742380Y-291718571D01*
%TO.C,C41*%
X254357142Y-286337142D02*
X254404761Y-286289523D01*
X254452380Y-286146666D01*
X254452380Y-286051428D01*
X254404761Y-285908571D01*
X254309523Y-285813333D01*
X254214285Y-285765714D01*
X254023809Y-285718095D01*
X253880952Y-285718095D01*
X253690476Y-285765714D01*
X253595238Y-285813333D01*
X253500000Y-285908571D01*
X253452380Y-286051428D01*
X253452380Y-286146666D01*
X253500000Y-286289523D01*
X253547619Y-286337142D01*
X253785714Y-287194285D02*
X254452380Y-287194285D01*
X253404761Y-286956190D02*
X254119047Y-286718095D01*
X254119047Y-287337142D01*
X254452380Y-288241904D02*
X254452380Y-287670476D01*
X254452380Y-287956190D02*
X253452380Y-287956190D01*
X253595238Y-287860952D01*
X253690476Y-287765714D01*
X253738095Y-287670476D01*
%TO.C,C42*%
X291187142Y-269827142D02*
X291234761Y-269779523D01*
X291282380Y-269636666D01*
X291282380Y-269541428D01*
X291234761Y-269398571D01*
X291139523Y-269303333D01*
X291044285Y-269255714D01*
X290853809Y-269208095D01*
X290710952Y-269208095D01*
X290520476Y-269255714D01*
X290425238Y-269303333D01*
X290330000Y-269398571D01*
X290282380Y-269541428D01*
X290282380Y-269636666D01*
X290330000Y-269779523D01*
X290377619Y-269827142D01*
X290615714Y-270684285D02*
X291282380Y-270684285D01*
X290234761Y-270446190D02*
X290949047Y-270208095D01*
X290949047Y-270827142D01*
X290377619Y-271160476D02*
X290330000Y-271208095D01*
X290282380Y-271303333D01*
X290282380Y-271541428D01*
X290330000Y-271636666D01*
X290377619Y-271684285D01*
X290472857Y-271731904D01*
X290568095Y-271731904D01*
X290710952Y-271684285D01*
X291282380Y-271112857D01*
X291282380Y-271731904D01*
%TO.C,C43*%
X254357142Y-227917142D02*
X254404761Y-227869523D01*
X254452380Y-227726666D01*
X254452380Y-227631428D01*
X254404761Y-227488571D01*
X254309523Y-227393333D01*
X254214285Y-227345714D01*
X254023809Y-227298095D01*
X253880952Y-227298095D01*
X253690476Y-227345714D01*
X253595238Y-227393333D01*
X253500000Y-227488571D01*
X253452380Y-227631428D01*
X253452380Y-227726666D01*
X253500000Y-227869523D01*
X253547619Y-227917142D01*
X253785714Y-228774285D02*
X254452380Y-228774285D01*
X253404761Y-228536190D02*
X254119047Y-228298095D01*
X254119047Y-228917142D01*
X253452380Y-229202857D02*
X253452380Y-229821904D01*
X253833333Y-229488571D01*
X253833333Y-229631428D01*
X253880952Y-229726666D01*
X253928571Y-229774285D01*
X254023809Y-229821904D01*
X254261904Y-229821904D01*
X254357142Y-229774285D01*
X254404761Y-229726666D01*
X254452380Y-229631428D01*
X254452380Y-229345714D01*
X254404761Y-229250476D01*
X254357142Y-229202857D01*
%TO.C,C44*%
X254357142Y-301577142D02*
X254404761Y-301529523D01*
X254452380Y-301386666D01*
X254452380Y-301291428D01*
X254404761Y-301148571D01*
X254309523Y-301053333D01*
X254214285Y-301005714D01*
X254023809Y-300958095D01*
X253880952Y-300958095D01*
X253690476Y-301005714D01*
X253595238Y-301053333D01*
X253500000Y-301148571D01*
X253452380Y-301291428D01*
X253452380Y-301386666D01*
X253500000Y-301529523D01*
X253547619Y-301577142D01*
X253785714Y-302434285D02*
X254452380Y-302434285D01*
X253404761Y-302196190D02*
X254119047Y-301958095D01*
X254119047Y-302577142D01*
X253785714Y-303386666D02*
X254452380Y-303386666D01*
X253404761Y-303148571D02*
X254119047Y-302910476D01*
X254119047Y-303529523D01*
%TO.C,C45*%
X254357142Y-255857142D02*
X254404761Y-255809523D01*
X254452380Y-255666666D01*
X254452380Y-255571428D01*
X254404761Y-255428571D01*
X254309523Y-255333333D01*
X254214285Y-255285714D01*
X254023809Y-255238095D01*
X253880952Y-255238095D01*
X253690476Y-255285714D01*
X253595238Y-255333333D01*
X253500000Y-255428571D01*
X253452380Y-255571428D01*
X253452380Y-255666666D01*
X253500000Y-255809523D01*
X253547619Y-255857142D01*
X253785714Y-256714285D02*
X254452380Y-256714285D01*
X253404761Y-256476190D02*
X254119047Y-256238095D01*
X254119047Y-256857142D01*
X253452380Y-257714285D02*
X253452380Y-257238095D01*
X253928571Y-257190476D01*
X253880952Y-257238095D01*
X253833333Y-257333333D01*
X253833333Y-257571428D01*
X253880952Y-257666666D01*
X253928571Y-257714285D01*
X254023809Y-257761904D01*
X254261904Y-257761904D01*
X254357142Y-257714285D01*
X254404761Y-257666666D01*
X254452380Y-257571428D01*
X254452380Y-257333333D01*
X254404761Y-257238095D01*
X254357142Y-257190476D01*
%TO.C,C46*%
X206097142Y-326977142D02*
X206144761Y-326929523D01*
X206192380Y-326786666D01*
X206192380Y-326691428D01*
X206144761Y-326548571D01*
X206049523Y-326453333D01*
X205954285Y-326405714D01*
X205763809Y-326358095D01*
X205620952Y-326358095D01*
X205430476Y-326405714D01*
X205335238Y-326453333D01*
X205240000Y-326548571D01*
X205192380Y-326691428D01*
X205192380Y-326786666D01*
X205240000Y-326929523D01*
X205287619Y-326977142D01*
X205525714Y-327834285D02*
X206192380Y-327834285D01*
X205144761Y-327596190D02*
X205859047Y-327358095D01*
X205859047Y-327977142D01*
X205192380Y-328786666D02*
X205192380Y-328596190D01*
X205240000Y-328500952D01*
X205287619Y-328453333D01*
X205430476Y-328358095D01*
X205620952Y-328310476D01*
X206001904Y-328310476D01*
X206097142Y-328358095D01*
X206144761Y-328405714D01*
X206192380Y-328500952D01*
X206192380Y-328691428D01*
X206144761Y-328786666D01*
X206097142Y-328834285D01*
X206001904Y-328881904D01*
X205763809Y-328881904D01*
X205668571Y-328834285D01*
X205620952Y-328786666D01*
X205573333Y-328691428D01*
X205573333Y-328500952D01*
X205620952Y-328405714D01*
X205668571Y-328358095D01*
X205763809Y-328310476D01*
%TO.C,C47*%
X254357142Y-316817142D02*
X254404761Y-316769523D01*
X254452380Y-316626666D01*
X254452380Y-316531428D01*
X254404761Y-316388571D01*
X254309523Y-316293333D01*
X254214285Y-316245714D01*
X254023809Y-316198095D01*
X253880952Y-316198095D01*
X253690476Y-316245714D01*
X253595238Y-316293333D01*
X253500000Y-316388571D01*
X253452380Y-316531428D01*
X253452380Y-316626666D01*
X253500000Y-316769523D01*
X253547619Y-316817142D01*
X253785714Y-317674285D02*
X254452380Y-317674285D01*
X253404761Y-317436190D02*
X254119047Y-317198095D01*
X254119047Y-317817142D01*
X253452380Y-318102857D02*
X253452380Y-318769523D01*
X254452380Y-318340952D01*
%TO.C,C48*%
X208637142Y-174577142D02*
X208684761Y-174529523D01*
X208732380Y-174386666D01*
X208732380Y-174291428D01*
X208684761Y-174148571D01*
X208589523Y-174053333D01*
X208494285Y-174005714D01*
X208303809Y-173958095D01*
X208160952Y-173958095D01*
X207970476Y-174005714D01*
X207875238Y-174053333D01*
X207780000Y-174148571D01*
X207732380Y-174291428D01*
X207732380Y-174386666D01*
X207780000Y-174529523D01*
X207827619Y-174577142D01*
X208065714Y-175434285D02*
X208732380Y-175434285D01*
X207684761Y-175196190D02*
X208399047Y-174958095D01*
X208399047Y-175577142D01*
X208160952Y-176100952D02*
X208113333Y-176005714D01*
X208065714Y-175958095D01*
X207970476Y-175910476D01*
X207922857Y-175910476D01*
X207827619Y-175958095D01*
X207780000Y-176005714D01*
X207732380Y-176100952D01*
X207732380Y-176291428D01*
X207780000Y-176386666D01*
X207827619Y-176434285D01*
X207922857Y-176481904D01*
X207970476Y-176481904D01*
X208065714Y-176434285D01*
X208113333Y-176386666D01*
X208160952Y-176291428D01*
X208160952Y-176100952D01*
X208208571Y-176005714D01*
X208256190Y-175958095D01*
X208351428Y-175910476D01*
X208541904Y-175910476D01*
X208637142Y-175958095D01*
X208684761Y-176005714D01*
X208732380Y-176100952D01*
X208732380Y-176291428D01*
X208684761Y-176386666D01*
X208637142Y-176434285D01*
X208541904Y-176481904D01*
X208351428Y-176481904D01*
X208256190Y-176434285D01*
X208208571Y-176386666D01*
X208160952Y-176291428D01*
%TO.C,C50*%
X237847142Y-199977142D02*
X237894761Y-199929523D01*
X237942380Y-199786666D01*
X237942380Y-199691428D01*
X237894761Y-199548571D01*
X237799523Y-199453333D01*
X237704285Y-199405714D01*
X237513809Y-199358095D01*
X237370952Y-199358095D01*
X237180476Y-199405714D01*
X237085238Y-199453333D01*
X236990000Y-199548571D01*
X236942380Y-199691428D01*
X236942380Y-199786666D01*
X236990000Y-199929523D01*
X237037619Y-199977142D01*
X236942380Y-200881904D02*
X236942380Y-200405714D01*
X237418571Y-200358095D01*
X237370952Y-200405714D01*
X237323333Y-200500952D01*
X237323333Y-200739047D01*
X237370952Y-200834285D01*
X237418571Y-200881904D01*
X237513809Y-200929523D01*
X237751904Y-200929523D01*
X237847142Y-200881904D01*
X237894761Y-200834285D01*
X237942380Y-200739047D01*
X237942380Y-200500952D01*
X237894761Y-200405714D01*
X237847142Y-200358095D01*
X236942380Y-201548571D02*
X236942380Y-201643809D01*
X236990000Y-201739047D01*
X237037619Y-201786666D01*
X237132857Y-201834285D01*
X237323333Y-201881904D01*
X237561428Y-201881904D01*
X237751904Y-201834285D01*
X237847142Y-201786666D01*
X237894761Y-201739047D01*
X237942380Y-201643809D01*
X237942380Y-201548571D01*
X237894761Y-201453333D01*
X237847142Y-201405714D01*
X237751904Y-201358095D01*
X237561428Y-201310476D01*
X237323333Y-201310476D01*
X237132857Y-201358095D01*
X237037619Y-201405714D01*
X236990000Y-201453333D01*
X236942380Y-201548571D01*
%TO.C,C51*%
X264517142Y-199977142D02*
X264564761Y-199929523D01*
X264612380Y-199786666D01*
X264612380Y-199691428D01*
X264564761Y-199548571D01*
X264469523Y-199453333D01*
X264374285Y-199405714D01*
X264183809Y-199358095D01*
X264040952Y-199358095D01*
X263850476Y-199405714D01*
X263755238Y-199453333D01*
X263660000Y-199548571D01*
X263612380Y-199691428D01*
X263612380Y-199786666D01*
X263660000Y-199929523D01*
X263707619Y-199977142D01*
X263612380Y-200881904D02*
X263612380Y-200405714D01*
X264088571Y-200358095D01*
X264040952Y-200405714D01*
X263993333Y-200500952D01*
X263993333Y-200739047D01*
X264040952Y-200834285D01*
X264088571Y-200881904D01*
X264183809Y-200929523D01*
X264421904Y-200929523D01*
X264517142Y-200881904D01*
X264564761Y-200834285D01*
X264612380Y-200739047D01*
X264612380Y-200500952D01*
X264564761Y-200405714D01*
X264517142Y-200358095D01*
X264612380Y-201881904D02*
X264612380Y-201310476D01*
X264612380Y-201596190D02*
X263612380Y-201596190D01*
X263755238Y-201500952D01*
X263850476Y-201405714D01*
X263898095Y-201310476D01*
%TO.C,C52*%
X254357142Y-213947142D02*
X254404761Y-213899523D01*
X254452380Y-213756666D01*
X254452380Y-213661428D01*
X254404761Y-213518571D01*
X254309523Y-213423333D01*
X254214285Y-213375714D01*
X254023809Y-213328095D01*
X253880952Y-213328095D01*
X253690476Y-213375714D01*
X253595238Y-213423333D01*
X253500000Y-213518571D01*
X253452380Y-213661428D01*
X253452380Y-213756666D01*
X253500000Y-213899523D01*
X253547619Y-213947142D01*
X253452380Y-214851904D02*
X253452380Y-214375714D01*
X253928571Y-214328095D01*
X253880952Y-214375714D01*
X253833333Y-214470952D01*
X253833333Y-214709047D01*
X253880952Y-214804285D01*
X253928571Y-214851904D01*
X254023809Y-214899523D01*
X254261904Y-214899523D01*
X254357142Y-214851904D01*
X254404761Y-214804285D01*
X254452380Y-214709047D01*
X254452380Y-214470952D01*
X254404761Y-214375714D01*
X254357142Y-214328095D01*
X253547619Y-215280476D02*
X253500000Y-215328095D01*
X253452380Y-215423333D01*
X253452380Y-215661428D01*
X253500000Y-215756666D01*
X253547619Y-215804285D01*
X253642857Y-215851904D01*
X253738095Y-215851904D01*
X253880952Y-215804285D01*
X254452380Y-215232857D01*
X254452380Y-215851904D01*
%TO.C,C55*%
X264517142Y-187277142D02*
X264564761Y-187229523D01*
X264612380Y-187086666D01*
X264612380Y-186991428D01*
X264564761Y-186848571D01*
X264469523Y-186753333D01*
X264374285Y-186705714D01*
X264183809Y-186658095D01*
X264040952Y-186658095D01*
X263850476Y-186705714D01*
X263755238Y-186753333D01*
X263660000Y-186848571D01*
X263612380Y-186991428D01*
X263612380Y-187086666D01*
X263660000Y-187229523D01*
X263707619Y-187277142D01*
X263612380Y-188181904D02*
X263612380Y-187705714D01*
X264088571Y-187658095D01*
X264040952Y-187705714D01*
X263993333Y-187800952D01*
X263993333Y-188039047D01*
X264040952Y-188134285D01*
X264088571Y-188181904D01*
X264183809Y-188229523D01*
X264421904Y-188229523D01*
X264517142Y-188181904D01*
X264564761Y-188134285D01*
X264612380Y-188039047D01*
X264612380Y-187800952D01*
X264564761Y-187705714D01*
X264517142Y-187658095D01*
X263612380Y-189134285D02*
X263612380Y-188658095D01*
X264088571Y-188610476D01*
X264040952Y-188658095D01*
X263993333Y-188753333D01*
X263993333Y-188991428D01*
X264040952Y-189086666D01*
X264088571Y-189134285D01*
X264183809Y-189181904D01*
X264421904Y-189181904D01*
X264517142Y-189134285D01*
X264564761Y-189086666D01*
X264612380Y-188991428D01*
X264612380Y-188753333D01*
X264564761Y-188658095D01*
X264517142Y-188610476D01*
%TO.C,C64*%
X249277142Y-227957142D02*
X249324761Y-227909523D01*
X249372380Y-227766666D01*
X249372380Y-227671428D01*
X249324761Y-227528571D01*
X249229523Y-227433333D01*
X249134285Y-227385714D01*
X248943809Y-227338095D01*
X248800952Y-227338095D01*
X248610476Y-227385714D01*
X248515238Y-227433333D01*
X248420000Y-227528571D01*
X248372380Y-227671428D01*
X248372380Y-227766666D01*
X248420000Y-227909523D01*
X248467619Y-227957142D01*
X248372380Y-228814285D02*
X248372380Y-228623809D01*
X248420000Y-228528571D01*
X248467619Y-228480952D01*
X248610476Y-228385714D01*
X248800952Y-228338095D01*
X249181904Y-228338095D01*
X249277142Y-228385714D01*
X249324761Y-228433333D01*
X249372380Y-228528571D01*
X249372380Y-228719047D01*
X249324761Y-228814285D01*
X249277142Y-228861904D01*
X249181904Y-228909523D01*
X248943809Y-228909523D01*
X248848571Y-228861904D01*
X248800952Y-228814285D01*
X248753333Y-228719047D01*
X248753333Y-228528571D01*
X248800952Y-228433333D01*
X248848571Y-228385714D01*
X248943809Y-228338095D01*
X248705714Y-229766666D02*
X249372380Y-229766666D01*
X248324761Y-229528571D02*
X249039047Y-229290476D01*
X249039047Y-229909523D01*
%TO.C,C65*%
X354052142Y-163187142D02*
X354099761Y-163139523D01*
X354147380Y-162996666D01*
X354147380Y-162901428D01*
X354099761Y-162758571D01*
X354004523Y-162663333D01*
X353909285Y-162615714D01*
X353718809Y-162568095D01*
X353575952Y-162568095D01*
X353385476Y-162615714D01*
X353290238Y-162663333D01*
X353195000Y-162758571D01*
X353147380Y-162901428D01*
X353147380Y-162996666D01*
X353195000Y-163139523D01*
X353242619Y-163187142D01*
X353147380Y-164044285D02*
X353147380Y-163853809D01*
X353195000Y-163758571D01*
X353242619Y-163710952D01*
X353385476Y-163615714D01*
X353575952Y-163568095D01*
X353956904Y-163568095D01*
X354052142Y-163615714D01*
X354099761Y-163663333D01*
X354147380Y-163758571D01*
X354147380Y-163949047D01*
X354099761Y-164044285D01*
X354052142Y-164091904D01*
X353956904Y-164139523D01*
X353718809Y-164139523D01*
X353623571Y-164091904D01*
X353575952Y-164044285D01*
X353528333Y-163949047D01*
X353528333Y-163758571D01*
X353575952Y-163663333D01*
X353623571Y-163615714D01*
X353718809Y-163568095D01*
X353147380Y-165044285D02*
X353147380Y-164568095D01*
X353623571Y-164520476D01*
X353575952Y-164568095D01*
X353528333Y-164663333D01*
X353528333Y-164901428D01*
X353575952Y-164996666D01*
X353623571Y-165044285D01*
X353718809Y-165091904D01*
X353956904Y-165091904D01*
X354052142Y-165044285D01*
X354099761Y-164996666D01*
X354147380Y-164901428D01*
X354147380Y-164663333D01*
X354099761Y-164568095D01*
X354052142Y-164520476D01*
%TO.C,C66*%
X122912154Y-231767142D02*
X122959773Y-231719523D01*
X123007392Y-231576666D01*
X123007392Y-231481428D01*
X122959773Y-231338571D01*
X122864535Y-231243333D01*
X122769297Y-231195714D01*
X122578821Y-231148095D01*
X122435964Y-231148095D01*
X122245488Y-231195714D01*
X122150250Y-231243333D01*
X122055012Y-231338571D01*
X122007392Y-231481428D01*
X122007392Y-231576666D01*
X122055012Y-231719523D01*
X122102631Y-231767142D01*
X122007392Y-232624285D02*
X122007392Y-232433809D01*
X122055012Y-232338571D01*
X122102631Y-232290952D01*
X122245488Y-232195714D01*
X122435964Y-232148095D01*
X122816916Y-232148095D01*
X122912154Y-232195714D01*
X122959773Y-232243333D01*
X123007392Y-232338571D01*
X123007392Y-232529047D01*
X122959773Y-232624285D01*
X122912154Y-232671904D01*
X122816916Y-232719523D01*
X122578821Y-232719523D01*
X122483583Y-232671904D01*
X122435964Y-232624285D01*
X122388345Y-232529047D01*
X122388345Y-232338571D01*
X122435964Y-232243333D01*
X122483583Y-232195714D01*
X122578821Y-232148095D01*
X122007392Y-233576666D02*
X122007392Y-233386190D01*
X122055012Y-233290952D01*
X122102631Y-233243333D01*
X122245488Y-233148095D01*
X122435964Y-233100476D01*
X122816916Y-233100476D01*
X122912154Y-233148095D01*
X122959773Y-233195714D01*
X123007392Y-233290952D01*
X123007392Y-233481428D01*
X122959773Y-233576666D01*
X122912154Y-233624285D01*
X122816916Y-233671904D01*
X122578821Y-233671904D01*
X122483583Y-233624285D01*
X122435964Y-233576666D01*
X122388345Y-233481428D01*
X122388345Y-233290952D01*
X122435964Y-233195714D01*
X122483583Y-233148095D01*
X122578821Y-233100476D01*
%TO.C,C67*%
X166727142Y-358767142D02*
X166774761Y-358719523D01*
X166822380Y-358576666D01*
X166822380Y-358481428D01*
X166774761Y-358338571D01*
X166679523Y-358243333D01*
X166584285Y-358195714D01*
X166393809Y-358148095D01*
X166250952Y-358148095D01*
X166060476Y-358195714D01*
X165965238Y-358243333D01*
X165870000Y-358338571D01*
X165822380Y-358481428D01*
X165822380Y-358576666D01*
X165870000Y-358719523D01*
X165917619Y-358767142D01*
X165822380Y-359624285D02*
X165822380Y-359433809D01*
X165870000Y-359338571D01*
X165917619Y-359290952D01*
X166060476Y-359195714D01*
X166250952Y-359148095D01*
X166631904Y-359148095D01*
X166727142Y-359195714D01*
X166774761Y-359243333D01*
X166822380Y-359338571D01*
X166822380Y-359529047D01*
X166774761Y-359624285D01*
X166727142Y-359671904D01*
X166631904Y-359719523D01*
X166393809Y-359719523D01*
X166298571Y-359671904D01*
X166250952Y-359624285D01*
X166203333Y-359529047D01*
X166203333Y-359338571D01*
X166250952Y-359243333D01*
X166298571Y-359195714D01*
X166393809Y-359148095D01*
X165822380Y-360052857D02*
X165822380Y-360719523D01*
X166822380Y-360290952D01*
%TO.C,C68*%
X355607857Y-372467142D02*
X355655476Y-372514761D01*
X355798333Y-372562380D01*
X355893571Y-372562380D01*
X356036428Y-372514761D01*
X356131666Y-372419523D01*
X356179285Y-372324285D01*
X356226904Y-372133809D01*
X356226904Y-371990952D01*
X356179285Y-371800476D01*
X356131666Y-371705238D01*
X356036428Y-371610000D01*
X355893571Y-371562380D01*
X355798333Y-371562380D01*
X355655476Y-371610000D01*
X355607857Y-371657619D01*
X354750714Y-371562380D02*
X354941190Y-371562380D01*
X355036428Y-371610000D01*
X355084047Y-371657619D01*
X355179285Y-371800476D01*
X355226904Y-371990952D01*
X355226904Y-372371904D01*
X355179285Y-372467142D01*
X355131666Y-372514761D01*
X355036428Y-372562380D01*
X354845952Y-372562380D01*
X354750714Y-372514761D01*
X354703095Y-372467142D01*
X354655476Y-372371904D01*
X354655476Y-372133809D01*
X354703095Y-372038571D01*
X354750714Y-371990952D01*
X354845952Y-371943333D01*
X355036428Y-371943333D01*
X355131666Y-371990952D01*
X355179285Y-372038571D01*
X355226904Y-372133809D01*
X354084047Y-371990952D02*
X354179285Y-371943333D01*
X354226904Y-371895714D01*
X354274523Y-371800476D01*
X354274523Y-371752857D01*
X354226904Y-371657619D01*
X354179285Y-371610000D01*
X354084047Y-371562380D01*
X353893571Y-371562380D01*
X353798333Y-371610000D01*
X353750714Y-371657619D01*
X353703095Y-371752857D01*
X353703095Y-371800476D01*
X353750714Y-371895714D01*
X353798333Y-371943333D01*
X353893571Y-371990952D01*
X354084047Y-371990952D01*
X354179285Y-372038571D01*
X354226904Y-372086190D01*
X354274523Y-372181428D01*
X354274523Y-372371904D01*
X354226904Y-372467142D01*
X354179285Y-372514761D01*
X354084047Y-372562380D01*
X353893571Y-372562380D01*
X353798333Y-372514761D01*
X353750714Y-372467142D01*
X353703095Y-372371904D01*
X353703095Y-372181428D01*
X353750714Y-372086190D01*
X353798333Y-372038571D01*
X353893571Y-371990952D01*
%TO.C,J1*%
X326088333Y-142327380D02*
X326088333Y-143041666D01*
X326135952Y-143184523D01*
X326231190Y-143279761D01*
X326374047Y-143327380D01*
X326469285Y-143327380D01*
X325088333Y-143327380D02*
X325659761Y-143327380D01*
X325374047Y-143327380D02*
X325374047Y-142327380D01*
X325469285Y-142470238D01*
X325564523Y-142565476D01*
X325659761Y-142613095D01*
%TO.C,J2*%
X357838333Y-142327380D02*
X357838333Y-143041666D01*
X357885952Y-143184523D01*
X357981190Y-143279761D01*
X358124047Y-143327380D01*
X358219285Y-143327380D01*
X357409761Y-142422619D02*
X357362142Y-142375000D01*
X357266904Y-142327380D01*
X357028809Y-142327380D01*
X356933571Y-142375000D01*
X356885952Y-142422619D01*
X356838333Y-142517857D01*
X356838333Y-142613095D01*
X356885952Y-142755952D01*
X357457380Y-143327380D01*
X356838333Y-143327380D01*
%TO.C,RR5*%
X354996666Y-272232380D02*
X355330000Y-271756190D01*
X355568095Y-272232380D02*
X355568095Y-271232380D01*
X355187142Y-271232380D01*
X355091904Y-271280000D01*
X355044285Y-271327619D01*
X354996666Y-271422857D01*
X354996666Y-271565714D01*
X355044285Y-271660952D01*
X355091904Y-271708571D01*
X355187142Y-271756190D01*
X355568095Y-271756190D01*
X353996666Y-272232380D02*
X354330000Y-271756190D01*
X354568095Y-272232380D02*
X354568095Y-271232380D01*
X354187142Y-271232380D01*
X354091904Y-271280000D01*
X354044285Y-271327619D01*
X353996666Y-271422857D01*
X353996666Y-271565714D01*
X354044285Y-271660952D01*
X354091904Y-271708571D01*
X354187142Y-271756190D01*
X354568095Y-271756190D01*
X353091904Y-271232380D02*
X353568095Y-271232380D01*
X353615714Y-271708571D01*
X353568095Y-271660952D01*
X353472857Y-271613333D01*
X353234761Y-271613333D01*
X353139523Y-271660952D01*
X353091904Y-271708571D01*
X353044285Y-271803809D01*
X353044285Y-272041904D01*
X353091904Y-272137142D01*
X353139523Y-272184761D01*
X353234761Y-272232380D01*
X353472857Y-272232380D01*
X353568095Y-272184761D01*
X353615714Y-272137142D01*
%TO.C,RR6*%
X360076666Y-335097380D02*
X360410000Y-334621190D01*
X360648095Y-335097380D02*
X360648095Y-334097380D01*
X360267142Y-334097380D01*
X360171904Y-334145000D01*
X360124285Y-334192619D01*
X360076666Y-334287857D01*
X360076666Y-334430714D01*
X360124285Y-334525952D01*
X360171904Y-334573571D01*
X360267142Y-334621190D01*
X360648095Y-334621190D01*
X359076666Y-335097380D02*
X359410000Y-334621190D01*
X359648095Y-335097380D02*
X359648095Y-334097380D01*
X359267142Y-334097380D01*
X359171904Y-334145000D01*
X359124285Y-334192619D01*
X359076666Y-334287857D01*
X359076666Y-334430714D01*
X359124285Y-334525952D01*
X359171904Y-334573571D01*
X359267142Y-334621190D01*
X359648095Y-334621190D01*
X358219523Y-334097380D02*
X358410000Y-334097380D01*
X358505238Y-334145000D01*
X358552857Y-334192619D01*
X358648095Y-334335476D01*
X358695714Y-334525952D01*
X358695714Y-334906904D01*
X358648095Y-335002142D01*
X358600476Y-335049761D01*
X358505238Y-335097380D01*
X358314761Y-335097380D01*
X358219523Y-335049761D01*
X358171904Y-335002142D01*
X358124285Y-334906904D01*
X358124285Y-334668809D01*
X358171904Y-334573571D01*
X358219523Y-334525952D01*
X358314761Y-334478333D01*
X358505238Y-334478333D01*
X358600476Y-334525952D01*
X358648095Y-334573571D01*
X358695714Y-334668809D01*
%TO.C,U21*%
X221702380Y-186721904D02*
X222511904Y-186721904D01*
X222607142Y-186769523D01*
X222654761Y-186817142D01*
X222702380Y-186912380D01*
X222702380Y-187102857D01*
X222654761Y-187198095D01*
X222607142Y-187245714D01*
X222511904Y-187293333D01*
X221702380Y-187293333D01*
X221797619Y-187721904D02*
X221750000Y-187769523D01*
X221702380Y-187864761D01*
X221702380Y-188102857D01*
X221750000Y-188198095D01*
X221797619Y-188245714D01*
X221892857Y-188293333D01*
X221988095Y-188293333D01*
X222130952Y-188245714D01*
X222702380Y-187674285D01*
X222702380Y-188293333D01*
X222702380Y-189245714D02*
X222702380Y-188674285D01*
X222702380Y-188960000D02*
X221702380Y-188960000D01*
X221845238Y-188864761D01*
X221940476Y-188769523D01*
X221988095Y-188674285D01*
%TO.C,U22*%
X221702380Y-174021904D02*
X222511904Y-174021904D01*
X222607142Y-174069523D01*
X222654761Y-174117142D01*
X222702380Y-174212380D01*
X222702380Y-174402857D01*
X222654761Y-174498095D01*
X222607142Y-174545714D01*
X222511904Y-174593333D01*
X221702380Y-174593333D01*
X221797619Y-175021904D02*
X221750000Y-175069523D01*
X221702380Y-175164761D01*
X221702380Y-175402857D01*
X221750000Y-175498095D01*
X221797619Y-175545714D01*
X221892857Y-175593333D01*
X221988095Y-175593333D01*
X222130952Y-175545714D01*
X222702380Y-174974285D01*
X222702380Y-175593333D01*
X221797619Y-175974285D02*
X221750000Y-176021904D01*
X221702380Y-176117142D01*
X221702380Y-176355238D01*
X221750000Y-176450476D01*
X221797619Y-176498095D01*
X221892857Y-176545714D01*
X221988095Y-176545714D01*
X222130952Y-176498095D01*
X222702380Y-175926666D01*
X222702380Y-176545714D01*
%TO.C,U23*%
X221702380Y-199421904D02*
X222511904Y-199421904D01*
X222607142Y-199469523D01*
X222654761Y-199517142D01*
X222702380Y-199612380D01*
X222702380Y-199802857D01*
X222654761Y-199898095D01*
X222607142Y-199945714D01*
X222511904Y-199993333D01*
X221702380Y-199993333D01*
X221797619Y-200421904D02*
X221750000Y-200469523D01*
X221702380Y-200564761D01*
X221702380Y-200802857D01*
X221750000Y-200898095D01*
X221797619Y-200945714D01*
X221892857Y-200993333D01*
X221988095Y-200993333D01*
X222130952Y-200945714D01*
X222702380Y-200374285D01*
X222702380Y-200993333D01*
X221702380Y-201326666D02*
X221702380Y-201945714D01*
X222083333Y-201612380D01*
X222083333Y-201755238D01*
X222130952Y-201850476D01*
X222178571Y-201898095D01*
X222273809Y-201945714D01*
X222511904Y-201945714D01*
X222607142Y-201898095D01*
X222654761Y-201850476D01*
X222702380Y-201755238D01*
X222702380Y-201469523D01*
X222654761Y-201374285D01*
X222607142Y-201326666D01*
%TO.C,U24*%
X249642380Y-186721904D02*
X250451904Y-186721904D01*
X250547142Y-186769523D01*
X250594761Y-186817142D01*
X250642380Y-186912380D01*
X250642380Y-187102857D01*
X250594761Y-187198095D01*
X250547142Y-187245714D01*
X250451904Y-187293333D01*
X249642380Y-187293333D01*
X249737619Y-187721904D02*
X249690000Y-187769523D01*
X249642380Y-187864761D01*
X249642380Y-188102857D01*
X249690000Y-188198095D01*
X249737619Y-188245714D01*
X249832857Y-188293333D01*
X249928095Y-188293333D01*
X250070952Y-188245714D01*
X250642380Y-187674285D01*
X250642380Y-188293333D01*
X249975714Y-189150476D02*
X250642380Y-189150476D01*
X249594761Y-188912380D02*
X250309047Y-188674285D01*
X250309047Y-189293333D01*
%TO.C,U25*%
X276312380Y-199421904D02*
X277121904Y-199421904D01*
X277217142Y-199469523D01*
X277264761Y-199517142D01*
X277312380Y-199612380D01*
X277312380Y-199802857D01*
X277264761Y-199898095D01*
X277217142Y-199945714D01*
X277121904Y-199993333D01*
X276312380Y-199993333D01*
X276407619Y-200421904D02*
X276360000Y-200469523D01*
X276312380Y-200564761D01*
X276312380Y-200802857D01*
X276360000Y-200898095D01*
X276407619Y-200945714D01*
X276502857Y-200993333D01*
X276598095Y-200993333D01*
X276740952Y-200945714D01*
X277312380Y-200374285D01*
X277312380Y-200993333D01*
X276312380Y-201898095D02*
X276312380Y-201421904D01*
X276788571Y-201374285D01*
X276740952Y-201421904D01*
X276693333Y-201517142D01*
X276693333Y-201755238D01*
X276740952Y-201850476D01*
X276788571Y-201898095D01*
X276883809Y-201945714D01*
X277121904Y-201945714D01*
X277217142Y-201898095D01*
X277264761Y-201850476D01*
X277312380Y-201755238D01*
X277312380Y-201517142D01*
X277264761Y-201421904D01*
X277217142Y-201374285D01*
%TO.C,U26*%
X249642380Y-199421904D02*
X250451904Y-199421904D01*
X250547142Y-199469523D01*
X250594761Y-199517142D01*
X250642380Y-199612380D01*
X250642380Y-199802857D01*
X250594761Y-199898095D01*
X250547142Y-199945714D01*
X250451904Y-199993333D01*
X249642380Y-199993333D01*
X249737619Y-200421904D02*
X249690000Y-200469523D01*
X249642380Y-200564761D01*
X249642380Y-200802857D01*
X249690000Y-200898095D01*
X249737619Y-200945714D01*
X249832857Y-200993333D01*
X249928095Y-200993333D01*
X250070952Y-200945714D01*
X250642380Y-200374285D01*
X250642380Y-200993333D01*
X249642380Y-201850476D02*
X249642380Y-201660000D01*
X249690000Y-201564761D01*
X249737619Y-201517142D01*
X249880476Y-201421904D01*
X250070952Y-201374285D01*
X250451904Y-201374285D01*
X250547142Y-201421904D01*
X250594761Y-201469523D01*
X250642380Y-201564761D01*
X250642380Y-201755238D01*
X250594761Y-201850476D01*
X250547142Y-201898095D01*
X250451904Y-201945714D01*
X250213809Y-201945714D01*
X250118571Y-201898095D01*
X250070952Y-201850476D01*
X250023333Y-201755238D01*
X250023333Y-201564761D01*
X250070952Y-201469523D01*
X250118571Y-201421904D01*
X250213809Y-201374285D01*
%TO.C,U27*%
X225512380Y-213391904D02*
X226321904Y-213391904D01*
X226417142Y-213439523D01*
X226464761Y-213487142D01*
X226512380Y-213582380D01*
X226512380Y-213772857D01*
X226464761Y-213868095D01*
X226417142Y-213915714D01*
X226321904Y-213963333D01*
X225512380Y-213963333D01*
X225607619Y-214391904D02*
X225560000Y-214439523D01*
X225512380Y-214534761D01*
X225512380Y-214772857D01*
X225560000Y-214868095D01*
X225607619Y-214915714D01*
X225702857Y-214963333D01*
X225798095Y-214963333D01*
X225940952Y-214915714D01*
X226512380Y-214344285D01*
X226512380Y-214963333D01*
X225512380Y-215296666D02*
X225512380Y-215963333D01*
X226512380Y-215534761D01*
%TO.C,U28*%
X269962380Y-213391904D02*
X270771904Y-213391904D01*
X270867142Y-213439523D01*
X270914761Y-213487142D01*
X270962380Y-213582380D01*
X270962380Y-213772857D01*
X270914761Y-213868095D01*
X270867142Y-213915714D01*
X270771904Y-213963333D01*
X269962380Y-213963333D01*
X270057619Y-214391904D02*
X270010000Y-214439523D01*
X269962380Y-214534761D01*
X269962380Y-214772857D01*
X270010000Y-214868095D01*
X270057619Y-214915714D01*
X270152857Y-214963333D01*
X270248095Y-214963333D01*
X270390952Y-214915714D01*
X270962380Y-214344285D01*
X270962380Y-214963333D01*
X270390952Y-215534761D02*
X270343333Y-215439523D01*
X270295714Y-215391904D01*
X270200476Y-215344285D01*
X270152857Y-215344285D01*
X270057619Y-215391904D01*
X270010000Y-215439523D01*
X269962380Y-215534761D01*
X269962380Y-215725238D01*
X270010000Y-215820476D01*
X270057619Y-215868095D01*
X270152857Y-215915714D01*
X270200476Y-215915714D01*
X270295714Y-215868095D01*
X270343333Y-215820476D01*
X270390952Y-215725238D01*
X270390952Y-215534761D01*
X270438571Y-215439523D01*
X270486190Y-215391904D01*
X270581428Y-215344285D01*
X270771904Y-215344285D01*
X270867142Y-215391904D01*
X270914761Y-215439523D01*
X270962380Y-215534761D01*
X270962380Y-215725238D01*
X270914761Y-215820476D01*
X270867142Y-215868095D01*
X270771904Y-215915714D01*
X270581428Y-215915714D01*
X270486190Y-215868095D01*
X270438571Y-215820476D01*
X270390952Y-215725238D01*
%TO.C,U29*%
X337272380Y-367686904D02*
X338081904Y-367686904D01*
X338177142Y-367734523D01*
X338224761Y-367782142D01*
X338272380Y-367877380D01*
X338272380Y-368067857D01*
X338224761Y-368163095D01*
X338177142Y-368210714D01*
X338081904Y-368258333D01*
X337272380Y-368258333D01*
X337367619Y-368686904D02*
X337320000Y-368734523D01*
X337272380Y-368829761D01*
X337272380Y-369067857D01*
X337320000Y-369163095D01*
X337367619Y-369210714D01*
X337462857Y-369258333D01*
X337558095Y-369258333D01*
X337700952Y-369210714D01*
X338272380Y-368639285D01*
X338272380Y-369258333D01*
X338272380Y-369734523D02*
X338272380Y-369925000D01*
X338224761Y-370020238D01*
X338177142Y-370067857D01*
X338034285Y-370163095D01*
X337843809Y-370210714D01*
X337462857Y-370210714D01*
X337367619Y-370163095D01*
X337320000Y-370115476D01*
X337272380Y-370020238D01*
X337272380Y-369829761D01*
X337320000Y-369734523D01*
X337367619Y-369686904D01*
X337462857Y-369639285D01*
X337700952Y-369639285D01*
X337796190Y-369686904D01*
X337843809Y-369734523D01*
X337891428Y-369829761D01*
X337891428Y-370020238D01*
X337843809Y-370115476D01*
X337796190Y-370163095D01*
X337700952Y-370210714D01*
%TO.C,U31*%
X276312380Y-186721904D02*
X277121904Y-186721904D01*
X277217142Y-186769523D01*
X277264761Y-186817142D01*
X277312380Y-186912380D01*
X277312380Y-187102857D01*
X277264761Y-187198095D01*
X277217142Y-187245714D01*
X277121904Y-187293333D01*
X276312380Y-187293333D01*
X276312380Y-187674285D02*
X276312380Y-188293333D01*
X276693333Y-187960000D01*
X276693333Y-188102857D01*
X276740952Y-188198095D01*
X276788571Y-188245714D01*
X276883809Y-188293333D01*
X277121904Y-188293333D01*
X277217142Y-188245714D01*
X277264761Y-188198095D01*
X277312380Y-188102857D01*
X277312380Y-187817142D01*
X277264761Y-187721904D01*
X277217142Y-187674285D01*
X277312380Y-189245714D02*
X277312380Y-188674285D01*
X277312380Y-188960000D02*
X276312380Y-188960000D01*
X276455238Y-188864761D01*
X276550476Y-188769523D01*
X276598095Y-188674285D01*
%TO.C,C56*%
X324207142Y-243157142D02*
X324254761Y-243109523D01*
X324302380Y-242966666D01*
X324302380Y-242871428D01*
X324254761Y-242728571D01*
X324159523Y-242633333D01*
X324064285Y-242585714D01*
X323873809Y-242538095D01*
X323730952Y-242538095D01*
X323540476Y-242585714D01*
X323445238Y-242633333D01*
X323350000Y-242728571D01*
X323302380Y-242871428D01*
X323302380Y-242966666D01*
X323350000Y-243109523D01*
X323397619Y-243157142D01*
X323302380Y-244061904D02*
X323302380Y-243585714D01*
X323778571Y-243538095D01*
X323730952Y-243585714D01*
X323683333Y-243680952D01*
X323683333Y-243919047D01*
X323730952Y-244014285D01*
X323778571Y-244061904D01*
X323873809Y-244109523D01*
X324111904Y-244109523D01*
X324207142Y-244061904D01*
X324254761Y-244014285D01*
X324302380Y-243919047D01*
X324302380Y-243680952D01*
X324254761Y-243585714D01*
X324207142Y-243538095D01*
X323302380Y-244966666D02*
X323302380Y-244776190D01*
X323350000Y-244680952D01*
X323397619Y-244633333D01*
X323540476Y-244538095D01*
X323730952Y-244490476D01*
X324111904Y-244490476D01*
X324207142Y-244538095D01*
X324254761Y-244585714D01*
X324302380Y-244680952D01*
X324302380Y-244871428D01*
X324254761Y-244966666D01*
X324207142Y-245014285D01*
X324111904Y-245061904D01*
X323873809Y-245061904D01*
X323778571Y-245014285D01*
X323730952Y-244966666D01*
X323683333Y-244871428D01*
X323683333Y-244680952D01*
X323730952Y-244585714D01*
X323778571Y-244538095D01*
X323873809Y-244490476D01*
%TO.C,C57*%
X264517142Y-174577142D02*
X264564761Y-174529523D01*
X264612380Y-174386666D01*
X264612380Y-174291428D01*
X264564761Y-174148571D01*
X264469523Y-174053333D01*
X264374285Y-174005714D01*
X264183809Y-173958095D01*
X264040952Y-173958095D01*
X263850476Y-174005714D01*
X263755238Y-174053333D01*
X263660000Y-174148571D01*
X263612380Y-174291428D01*
X263612380Y-174386666D01*
X263660000Y-174529523D01*
X263707619Y-174577142D01*
X263612380Y-175481904D02*
X263612380Y-175005714D01*
X264088571Y-174958095D01*
X264040952Y-175005714D01*
X263993333Y-175100952D01*
X263993333Y-175339047D01*
X264040952Y-175434285D01*
X264088571Y-175481904D01*
X264183809Y-175529523D01*
X264421904Y-175529523D01*
X264517142Y-175481904D01*
X264564761Y-175434285D01*
X264612380Y-175339047D01*
X264612380Y-175100952D01*
X264564761Y-175005714D01*
X264517142Y-174958095D01*
X263612380Y-175862857D02*
X263612380Y-176529523D01*
X264612380Y-176100952D01*
%TO.C,C58*%
X324207142Y-254587142D02*
X324254761Y-254539523D01*
X324302380Y-254396666D01*
X324302380Y-254301428D01*
X324254761Y-254158571D01*
X324159523Y-254063333D01*
X324064285Y-254015714D01*
X323873809Y-253968095D01*
X323730952Y-253968095D01*
X323540476Y-254015714D01*
X323445238Y-254063333D01*
X323350000Y-254158571D01*
X323302380Y-254301428D01*
X323302380Y-254396666D01*
X323350000Y-254539523D01*
X323397619Y-254587142D01*
X323302380Y-255491904D02*
X323302380Y-255015714D01*
X323778571Y-254968095D01*
X323730952Y-255015714D01*
X323683333Y-255110952D01*
X323683333Y-255349047D01*
X323730952Y-255444285D01*
X323778571Y-255491904D01*
X323873809Y-255539523D01*
X324111904Y-255539523D01*
X324207142Y-255491904D01*
X324254761Y-255444285D01*
X324302380Y-255349047D01*
X324302380Y-255110952D01*
X324254761Y-255015714D01*
X324207142Y-254968095D01*
X323730952Y-256110952D02*
X323683333Y-256015714D01*
X323635714Y-255968095D01*
X323540476Y-255920476D01*
X323492857Y-255920476D01*
X323397619Y-255968095D01*
X323350000Y-256015714D01*
X323302380Y-256110952D01*
X323302380Y-256301428D01*
X323350000Y-256396666D01*
X323397619Y-256444285D01*
X323492857Y-256491904D01*
X323540476Y-256491904D01*
X323635714Y-256444285D01*
X323683333Y-256396666D01*
X323730952Y-256301428D01*
X323730952Y-256110952D01*
X323778571Y-256015714D01*
X323826190Y-255968095D01*
X323921428Y-255920476D01*
X324111904Y-255920476D01*
X324207142Y-255968095D01*
X324254761Y-256015714D01*
X324302380Y-256110952D01*
X324302380Y-256301428D01*
X324254761Y-256396666D01*
X324207142Y-256444285D01*
X324111904Y-256491904D01*
X323921428Y-256491904D01*
X323826190Y-256444285D01*
X323778571Y-256396666D01*
X323730952Y-256301428D01*
%TO.C,C59*%
X291187142Y-170767142D02*
X291234761Y-170719523D01*
X291282380Y-170576666D01*
X291282380Y-170481428D01*
X291234761Y-170338571D01*
X291139523Y-170243333D01*
X291044285Y-170195714D01*
X290853809Y-170148095D01*
X290710952Y-170148095D01*
X290520476Y-170195714D01*
X290425238Y-170243333D01*
X290330000Y-170338571D01*
X290282380Y-170481428D01*
X290282380Y-170576666D01*
X290330000Y-170719523D01*
X290377619Y-170767142D01*
X290282380Y-171671904D02*
X290282380Y-171195714D01*
X290758571Y-171148095D01*
X290710952Y-171195714D01*
X290663333Y-171290952D01*
X290663333Y-171529047D01*
X290710952Y-171624285D01*
X290758571Y-171671904D01*
X290853809Y-171719523D01*
X291091904Y-171719523D01*
X291187142Y-171671904D01*
X291234761Y-171624285D01*
X291282380Y-171529047D01*
X291282380Y-171290952D01*
X291234761Y-171195714D01*
X291187142Y-171148095D01*
X291282380Y-172195714D02*
X291282380Y-172386190D01*
X291234761Y-172481428D01*
X291187142Y-172529047D01*
X291044285Y-172624285D01*
X290853809Y-172671904D01*
X290472857Y-172671904D01*
X290377619Y-172624285D01*
X290330000Y-172576666D01*
X290282380Y-172481428D01*
X290282380Y-172290952D01*
X290330000Y-172195714D01*
X290377619Y-172148095D01*
X290472857Y-172100476D01*
X290710952Y-172100476D01*
X290806190Y-172148095D01*
X290853809Y-172195714D01*
X290901428Y-172290952D01*
X290901428Y-172481428D01*
X290853809Y-172576666D01*
X290806190Y-172624285D01*
X290710952Y-172671904D01*
%TO.C,C60*%
X291187142Y-243157142D02*
X291234761Y-243109523D01*
X291282380Y-242966666D01*
X291282380Y-242871428D01*
X291234761Y-242728571D01*
X291139523Y-242633333D01*
X291044285Y-242585714D01*
X290853809Y-242538095D01*
X290710952Y-242538095D01*
X290520476Y-242585714D01*
X290425238Y-242633333D01*
X290330000Y-242728571D01*
X290282380Y-242871428D01*
X290282380Y-242966666D01*
X290330000Y-243109523D01*
X290377619Y-243157142D01*
X290282380Y-244014285D02*
X290282380Y-243823809D01*
X290330000Y-243728571D01*
X290377619Y-243680952D01*
X290520476Y-243585714D01*
X290710952Y-243538095D01*
X291091904Y-243538095D01*
X291187142Y-243585714D01*
X291234761Y-243633333D01*
X291282380Y-243728571D01*
X291282380Y-243919047D01*
X291234761Y-244014285D01*
X291187142Y-244061904D01*
X291091904Y-244109523D01*
X290853809Y-244109523D01*
X290758571Y-244061904D01*
X290710952Y-244014285D01*
X290663333Y-243919047D01*
X290663333Y-243728571D01*
X290710952Y-243633333D01*
X290758571Y-243585714D01*
X290853809Y-243538095D01*
X290282380Y-244728571D02*
X290282380Y-244823809D01*
X290330000Y-244919047D01*
X290377619Y-244966666D01*
X290472857Y-245014285D01*
X290663333Y-245061904D01*
X290901428Y-245061904D01*
X291091904Y-245014285D01*
X291187142Y-244966666D01*
X291234761Y-244919047D01*
X291282380Y-244823809D01*
X291282380Y-244728571D01*
X291234761Y-244633333D01*
X291187142Y-244585714D01*
X291091904Y-244538095D01*
X290901428Y-244490476D01*
X290663333Y-244490476D01*
X290472857Y-244538095D01*
X290377619Y-244585714D01*
X290330000Y-244633333D01*
X290282380Y-244728571D01*
%TO.C,C61*%
X317857142Y-155527142D02*
X317904761Y-155479523D01*
X317952380Y-155336666D01*
X317952380Y-155241428D01*
X317904761Y-155098571D01*
X317809523Y-155003333D01*
X317714285Y-154955714D01*
X317523809Y-154908095D01*
X317380952Y-154908095D01*
X317190476Y-154955714D01*
X317095238Y-155003333D01*
X317000000Y-155098571D01*
X316952380Y-155241428D01*
X316952380Y-155336666D01*
X317000000Y-155479523D01*
X317047619Y-155527142D01*
X316952380Y-156384285D02*
X316952380Y-156193809D01*
X317000000Y-156098571D01*
X317047619Y-156050952D01*
X317190476Y-155955714D01*
X317380952Y-155908095D01*
X317761904Y-155908095D01*
X317857142Y-155955714D01*
X317904761Y-156003333D01*
X317952380Y-156098571D01*
X317952380Y-156289047D01*
X317904761Y-156384285D01*
X317857142Y-156431904D01*
X317761904Y-156479523D01*
X317523809Y-156479523D01*
X317428571Y-156431904D01*
X317380952Y-156384285D01*
X317333333Y-156289047D01*
X317333333Y-156098571D01*
X317380952Y-156003333D01*
X317428571Y-155955714D01*
X317523809Y-155908095D01*
X317952380Y-157431904D02*
X317952380Y-156860476D01*
X317952380Y-157146190D02*
X316952380Y-157146190D01*
X317095238Y-157050952D01*
X317190476Y-156955714D01*
X317238095Y-156860476D01*
%TO.C,C62*%
X291187142Y-155527142D02*
X291234761Y-155479523D01*
X291282380Y-155336666D01*
X291282380Y-155241428D01*
X291234761Y-155098571D01*
X291139523Y-155003333D01*
X291044285Y-154955714D01*
X290853809Y-154908095D01*
X290710952Y-154908095D01*
X290520476Y-154955714D01*
X290425238Y-155003333D01*
X290330000Y-155098571D01*
X290282380Y-155241428D01*
X290282380Y-155336666D01*
X290330000Y-155479523D01*
X290377619Y-155527142D01*
X290282380Y-156384285D02*
X290282380Y-156193809D01*
X290330000Y-156098571D01*
X290377619Y-156050952D01*
X290520476Y-155955714D01*
X290710952Y-155908095D01*
X291091904Y-155908095D01*
X291187142Y-155955714D01*
X291234761Y-156003333D01*
X291282380Y-156098571D01*
X291282380Y-156289047D01*
X291234761Y-156384285D01*
X291187142Y-156431904D01*
X291091904Y-156479523D01*
X290853809Y-156479523D01*
X290758571Y-156431904D01*
X290710952Y-156384285D01*
X290663333Y-156289047D01*
X290663333Y-156098571D01*
X290710952Y-156003333D01*
X290758571Y-155955714D01*
X290853809Y-155908095D01*
X290377619Y-156860476D02*
X290330000Y-156908095D01*
X290282380Y-157003333D01*
X290282380Y-157241428D01*
X290330000Y-157336666D01*
X290377619Y-157384285D01*
X290472857Y-157431904D01*
X290568095Y-157431904D01*
X290710952Y-157384285D01*
X291282380Y-156812857D01*
X291282380Y-157431904D01*
%TO.C,C63*%
X291187142Y-254587142D02*
X291234761Y-254539523D01*
X291282380Y-254396666D01*
X291282380Y-254301428D01*
X291234761Y-254158571D01*
X291139523Y-254063333D01*
X291044285Y-254015714D01*
X290853809Y-253968095D01*
X290710952Y-253968095D01*
X290520476Y-254015714D01*
X290425238Y-254063333D01*
X290330000Y-254158571D01*
X290282380Y-254301428D01*
X290282380Y-254396666D01*
X290330000Y-254539523D01*
X290377619Y-254587142D01*
X290282380Y-255444285D02*
X290282380Y-255253809D01*
X290330000Y-255158571D01*
X290377619Y-255110952D01*
X290520476Y-255015714D01*
X290710952Y-254968095D01*
X291091904Y-254968095D01*
X291187142Y-255015714D01*
X291234761Y-255063333D01*
X291282380Y-255158571D01*
X291282380Y-255349047D01*
X291234761Y-255444285D01*
X291187142Y-255491904D01*
X291091904Y-255539523D01*
X290853809Y-255539523D01*
X290758571Y-255491904D01*
X290710952Y-255444285D01*
X290663333Y-255349047D01*
X290663333Y-255158571D01*
X290710952Y-255063333D01*
X290758571Y-255015714D01*
X290853809Y-254968095D01*
X290282380Y-255872857D02*
X290282380Y-256491904D01*
X290663333Y-256158571D01*
X290663333Y-256301428D01*
X290710952Y-256396666D01*
X290758571Y-256444285D01*
X290853809Y-256491904D01*
X291091904Y-256491904D01*
X291187142Y-256444285D01*
X291234761Y-256396666D01*
X291282380Y-256301428D01*
X291282380Y-256015714D01*
X291234761Y-255920476D01*
X291187142Y-255872857D01*
%TO.C,C69*%
X208637142Y-199977142D02*
X208684761Y-199929523D01*
X208732380Y-199786666D01*
X208732380Y-199691428D01*
X208684761Y-199548571D01*
X208589523Y-199453333D01*
X208494285Y-199405714D01*
X208303809Y-199358095D01*
X208160952Y-199358095D01*
X207970476Y-199405714D01*
X207875238Y-199453333D01*
X207780000Y-199548571D01*
X207732380Y-199691428D01*
X207732380Y-199786666D01*
X207780000Y-199929523D01*
X207827619Y-199977142D01*
X207732380Y-200834285D02*
X207732380Y-200643809D01*
X207780000Y-200548571D01*
X207827619Y-200500952D01*
X207970476Y-200405714D01*
X208160952Y-200358095D01*
X208541904Y-200358095D01*
X208637142Y-200405714D01*
X208684761Y-200453333D01*
X208732380Y-200548571D01*
X208732380Y-200739047D01*
X208684761Y-200834285D01*
X208637142Y-200881904D01*
X208541904Y-200929523D01*
X208303809Y-200929523D01*
X208208571Y-200881904D01*
X208160952Y-200834285D01*
X208113333Y-200739047D01*
X208113333Y-200548571D01*
X208160952Y-200453333D01*
X208208571Y-200405714D01*
X208303809Y-200358095D01*
X208732380Y-201405714D02*
X208732380Y-201596190D01*
X208684761Y-201691428D01*
X208637142Y-201739047D01*
X208494285Y-201834285D01*
X208303809Y-201881904D01*
X207922857Y-201881904D01*
X207827619Y-201834285D01*
X207780000Y-201786666D01*
X207732380Y-201691428D01*
X207732380Y-201500952D01*
X207780000Y-201405714D01*
X207827619Y-201358095D01*
X207922857Y-201310476D01*
X208160952Y-201310476D01*
X208256190Y-201358095D01*
X208303809Y-201405714D01*
X208351428Y-201500952D01*
X208351428Y-201691428D01*
X208303809Y-201786666D01*
X208256190Y-201834285D01*
X208160952Y-201881904D01*
%TO.C,C70*%
X291187142Y-226647142D02*
X291234761Y-226599523D01*
X291282380Y-226456666D01*
X291282380Y-226361428D01*
X291234761Y-226218571D01*
X291139523Y-226123333D01*
X291044285Y-226075714D01*
X290853809Y-226028095D01*
X290710952Y-226028095D01*
X290520476Y-226075714D01*
X290425238Y-226123333D01*
X290330000Y-226218571D01*
X290282380Y-226361428D01*
X290282380Y-226456666D01*
X290330000Y-226599523D01*
X290377619Y-226647142D01*
X290282380Y-226980476D02*
X290282380Y-227647142D01*
X291282380Y-227218571D01*
X290282380Y-228218571D02*
X290282380Y-228313809D01*
X290330000Y-228409047D01*
X290377619Y-228456666D01*
X290472857Y-228504285D01*
X290663333Y-228551904D01*
X290901428Y-228551904D01*
X291091904Y-228504285D01*
X291187142Y-228456666D01*
X291234761Y-228409047D01*
X291282380Y-228313809D01*
X291282380Y-228218571D01*
X291234761Y-228123333D01*
X291187142Y-228075714D01*
X291091904Y-228028095D01*
X290901428Y-227980476D01*
X290663333Y-227980476D01*
X290472857Y-228028095D01*
X290377619Y-228075714D01*
X290330000Y-228123333D01*
X290282380Y-228218571D01*
%TO.C,C71*%
X209907142Y-213947142D02*
X209954761Y-213899523D01*
X210002380Y-213756666D01*
X210002380Y-213661428D01*
X209954761Y-213518571D01*
X209859523Y-213423333D01*
X209764285Y-213375714D01*
X209573809Y-213328095D01*
X209430952Y-213328095D01*
X209240476Y-213375714D01*
X209145238Y-213423333D01*
X209050000Y-213518571D01*
X209002380Y-213661428D01*
X209002380Y-213756666D01*
X209050000Y-213899523D01*
X209097619Y-213947142D01*
X209002380Y-214280476D02*
X209002380Y-214947142D01*
X210002380Y-214518571D01*
X210002380Y-215851904D02*
X210002380Y-215280476D01*
X210002380Y-215566190D02*
X209002380Y-215566190D01*
X209145238Y-215470952D01*
X209240476Y-215375714D01*
X209288095Y-215280476D01*
%TO.C,C72*%
X291187142Y-208867142D02*
X291234761Y-208819523D01*
X291282380Y-208676666D01*
X291282380Y-208581428D01*
X291234761Y-208438571D01*
X291139523Y-208343333D01*
X291044285Y-208295714D01*
X290853809Y-208248095D01*
X290710952Y-208248095D01*
X290520476Y-208295714D01*
X290425238Y-208343333D01*
X290330000Y-208438571D01*
X290282380Y-208581428D01*
X290282380Y-208676666D01*
X290330000Y-208819523D01*
X290377619Y-208867142D01*
X290282380Y-209200476D02*
X290282380Y-209867142D01*
X291282380Y-209438571D01*
X290377619Y-210200476D02*
X290330000Y-210248095D01*
X290282380Y-210343333D01*
X290282380Y-210581428D01*
X290330000Y-210676666D01*
X290377619Y-210724285D01*
X290472857Y-210771904D01*
X290568095Y-210771904D01*
X290710952Y-210724285D01*
X291282380Y-210152857D01*
X291282380Y-210771904D01*
%TO.C,C73*%
X263247142Y-343487142D02*
X263294761Y-343439523D01*
X263342380Y-343296666D01*
X263342380Y-343201428D01*
X263294761Y-343058571D01*
X263199523Y-342963333D01*
X263104285Y-342915714D01*
X262913809Y-342868095D01*
X262770952Y-342868095D01*
X262580476Y-342915714D01*
X262485238Y-342963333D01*
X262390000Y-343058571D01*
X262342380Y-343201428D01*
X262342380Y-343296666D01*
X262390000Y-343439523D01*
X262437619Y-343487142D01*
X262342380Y-343820476D02*
X262342380Y-344487142D01*
X263342380Y-344058571D01*
X262342380Y-344772857D02*
X262342380Y-345391904D01*
X262723333Y-345058571D01*
X262723333Y-345201428D01*
X262770952Y-345296666D01*
X262818571Y-345344285D01*
X262913809Y-345391904D01*
X263151904Y-345391904D01*
X263247142Y-345344285D01*
X263294761Y-345296666D01*
X263342380Y-345201428D01*
X263342380Y-344915714D01*
X263294761Y-344820476D01*
X263247142Y-344772857D01*
%TO.C,C74*%
X291187142Y-189817142D02*
X291234761Y-189769523D01*
X291282380Y-189626666D01*
X291282380Y-189531428D01*
X291234761Y-189388571D01*
X291139523Y-189293333D01*
X291044285Y-189245714D01*
X290853809Y-189198095D01*
X290710952Y-189198095D01*
X290520476Y-189245714D01*
X290425238Y-189293333D01*
X290330000Y-189388571D01*
X290282380Y-189531428D01*
X290282380Y-189626666D01*
X290330000Y-189769523D01*
X290377619Y-189817142D01*
X290282380Y-190150476D02*
X290282380Y-190817142D01*
X291282380Y-190388571D01*
X290615714Y-191626666D02*
X291282380Y-191626666D01*
X290234761Y-191388571D02*
X290949047Y-191150476D01*
X290949047Y-191769523D01*
%TO.C,C75*%
X237847142Y-187277142D02*
X237894761Y-187229523D01*
X237942380Y-187086666D01*
X237942380Y-186991428D01*
X237894761Y-186848571D01*
X237799523Y-186753333D01*
X237704285Y-186705714D01*
X237513809Y-186658095D01*
X237370952Y-186658095D01*
X237180476Y-186705714D01*
X237085238Y-186753333D01*
X236990000Y-186848571D01*
X236942380Y-186991428D01*
X236942380Y-187086666D01*
X236990000Y-187229523D01*
X237037619Y-187277142D01*
X236942380Y-187610476D02*
X236942380Y-188277142D01*
X237942380Y-187848571D01*
X236942380Y-189134285D02*
X236942380Y-188658095D01*
X237418571Y-188610476D01*
X237370952Y-188658095D01*
X237323333Y-188753333D01*
X237323333Y-188991428D01*
X237370952Y-189086666D01*
X237418571Y-189134285D01*
X237513809Y-189181904D01*
X237751904Y-189181904D01*
X237847142Y-189134285D01*
X237894761Y-189086666D01*
X237942380Y-188991428D01*
X237942380Y-188753333D01*
X237894761Y-188658095D01*
X237847142Y-188610476D01*
%TO.C,C76*%
X208637142Y-187277142D02*
X208684761Y-187229523D01*
X208732380Y-187086666D01*
X208732380Y-186991428D01*
X208684761Y-186848571D01*
X208589523Y-186753333D01*
X208494285Y-186705714D01*
X208303809Y-186658095D01*
X208160952Y-186658095D01*
X207970476Y-186705714D01*
X207875238Y-186753333D01*
X207780000Y-186848571D01*
X207732380Y-186991428D01*
X207732380Y-187086666D01*
X207780000Y-187229523D01*
X207827619Y-187277142D01*
X207732380Y-187610476D02*
X207732380Y-188277142D01*
X208732380Y-187848571D01*
X207732380Y-189086666D02*
X207732380Y-188896190D01*
X207780000Y-188800952D01*
X207827619Y-188753333D01*
X207970476Y-188658095D01*
X208160952Y-188610476D01*
X208541904Y-188610476D01*
X208637142Y-188658095D01*
X208684761Y-188705714D01*
X208732380Y-188800952D01*
X208732380Y-188991428D01*
X208684761Y-189086666D01*
X208637142Y-189134285D01*
X208541904Y-189181904D01*
X208303809Y-189181904D01*
X208208571Y-189134285D01*
X208160952Y-189086666D01*
X208113333Y-188991428D01*
X208113333Y-188800952D01*
X208160952Y-188705714D01*
X208208571Y-188658095D01*
X208303809Y-188610476D01*
%TO.C,JP1*%
X243403333Y-219162380D02*
X243403333Y-219876666D01*
X243450952Y-220019523D01*
X243546190Y-220114761D01*
X243689047Y-220162380D01*
X243784285Y-220162380D01*
X242927142Y-220162380D02*
X242927142Y-219162380D01*
X242546190Y-219162380D01*
X242450952Y-219210000D01*
X242403333Y-219257619D01*
X242355714Y-219352857D01*
X242355714Y-219495714D01*
X242403333Y-219590952D01*
X242450952Y-219638571D01*
X242546190Y-219686190D01*
X242927142Y-219686190D01*
X241403333Y-220162380D02*
X241974761Y-220162380D01*
X241689047Y-220162380D02*
X241689047Y-219162380D01*
X241784285Y-219305238D01*
X241879523Y-219400476D01*
X241974761Y-219448095D01*
%TO.C,JP2*%
X248483333Y-219162380D02*
X248483333Y-219876666D01*
X248530952Y-220019523D01*
X248626190Y-220114761D01*
X248769047Y-220162380D01*
X248864285Y-220162380D01*
X248007142Y-220162380D02*
X248007142Y-219162380D01*
X247626190Y-219162380D01*
X247530952Y-219210000D01*
X247483333Y-219257619D01*
X247435714Y-219352857D01*
X247435714Y-219495714D01*
X247483333Y-219590952D01*
X247530952Y-219638571D01*
X247626190Y-219686190D01*
X248007142Y-219686190D01*
X247054761Y-219257619D02*
X247007142Y-219210000D01*
X246911904Y-219162380D01*
X246673809Y-219162380D01*
X246578571Y-219210000D01*
X246530952Y-219257619D01*
X246483333Y-219352857D01*
X246483333Y-219448095D01*
X246530952Y-219590952D01*
X247102380Y-220162380D01*
X246483333Y-220162380D01*
%TO.C,P5*%
X161742380Y-140231904D02*
X160742380Y-140231904D01*
X160742380Y-140612857D01*
X160790000Y-140708095D01*
X160837619Y-140755714D01*
X160932857Y-140803333D01*
X161075714Y-140803333D01*
X161170952Y-140755714D01*
X161218571Y-140708095D01*
X161266190Y-140612857D01*
X161266190Y-140231904D01*
X160742380Y-141708095D02*
X160742380Y-141231904D01*
X161218571Y-141184285D01*
X161170952Y-141231904D01*
X161123333Y-141327142D01*
X161123333Y-141565238D01*
X161170952Y-141660476D01*
X161218571Y-141708095D01*
X161313809Y-141755714D01*
X161551904Y-141755714D01*
X161647142Y-141708095D01*
X161694761Y-141660476D01*
X161742380Y-141565238D01*
X161742380Y-141327142D01*
X161694761Y-141231904D01*
X161647142Y-141184285D01*
%TO.C,P9*%
X141422380Y-295171904D02*
X140422380Y-295171904D01*
X140422380Y-295552857D01*
X140470000Y-295648095D01*
X140517619Y-295695714D01*
X140612857Y-295743333D01*
X140755714Y-295743333D01*
X140850952Y-295695714D01*
X140898571Y-295648095D01*
X140946190Y-295552857D01*
X140946190Y-295171904D01*
X141422380Y-296219523D02*
X141422380Y-296410000D01*
X141374761Y-296505238D01*
X141327142Y-296552857D01*
X141184285Y-296648095D01*
X140993809Y-296695714D01*
X140612857Y-296695714D01*
X140517619Y-296648095D01*
X140470000Y-296600476D01*
X140422380Y-296505238D01*
X140422380Y-296314761D01*
X140470000Y-296219523D01*
X140517619Y-296171904D01*
X140612857Y-296124285D01*
X140850952Y-296124285D01*
X140946190Y-296171904D01*
X140993809Y-296219523D01*
X141041428Y-296314761D01*
X141041428Y-296505238D01*
X140993809Y-296600476D01*
X140946190Y-296648095D01*
X140850952Y-296695714D01*
%TO.C,P10*%
X197302380Y-139755714D02*
X196302380Y-139755714D01*
X196302380Y-140136666D01*
X196350000Y-140231904D01*
X196397619Y-140279523D01*
X196492857Y-140327142D01*
X196635714Y-140327142D01*
X196730952Y-140279523D01*
X196778571Y-140231904D01*
X196826190Y-140136666D01*
X196826190Y-139755714D01*
X197302380Y-141279523D02*
X197302380Y-140708095D01*
X197302380Y-140993809D02*
X196302380Y-140993809D01*
X196445238Y-140898571D01*
X196540476Y-140803333D01*
X196588095Y-140708095D01*
X196302380Y-141898571D02*
X196302380Y-141993809D01*
X196350000Y-142089047D01*
X196397619Y-142136666D01*
X196492857Y-142184285D01*
X196683333Y-142231904D01*
X196921428Y-142231904D01*
X197111904Y-142184285D01*
X197207142Y-142136666D01*
X197254761Y-142089047D01*
X197302380Y-141993809D01*
X197302380Y-141898571D01*
X197254761Y-141803333D01*
X197207142Y-141755714D01*
X197111904Y-141708095D01*
X196921428Y-141660476D01*
X196683333Y-141660476D01*
X196492857Y-141708095D01*
X196397619Y-141755714D01*
X196350000Y-141803333D01*
X196302380Y-141898571D01*
%TO.C,P11*%
X364942380Y-162615714D02*
X363942380Y-162615714D01*
X363942380Y-162996666D01*
X363990000Y-163091904D01*
X364037619Y-163139523D01*
X364132857Y-163187142D01*
X364275714Y-163187142D01*
X364370952Y-163139523D01*
X364418571Y-163091904D01*
X364466190Y-162996666D01*
X364466190Y-162615714D01*
X364942380Y-164139523D02*
X364942380Y-163568095D01*
X364942380Y-163853809D02*
X363942380Y-163853809D01*
X364085238Y-163758571D01*
X364180476Y-163663333D01*
X364228095Y-163568095D01*
X364942380Y-165091904D02*
X364942380Y-164520476D01*
X364942380Y-164806190D02*
X363942380Y-164806190D01*
X364085238Y-164710952D01*
X364180476Y-164615714D01*
X364228095Y-164520476D01*
%TO.C,P12*%
X161742380Y-294695714D02*
X160742380Y-294695714D01*
X160742380Y-295076666D01*
X160790000Y-295171904D01*
X160837619Y-295219523D01*
X160932857Y-295267142D01*
X161075714Y-295267142D01*
X161170952Y-295219523D01*
X161218571Y-295171904D01*
X161266190Y-295076666D01*
X161266190Y-294695714D01*
X161742380Y-296219523D02*
X161742380Y-295648095D01*
X161742380Y-295933809D02*
X160742380Y-295933809D01*
X160885238Y-295838571D01*
X160980476Y-295743333D01*
X161028095Y-295648095D01*
X160837619Y-296600476D02*
X160790000Y-296648095D01*
X160742380Y-296743333D01*
X160742380Y-296981428D01*
X160790000Y-297076666D01*
X160837619Y-297124285D01*
X160932857Y-297171904D01*
X161028095Y-297171904D01*
X161170952Y-297124285D01*
X161742380Y-296552857D01*
X161742380Y-297171904D01*
%TO.C,P13*%
X207462380Y-294695714D02*
X206462380Y-294695714D01*
X206462380Y-295076666D01*
X206510000Y-295171904D01*
X206557619Y-295219523D01*
X206652857Y-295267142D01*
X206795714Y-295267142D01*
X206890952Y-295219523D01*
X206938571Y-295171904D01*
X206986190Y-295076666D01*
X206986190Y-294695714D01*
X207462380Y-296219523D02*
X207462380Y-295648095D01*
X207462380Y-295933809D02*
X206462380Y-295933809D01*
X206605238Y-295838571D01*
X206700476Y-295743333D01*
X206748095Y-295648095D01*
X206462380Y-296552857D02*
X206462380Y-297171904D01*
X206843333Y-296838571D01*
X206843333Y-296981428D01*
X206890952Y-297076666D01*
X206938571Y-297124285D01*
X207033809Y-297171904D01*
X207271904Y-297171904D01*
X207367142Y-297124285D01*
X207414761Y-297076666D01*
X207462380Y-296981428D01*
X207462380Y-296695714D01*
X207414761Y-296600476D01*
X207367142Y-296552857D01*
%TO.C,P14*%
X364942380Y-294695714D02*
X363942380Y-294695714D01*
X363942380Y-295076666D01*
X363990000Y-295171904D01*
X364037619Y-295219523D01*
X364132857Y-295267142D01*
X364275714Y-295267142D01*
X364370952Y-295219523D01*
X364418571Y-295171904D01*
X364466190Y-295076666D01*
X364466190Y-294695714D01*
X364942380Y-296219523D02*
X364942380Y-295648095D01*
X364942380Y-295933809D02*
X363942380Y-295933809D01*
X364085238Y-295838571D01*
X364180476Y-295743333D01*
X364228095Y-295648095D01*
X364275714Y-297076666D02*
X364942380Y-297076666D01*
X363894761Y-296838571D02*
X364609047Y-296600476D01*
X364609047Y-297219523D01*
%TO.C,P15*%
X207462380Y-367085714D02*
X206462380Y-367085714D01*
X206462380Y-367466666D01*
X206510000Y-367561904D01*
X206557619Y-367609523D01*
X206652857Y-367657142D01*
X206795714Y-367657142D01*
X206890952Y-367609523D01*
X206938571Y-367561904D01*
X206986190Y-367466666D01*
X206986190Y-367085714D01*
X207462380Y-368609523D02*
X207462380Y-368038095D01*
X207462380Y-368323809D02*
X206462380Y-368323809D01*
X206605238Y-368228571D01*
X206700476Y-368133333D01*
X206748095Y-368038095D01*
X206462380Y-369514285D02*
X206462380Y-369038095D01*
X206938571Y-368990476D01*
X206890952Y-369038095D01*
X206843333Y-369133333D01*
X206843333Y-369371428D01*
X206890952Y-369466666D01*
X206938571Y-369514285D01*
X207033809Y-369561904D01*
X207271904Y-369561904D01*
X207367142Y-369514285D01*
X207414761Y-369466666D01*
X207462380Y-369371428D01*
X207462380Y-369133333D01*
X207414761Y-369038095D01*
X207367142Y-368990476D01*
%TO.C,P16*%
X364942380Y-367085714D02*
X363942380Y-367085714D01*
X363942380Y-367466666D01*
X363990000Y-367561904D01*
X364037619Y-367609523D01*
X364132857Y-367657142D01*
X364275714Y-367657142D01*
X364370952Y-367609523D01*
X364418571Y-367561904D01*
X364466190Y-367466666D01*
X364466190Y-367085714D01*
X364942380Y-368609523D02*
X364942380Y-368038095D01*
X364942380Y-368323809D02*
X363942380Y-368323809D01*
X364085238Y-368228571D01*
X364180476Y-368133333D01*
X364228095Y-368038095D01*
X363942380Y-369466666D02*
X363942380Y-369276190D01*
X363990000Y-369180952D01*
X364037619Y-369133333D01*
X364180476Y-369038095D01*
X364370952Y-368990476D01*
X364751904Y-368990476D01*
X364847142Y-369038095D01*
X364894761Y-369085714D01*
X364942380Y-369180952D01*
X364942380Y-369371428D01*
X364894761Y-369466666D01*
X364847142Y-369514285D01*
X364751904Y-369561904D01*
X364513809Y-369561904D01*
X364418571Y-369514285D01*
X364370952Y-369466666D01*
X364323333Y-369371428D01*
X364323333Y-369180952D01*
X364370952Y-369085714D01*
X364418571Y-369038095D01*
X364513809Y-368990476D01*
%TO.C,P21*%
X333319285Y-301442380D02*
X333319285Y-300442380D01*
X332938333Y-300442380D01*
X332843095Y-300490000D01*
X332795476Y-300537619D01*
X332747857Y-300632857D01*
X332747857Y-300775714D01*
X332795476Y-300870952D01*
X332843095Y-300918571D01*
X332938333Y-300966190D01*
X333319285Y-300966190D01*
X332366904Y-300537619D02*
X332319285Y-300490000D01*
X332224047Y-300442380D01*
X331985952Y-300442380D01*
X331890714Y-300490000D01*
X331843095Y-300537619D01*
X331795476Y-300632857D01*
X331795476Y-300728095D01*
X331843095Y-300870952D01*
X332414523Y-301442380D01*
X331795476Y-301442380D01*
X330843095Y-301442380D02*
X331414523Y-301442380D01*
X331128809Y-301442380D02*
X331128809Y-300442380D01*
X331224047Y-300585238D01*
X331319285Y-300680476D01*
X331414523Y-300728095D01*
%TO.C,P24*%
X246324285Y-155392380D02*
X246324285Y-154392380D01*
X245943333Y-154392380D01*
X245848095Y-154440000D01*
X245800476Y-154487619D01*
X245752857Y-154582857D01*
X245752857Y-154725714D01*
X245800476Y-154820952D01*
X245848095Y-154868571D01*
X245943333Y-154916190D01*
X246324285Y-154916190D01*
X245371904Y-154487619D02*
X245324285Y-154440000D01*
X245229047Y-154392380D01*
X244990952Y-154392380D01*
X244895714Y-154440000D01*
X244848095Y-154487619D01*
X244800476Y-154582857D01*
X244800476Y-154678095D01*
X244848095Y-154820952D01*
X245419523Y-155392380D01*
X244800476Y-155392380D01*
X243943333Y-154725714D02*
X243943333Y-155392380D01*
X244181428Y-154344761D02*
X244419523Y-155059047D01*
X243800476Y-155059047D01*
%TO.C,P23*%
X246324285Y-246832380D02*
X246324285Y-245832380D01*
X245943333Y-245832380D01*
X245848095Y-245880000D01*
X245800476Y-245927619D01*
X245752857Y-246022857D01*
X245752857Y-246165714D01*
X245800476Y-246260952D01*
X245848095Y-246308571D01*
X245943333Y-246356190D01*
X246324285Y-246356190D01*
X245371904Y-245927619D02*
X245324285Y-245880000D01*
X245229047Y-245832380D01*
X244990952Y-245832380D01*
X244895714Y-245880000D01*
X244848095Y-245927619D01*
X244800476Y-246022857D01*
X244800476Y-246118095D01*
X244848095Y-246260952D01*
X245419523Y-246832380D01*
X244800476Y-246832380D01*
X244467142Y-245832380D02*
X243848095Y-245832380D01*
X244181428Y-246213333D01*
X244038571Y-246213333D01*
X243943333Y-246260952D01*
X243895714Y-246308571D01*
X243848095Y-246403809D01*
X243848095Y-246641904D01*
X243895714Y-246737142D01*
X243943333Y-246784761D01*
X244038571Y-246832380D01*
X244324285Y-246832380D01*
X244419523Y-246784761D01*
X244467142Y-246737142D01*
%TO.C,P22*%
X198572380Y-343590714D02*
X197572380Y-343590714D01*
X197572380Y-343971666D01*
X197620000Y-344066904D01*
X197667619Y-344114523D01*
X197762857Y-344162142D01*
X197905714Y-344162142D01*
X198000952Y-344114523D01*
X198048571Y-344066904D01*
X198096190Y-343971666D01*
X198096190Y-343590714D01*
X197667619Y-344543095D02*
X197620000Y-344590714D01*
X197572380Y-344685952D01*
X197572380Y-344924047D01*
X197620000Y-345019285D01*
X197667619Y-345066904D01*
X197762857Y-345114523D01*
X197858095Y-345114523D01*
X198000952Y-345066904D01*
X198572380Y-344495476D01*
X198572380Y-345114523D01*
X197667619Y-345495476D02*
X197620000Y-345543095D01*
X197572380Y-345638333D01*
X197572380Y-345876428D01*
X197620000Y-345971666D01*
X197667619Y-346019285D01*
X197762857Y-346066904D01*
X197858095Y-346066904D01*
X198000952Y-346019285D01*
X198572380Y-345447857D01*
X198572380Y-346066904D01*
%TO.C,C49*%
X325477142Y-368887142D02*
X325524761Y-368839523D01*
X325572380Y-368696666D01*
X325572380Y-368601428D01*
X325524761Y-368458571D01*
X325429523Y-368363333D01*
X325334285Y-368315714D01*
X325143809Y-368268095D01*
X325000952Y-368268095D01*
X324810476Y-368315714D01*
X324715238Y-368363333D01*
X324620000Y-368458571D01*
X324572380Y-368601428D01*
X324572380Y-368696666D01*
X324620000Y-368839523D01*
X324667619Y-368887142D01*
X324905714Y-369744285D02*
X325572380Y-369744285D01*
X324524761Y-369506190D02*
X325239047Y-369268095D01*
X325239047Y-369887142D01*
X325572380Y-370315714D02*
X325572380Y-370506190D01*
X325524761Y-370601428D01*
X325477142Y-370649047D01*
X325334285Y-370744285D01*
X325143809Y-370791904D01*
X324762857Y-370791904D01*
X324667619Y-370744285D01*
X324620000Y-370696666D01*
X324572380Y-370601428D01*
X324572380Y-370410952D01*
X324620000Y-370315714D01*
X324667619Y-370268095D01*
X324762857Y-370220476D01*
X325000952Y-370220476D01*
X325096190Y-370268095D01*
X325143809Y-370315714D01*
X325191428Y-370410952D01*
X325191428Y-370601428D01*
X325143809Y-370696666D01*
X325096190Y-370744285D01*
X325000952Y-370791904D01*
D14*
%TO.C,SW2*%
X306196666Y-364692380D02*
X306125238Y-364716190D01*
X306006190Y-364716190D01*
X305958571Y-364692380D01*
X305934761Y-364668571D01*
X305910952Y-364620952D01*
X305910952Y-364573333D01*
X305934761Y-364525714D01*
X305958571Y-364501904D01*
X306006190Y-364478095D01*
X306101428Y-364454285D01*
X306149047Y-364430476D01*
X306172857Y-364406666D01*
X306196666Y-364359047D01*
X306196666Y-364311428D01*
X306172857Y-364263809D01*
X306149047Y-364240000D01*
X306101428Y-364216190D01*
X305982380Y-364216190D01*
X305910952Y-364240000D01*
X305744285Y-364216190D02*
X305625238Y-364716190D01*
X305530000Y-364359047D01*
X305434761Y-364716190D01*
X305315714Y-364216190D01*
X305149047Y-364263809D02*
X305125238Y-364240000D01*
X305077619Y-364216190D01*
X304958571Y-364216190D01*
X304910952Y-364240000D01*
X304887142Y-364263809D01*
X304863333Y-364311428D01*
X304863333Y-364359047D01*
X304887142Y-364430476D01*
X305172857Y-364716190D01*
X304863333Y-364716190D01*
D11*
%TO.C,P25*%
X354909285Y-157932380D02*
X354909285Y-156932380D01*
X354528333Y-156932380D01*
X354433095Y-156980000D01*
X354385476Y-157027619D01*
X354337857Y-157122857D01*
X354337857Y-157265714D01*
X354385476Y-157360952D01*
X354433095Y-157408571D01*
X354528333Y-157456190D01*
X354909285Y-157456190D01*
X353956904Y-157027619D02*
X353909285Y-156980000D01*
X353814047Y-156932380D01*
X353575952Y-156932380D01*
X353480714Y-156980000D01*
X353433095Y-157027619D01*
X353385476Y-157122857D01*
X353385476Y-157218095D01*
X353433095Y-157360952D01*
X354004523Y-157932380D01*
X353385476Y-157932380D01*
X352480714Y-156932380D02*
X352956904Y-156932380D01*
X353004523Y-157408571D01*
X352956904Y-157360952D01*
X352861666Y-157313333D01*
X352623571Y-157313333D01*
X352528333Y-157360952D01*
X352480714Y-157408571D01*
X352433095Y-157503809D01*
X352433095Y-157741904D01*
X352480714Y-157837142D01*
X352528333Y-157884761D01*
X352623571Y-157932380D01*
X352861666Y-157932380D01*
X352956904Y-157884761D01*
X353004523Y-157837142D01*
%TD*%
M02*
